{
.formatVersion = 3;
axes = (
{
name = Weight;
tag = wght;
}
);
classes = (
{
code = "a aacute abreve acaron acircumflex adieresis adotbelow agrave ahoi amacron aogonek aring aringacute atilde abreveacute abrevedotbelow abrevegrave abrevehoi abrevetilde acircumflexacute acircumflexdotbelow acircumflexgrave acircumflexhoi acircumflextilde gbreve gcircumflex gcommaaccent gdotaccent germandbls alpha alphatonos acyr vecyr gecyr decyr zhecyr zecyr kacyr elcyr tecyr efcyr hardcyr softcyr yucyr Decyr Zhecyr Kacyr Elcyr Efcyr Yacyr adieresiscyr abrevecyr";
name = aalt;
},
{
code = "a.alt01 aacute.alt01 abreve.alt01 acaron.alt01 acircumflex.alt01 adieresis.alt01 adotbelow.alt01 agrave.alt01 ahoi.alt01 amacron.alt01 aogonek.alt01 aring.alt01 aringacute.alt01 atilde.alt01 abreveacute.alt01 abrevedotbelow.alt01 abrevegrave.alt01 abrevehoi.alt01 abrevetilde.alt01 acircumflexacute.alt01 acircumflexdotbelow.alt01 acircumflexgrave.alt01 acircumflexhoi.alt01 acircumflextilde.alt01 gbreve.alt01 gcircumflex.alt01 gcommaaccent.alt01 gdotaccent.alt01 germandbls.alt01 alpha.alt01 alphatonos.alt01 acyr.alt01 vecyr.loclBGR gecyr.loclBGR decyr.loclBGR zhecyr.loclBGR zecyr.loclBGR kacyr.loclBGR elcyr.loclBGR tecyr.loclBGR efcyr.loclBGR hardcyr.loclBGR softcyr.loclBGR yucyr.loclBGR Decyr.loclBGR Zhecyr.loclBGR Kacyr.loclBGR Elcyr.loclBGR Efcyr.loclBGR Yacyr.loclBGR adieresiscyr.alt01 abrevecyr.alt01";
name = aalt2;
},
{
code = "hookabovecomb breveacute brevegrave brevehook brevetilde dieresisacute dieresiscaron dieresisgrave circumflexacute circumflexbreve circumflexgrave circumflexhook dieresismacron circumflextilde";
name = ccmp;
},
{
code = "g i j caroncomb hookabovecomb commaaccentcomb breveacute brevegrave brevehook brevetilde dieresisacute dieresiscaron dieresisgrave circumflexacute circumflexbreve circumflexgrave circumflexhook dieresismacron circumflextilde";
name = ccmp2;
},
{

glyphs = (
{
glyphname = .notdef;
layers = (
{
layerId = "0B7F572C-A94B-4AEA-9B1F-F41A56A498B5";
shapes = (
{
closed = 1;
nodes = (
(32,0,l),
(32,780,l),
(440,780,l),
(440,0,l)
);
},
{
closed = 1;
nodes = (
(145,113,l),
(327,113,l),
(327,667,l),
(145,667,l)
);
}
);
width = 472;
},
{
layerId = "1D0433F9-D608-41FF-8548-FFD7049742EF";
shapes = (
{
closed = 1;
nodes = (
(32,0,l),
(32,780,l),
(440,780,l),
(440,0,l)
);
},
{
closed = 1;
nodes = (
(132,100,l),
(340,100,l),
(340,680,l),
(132,680,l)
);
}
);
width = 472;
},
{
layerId = "AA599D58-A149-49FA-A2EA-5B415EA8A4DA";
shapes = (
{
closed = 1;
nodes = (
(32,0,l),
(32,780,l),
(440,780,l),
(440,0,l)
);
},
{
closed = 1;
nodes = (
(92,60,l),
(380,60,l),
(380,720,l),
(92,720,l)
);
}
);
width = 472;
},
{
layerId = "6F034211-0C67-4D44-818B-30BEF4D1BE0C";
shapes = (
{
closed = 1;
nodes = (
(32,0,l),
(32,780,l),
(440,780,l),
(440,0,l)
);
},
{
closed = 1;
nodes = (
(48,16,l),
(424,16,l),
(424,764,l),
(48,764,l)
);
}
);
width = 472;
}
);
},
{
glyphname = a;
layers = (
{
anchors = (
{
name = b.uni0327;
position = "{247, 0}";
},
{
name = b.uni0328;
position = "{492, 0}";
},
{
name = t.uni0303;
position = "{312, 540}";
}
);
layerId = "0B7F572C-A94B-4AEA-9B1F-F41A56A498B5";
shapes = (
{
closed = 1;
nodes = (
(101,-12,o),
(26,63,o),
(26,129,qs),
(26,213,o),
(160,306,o),
(273,306,qs),
(359,306,l),
(361,318,ls),
(363,328,o),
(364,342,o),
(364,349,qs),
(364,370,o),
(350,399,o),
(317,413,o),
(291,413,qs),
(245,413,o),
(191,372,o),
(174,347,q),
(80,438,l),
(121,487,o),
(229,540,o),
(311,540,qs),
(380,540,o),
(476,501,o),
(526,423,o),
(526,366,qs),
(526,356,o),
(524,327,o),
(521,311,qs),
(485,127,l),
(530,127,l),
(505,0,l),
(427,0,ls),
(389,0,o),
(332,42,o),
(332,82,qs),
(332,89,o),
(332,100,o),
(331,103,q),
(329,125,l),
(361,95,l),
(325,95,l),
(303,37,o),
(226,-12,o),
(173,-12,qs)
);
},
{
closed = 1;
nodes = (
(264,100,o),
(298,112,o),
(325,141,o),
(330,163,qs),
(341,217,l),
(268,217,ls),
(237,217,o),
(205,193,o),
(198,167,qs),
(195,156,o),
(195,141,o),
(195,139,qs),
(195,120,o),
(224,100,o),
(246,100,qs)
);
}
);
width = 573;
},
{
anchors = (
{
name = b.uni0327;
position = "{247, 0}";
},
{
name = b.uni0328;
position = "{492, 0}";
},
{
name = t.uni0303;
position = "{312, 540}";
}
);
layerId = "1D0433F9-D608-41FF-8548-FFD7049742EF";
shapes = (
{
closed = 1;
nodes = (
(100,-12,o),
(25,62,o),
(25,125,qs),
(25,209,o),
(154,303,o),
(269,303,qs),
(360,303,l),
(364,325,ls),
(366,334,o),
(367,348,o),
(367,355,qs),
(367,378,o),
(350,409,o),
(314,425,o),
(286,425,qs),
(240,425,o),
(184,385,o),
(164,357,q),
(82,436,l),
(119,483,o),
(226,537,o),
(304,537,qs),
(370,537,o),
(461,498,o),
(508,423,o),
(508,370,qs),
(508,360,o),
(506,334,o),
(503,319,qs),
(462,112,l),
(514,112,l),
(492,0,l),
(418,0,ls),
(381,0,o),
(330,40,o),
(330,77,qs),
(330,83,o),
(330,95,o),
(330,101,qs),
(330,122,l),
(360,92,l),
(324,92,l),
(301,37,o),
(223,-12,o),
(170,-12,qs)
);
},
{
closed = 1;
nodes = (
(253,89,o),
(295,104,o),
(326,136,o),
(331,160,qs),
(343,222,l),
(263,222,ls),
(224,222,o),
(182,194,o),
(175,165,qs),
(172,152,o),
(171,137,o),
(171,134,qs),
(171,112,o),
(204,89,o),
(230,89,qs)
);
}
);
width = 561;
},
{
anchors = (
{
name = b.uni0327;
position = "{247, 0}";
},
{
name = b.uni0328;
position = "{492, 0}";
},
{
name = t.uni0303;
position = "{312, 540}";
}
);
layerId = "AA599D58-A149-49FA-A2EA-5B415EA8A4DA";
shapes = (
{
closed = 1;
nodes = (
(97,-12,o),
(22,58,o),
(22,113,qs),
(22,198,o),
(137,294,o),
(256,294,qs),
(362,294,l),
(372,345,ls),
(374,353,o),
(375,366,o),
(375,373,qs),
(375,401,o),
(351,439,o),
(305,460,o),
(272,460,qs),
(224,460,o),
(162,423,o),
(134,386,q),
(87,431,l),
(114,472,o),
(216,528,o),
(283,528,qs),
(341,528,o),
(416,488,o),
(453,422,o),
(453,383,qs),
(453,373,o),
(451,354,o),
(449,343,qs),
(394,68,l),
(467,68,l),
(454,0,l),
(391,0,ls),
(357,0,o),
(324,34,o),
(324,62,qs),
(324,66,o),
(325,81,o),
(328,94,qs),
(333,113,l),
(356,84,l),
(321,84,l),
(295,37,o),
(214,-12,o),
(162,-12,qs)
);
},
{
closed = 1;
nodes = (
(220,55,o),
(285,80,o),
(328,122,o),
(333,150,qs),
(350,237,l),
(249,237,ls),
(184,237,o),
(114,196,o),
(106,158,qs),
(102,139,o),
(100,124,o),
(100,119,qs),
(100,88,o),
(145,55,o),
(182,55,qs)
);
}
);
width = 524;
},
{
anchors = (
{
name = b.uni0327;
position = "{228, 0}";
},
{
name = b.uni0328;
position = "{457, 0}";
},
{
name = t.uni0303;
position = "{347, 540}";
}
);
layerId = "6F034211-0C67-4D44-818B-30BEF4D1BE0C";
shapes = (
{
closed = 1;
nodes = (
(132,-12,o),
(47,48,o),
(47,103,qs),
(47,188,o),
(157,272,o),
(266,272,qs),
(426,272,l),
(437,329,ls),
(440,343,o),
(442,370,o),
(442,381,qs),
(442,414,o),
(418,467,o),
(359,499,o),
(307,499,qs),
(239,499,o),
(164,453,o),
(132,402,q),
(115,411,l),
(145,461,o),
(230,518,o),
(309,518,qs),
(364,518,o),
(432,483,o),
(463,422,o),
(463,382,qs),
(463,370,o),
(461,343,o),
(458,328,qs),
(396,19,l),
(481,19,l),
(477,0,l),
(399,0,ls),
(388,0,o),
(376,9,o),
(376,19,qs),
(376,24,o),
(377,31,o),
(378,35,qs),
(388,85,l),
(396,75,l),
(383,75,l),
(358,41,o),
(272,-12,o),
(204,-12,qs)
);
},
{
closed = 1;
nodes = (
(251,7,o),
(333,38,o),
(392,101,o),
(401,148,qs),
(422,254,l),
(266,254,ls),
(176,254,o),
(84,198,o),
(75,151,qs),
(71,132,o),
(68,111,o),
(68,102,qs),
(68,57,o),
(139,7,o),
(206,7,qs)
);
}
);
width = 544;
}
);
leftKerningGroup = a2;
rightKerningGroup = a;
unicode = 97;
},
{
glyphname = a.alt01;
layers = (
{
anchors = (
{
name = b.uni0327;
position = "{254, 0}";
},
{
name = b.uni0328;
position = "{523, 0}";
},
{
name = t.uni0303;
position = "{333, 540}";
}
);
layerId = "0B7F572C-A94B-4AEA-9B1F-F41A56A498B5";
shapes = (
{
closed = 1;
nodes = (
(529,0,l),
(428,0,ls),
(390,0,o),
(333,42,o),
(333,82,qs),
(333,91,o),
(335,110,o),
(336,113,qs),
(338,125,l),
(331,125,l),
(300,61,o),
(222,-12,o),
(159,-12,qs),
(109,-12,o),
(50,35,o),
(24,116,o),
(24,165,qs),
(24,200,o),
(31,260,o),
(36,288,qs),
(53,371,o),
(123,482,o),
(216,540,o),
(266,540,qs),
(323,540,o),
(392,476,o),
(395,435,q),
(401,435,l),
(419,528,l),
(580,528,l),
(499,127,l),
(554,127,l)
);
},
{
closed = 1;
nodes = (
(268,118,o),
(310,147,o),
(324,165,qs),
(338,183,o),
(360,236,o),
(366,262,q),
(380,334,ls),
(385,357,o),
(367,390,o),
(332,410,o),
(308,410,qs),
(268,410,o),
(220,360,o),
(209,306,qs),
(195,238,ls),
(193,229,o),
(189,191,o),
(189,179,qs),
(189,159,o),
(203,132,o),
(229,118,o),
(244,118,qs)
);
}
);
width = 594;
},
{
anchors = (
{
name = b.uni0327;
position = "{254, 0}";
},
{
name = b.uni0328;
position = "{523, 0}";
},
{
name = t.uni0303;
position = "{333, 540}";
}
);
layerId = "1D0433F9-D608-41FF-8548-FFD7049742EF";
shapes = (
{
closed = 1;
nodes = (
(523,0,l),
(430,0,ls),
(393,0,o),
(342,40,o),
(342,77,qs),
(342,85,o),
(344,103,o),
(345,107,qs),
(348,122,l),
(342,122,l),
(311,58,o),
(233,-12,o),
(171,-12,qs),
(122,-12,o),
(60,35,o),
(31,118,o),
(31,170,qs),
(31,202,o),
(37,259,o),
(42,286,qs),
(58,364,o),
(126,476,o),
(221,537,o),
(275,537,qs),
(330,537,o),
(401,477,o),
(406,434,q),
(411,434,l),
(429,525,l),
(569,525,l),
(486,112,l),
(545,112,l)
);
},
{
closed = 1;
nodes = (
(267,103,o),
(311,132,o),
(327,151,qs),
(344,171,o),
(369,226,o),
(375,255,qs),
(391,335,ls),
(396,360,o),
(378,399,o),
(338,422,o),
(309,422,qs),
(263,422,o),
(206,364,o),
(194,305,qs),
(180,235,ls),
(178,225,o),
(174,190,o),
(174,178,qs),
(174,155,o),
(190,121,o),
(220,103,o),
(240,103,qs)
);
}
);
width = 591;
},
{
anchors = (
{
name = b.uni0327;
position = "{254, 0}";
},
{
name = b.uni0328;
position = "{523, 0}";
},
{
name = t.uni0303;
position = "{333, 540}";
}
);
layerId = "AA599D58-A149-49FA-A2EA-5B415EA8A4DA";
shapes = (
{
closed = 1;
nodes = (
(506,0,l),
(437,0,ls),
(403,0,o),
(370,34,o),
(370,62,qs),
(370,68,o),
(372,82,o),
(373,89,q),
(378,112,l),
(375,112,l),
(344,48,o),
(265,-12,o),
(208,-12,qs),
(161,-12,o),
(90,36,o),
(51,124,o),
(51,185,qs),
(51,208,o),
(56,256,o),
(61,280,qs),
(74,343,o),
(136,457,o),
(235,528,o),
(303,528,qs),
(350,528,o),
(427,481,o),
(438,432,q),
(442,432,l),
(459,516,l),
(536,516,l),
(446,68,l),
(519,68,l)
);
},
{
closed = 1;
nodes = (
(263,58,o),
(315,87,o),
(337,109,qs),
(363,135,o),
(395,196,o),
(402,233,qs),
(423,338,ls),
(430,370,o),
(410,425,o),
(357,458,o),
(312,458,qs),
(247,458,o),
(165,376,o),
(150,301,qs),
(135,226,l),
(133,213,o),
(130,187,o),
(130,175,qs),
(130,142,o),
(151,89,o),
(194,58,o),
(227,58,qs)
);
}
);
width = 583;
},
{
anchors = (
{
name = b.uni0327;
position = "{214, 0}";
},
{
name = b.uni0328;
position = "{509, 0}";
},
{
name = t.uni0303;
position = "{332, 540}";
}
);
layerId = "6F034211-0C67-4D44-818B-30BEF4D1BE0C";
shapes = (
{
closed = 1;
nodes = (
(491,0,l),
(413,0,ls),
(402,0,o),
(390,9,o),
(390,19,qs),
(390,24,o),
(391,31,o),
(392,35,qs),
(407,111,l),
(404,111,l),
(373,56,o),
(287,-12,o),
(223,-12,qs),
(171,-12,o),
(98,37,o),
(60,123,o),
(60,176,qs),
(60,203,o),
(65,255,o),
(70,280,qs),
(84,348,o),
(147,456,o),
(245,518,o),
(309,518,qs),
(373,518,o),
(452,460,o),
(465,413,q),
(468,413,l),
(486,506,l),
(507,506,l),
(410,19,l),
(495,19,l)
);
},
{
closed = 1;
nodes = (
(255,7,o),
(307,25,o),
(333,47,qs),
(362,71,o),
(416,152,o),
(426,204,qs),
(454,346,ls),
(461,380,o),
(437,450,o),
(369,499,o),
(309,499,qs),
(223,499,o),
(114,381,o),
(94,282,qs),
(87,247,ls),
(84,231,o),
(81,197,o),
(81,176,qs),
(81,130,o),
(111,53,o),
(174,7,o),
(223,7,qs)
);
}
);
width = 567;
}
);
leftKerningGroup = ae;
rightKerningGroup = h;
},
{
glyphname = b;
layers = (
{
anchors = (
{
name = b.uni0327;
position = "{283, 0}";
}
);
layerId = "0B7F572C-A94B-4AEA-9B1F-F41A56A498B5";
shapes = (
{
closed = 1;
nodes = (
(7,0,l),
(154,740,l),
(315,740,l),
(249,403,l),
(256,403,l),
(296,487,o),
(345,540,o),
(428,540,cs),
(461,540,o),
(488,532,o),
(508,517,c),
(547,485,o),
(562,430,o),
(562,363,cs),
(562,312,o),
(556,266,o),
(548,225,cs),
(537,173,o),
(519,129,o),
(496,94,cs),
(448,23,o),
(386,-12,o),
(321,-12,cs),
(282,-12,o),
(252,-1,o),
(229,20,cs),
(206,41,o),
(193,66,o),
(191,93,c),
(186,93,l),
(168,0,l)
);
},
{
closed = 1;
nodes = (
(334,118,o),
(363,150,o),
(378,222,cs),
(392,290,ls),
(395,303,o),
(398,333,o),
(398,349,cs),
(398,363,o),
(396,374,o),
(391,383,cs),
(382,400,o),
(364,410,o),
(343,410,cs),
(310,410,o),
(282,388,o),
(263,363,cs),
(246,339,o),
(228,299,o),
(221,266,cs),
(206,194,ls),
(203,178,o),
(205,164,o),
(210,153,cs),
(221,129,o),
(247,118,o),
(278,118,cs)
);
}
);
width = 587;
},
{
anchors = (
{
name = b.uni0327;
position = "{283, 0}";
}
);
layerId = "1D0433F9-D608-41FF-8548-FFD7049742EF";
shapes = (
{
closed = 1;
nodes = (
(14,0,l),
(162,740,l),
(302,740,l),
(235,403,l),
(241,403,l),
(282,488,o),
(331,537,o),
(412,537,cs),
(445,537,o),
(471,529,o),
(492,514,c),
(533,482,o),
(552,426,o),
(552,355,cs),
(552,310,o),
(547,268,o),
(539,229,cs),
(528,179,o),
(512,136,o),
(489,100,cs),
(443,28,o),
(380,-12,o),
(308,-12,cs),
(271,-12,o),
(241,-2,o),
(218,18,cs),
(194,38,o),
(180,62,o),
(177,91,c),
(172,91,l),
(154,0,l)
);
},
{
closed = 1;
nodes = (
(337,103,o),
(373,141,o),
(389,220,cs),
(403,290,ls),
(406,305,o),
(409,331,o),
(409,347,cs),
(409,363,o),
(406,377,o),
(401,388,cs),
(390,410,o),
(371,422,o),
(343,422,cs),
(307,422,o),
(277,401,o),
(256,374,cs),
(235,347,o),
(216,309,o),
(208,270,cs),
(192,190,ls),
(189,173,o),
(190,157,o),
(196,144,cs),
(207,117,o),
(235,103,o),
(274,103,cs)
);
}
);
width = 583;
},
{
anchors = (
{
name = b.uni0327;
position = "{283, 0}";
}
);
layerId = "AA599D58-A149-49FA-A2EA-5B415EA8A4DA";
shapes = (
{
closed = 1;
nodes = (
(36,0,l),
(185,740,l),
(262,740,l),
(194,404,l),
(197,404,l),
(240,491,o),
(288,528,o),
(364,528,cs),
(395,528,o),
(423,520,o),
(447,504,cs),
(494,472,o),
(521,412,o),
(521,331,cs),
(521,302,o),
(519,271,o),
(512,240,cs),
(503,197,o),
(489,157,o),
(468,119,cs),
(427,42,o),
(361,-12,o),
(269,-12,cs),
(238,-12,o),
(210,-4,o),
(184,12,cs),
(158,27,o),
(141,51,o),
(134,84,c),
(130,84,l),
(113,0,l)
);
},
{
closed = 1;
nodes = (
(346,58,o),
(402,115,o),
(422,215,cs),
(437,290,ls),
(440,307,o),
(442,324,o),
(442,341,cs),
(442,364,o),
(439,384,o),
(432,401,cs),
(418,436,o),
(390,458,o),
(343,458,cs),
(298,458,o),
(266,438,o),
(235,407,cs),
(202,374,o),
(181,335,o),
(170,283,cs),
(149,178,ls),
(145,157,o),
(146,137,o),
(153,119,c),
(165,82,o),
(201,58,o),
(262,58,cs)
);
}
);
width = 572;
},
{
anchors = (
{
name = b.uni0327;
position = "{257, 0}";
}
);
layerId = "6F034211-0C67-4D44-818B-30BEF4D1BE0C";
shapes = (
{
closed = 1;
nodes = (
(53,0,l),
(201,740,l),
(222,740,l),
(153,395,l),
(156,395,l),
(199,470,o),
(252,518,o),
(337,518,cs),
(372,518,o),
(402,510,o),
(426,494,cs),
(474,461,o),
(500,402,o),
(500,330,cs),
(500,298,o),
(499,268,o),
(492,237,c),
(483,190,o),
(468,148,o),
(447,111,cs),
(405,35,o),
(339,-12,o),
(251,-12,cs),
(208,-12,o),
(174,-2,o),
(148,18,cs),
(122,37,o),
(104,62,o),
(95,93,c),
(92,93,l),
(74,0,l)
);
},
{
closed = 1;
nodes = (
(366,7,o),
(441,92,o),
(466,224,cs),
(473,259,ls),
(477,282,o),
(479,302,o),
(479,330,cs),
(479,361,o),
(474,390,o),
(464,415,cs),
(444,466,o),
(402,499,o),
(337,499,cs),
(296,499,o),
(262,488,o),
(227,459,cs),
(188,427,o),
(149,373,o),
(134,302,cs),
(106,160,ls),
(102,137,o),
(104,114,o),
(112,91,cs),
(127,44,o),
(172,7,o),
(251,7,cs)
);
}
);
width = 560;
}
);
leftKerningGroup = b2;
rightKerningGroup = b;
unicode = 98;
},
{
glyphname = c;
layers = (
{
anchors = (
{
name = b.uni0327;
position = "{234, 0}";
},
{
name = t.uni0303;
position = "{313, 540}";
}
);
layerId = "0B7F572C-A94B-4AEA-9B1F-F41A56A498B5";
shapes = (
{
closed = 1;
nodes = (
(200,-12,o),
(165,-5,o),
(133,10,cs),
(69,39,o),
(25,104,o),
(25,220,cs),
(25,248,o),
(28,275,o),
(33,299,cs),
(44,348,o),
(62,390,o),
(89,427,cs),
(141,499,o),
(222,540,o),
(313,540,cs),
(364,540,o),
(408,527,o),
(444,502,cs),
(480,477,o),
(501,442,o),
(506,399,c),
(370,349,l),
(361,385,o),
(351,412,o),
(303,412,cs),
(277,412,o),
(256,405,o),
(241,390,cs),
(226,375,o),
(215,350,o),
(208,315,cs),
(190,224,ls),
(187,211,o),
(185,199,o),
(185,183,cs),
(185,170,o),
(187,158,o),
(192,148,cs),
(201,128,o),
(220,116,o),
(251,116,cs),
(279,116,o),
(299,124,o),
(310,140,cs),
(321,155,o),
(332,173,o),
(345,193,c),
(468,136,l),
(421,36,o),
(341,-12,o),
(237,-12,cs)
);
}
);
width = 496;
},
{
anchors = (
{
name = b.uni0327;
position = "{234, 0}";
},
{
name = t.uni0303;
position = "{313, 540}";
}
);
layerId = "1D0433F9-D608-41FF-8548-FFD7049742EF";
shapes = (
{
closed = 1;
nodes = (
(199,-12,o),
(165,-4,o),
(134,11,cs),
(72,42,o),
(31,107,o),
(31,215,cs),
(31,243,o),
(34,271,o),
(39,296,cs),
(49,344,o),
(67,386,o),
(92,423,cs),
(143,495,o),
(221,537,o),
(310,537,cs),
(360,537,o),
(402,525,o),
(437,500,cs),
(471,475,o),
(491,442,o),
(498,401,c),
(380,356,l),
(368,397,o),
(353,424,o),
(302,424,cs),
(273,424,o),
(249,415,o),
(231,397,cs),
(213,379,o),
(200,351,o),
(193,314,cs),
(175,225,ls),
(172,212,o),
(170,198,o),
(170,183,cs),
(170,167,o),
(173,153,o),
(179,141,cs),
(190,116,o),
(213,101,o),
(249,101,cs),
(276,101,o),
(297,109,o),
(311,124,cs),
(324,139,o),
(338,159,o),
(353,184,c),
(460,134,l),
(415,37,o),
(337,-12,o),
(237,-12,cs)
);
}
);
width = 494;
},
{
anchors = (
{
name = b.uni0327;
position = "{234, 0}";
},
{
name = t.uni0303;
position = "{313, 540}";
}
);
layerId = "AA599D58-A149-49FA-A2EA-5B415EA8A4DA";
shapes = (
{
closed = 1;
nodes = (
(197,-12,o),
(164,-3,o),
(136,15,cs),
(80,50,o),
(49,115,o),
(49,199,cs),
(49,230,o),
(52,258,o),
(57,286,cs),
(66,332,o),
(81,373,o),
(103,410,cs),
(147,483,o),
(215,528,o),
(302,528,cs),
(347,528,o),
(385,517,o),
(414,494,cs),
(443,471,o),
(463,442,o),
(473,407,c),
(409,378,l),
(392,433,o),
(357,459,o),
(300,459,cs),
(259,459,o),
(226,446,o),
(200,420,cs),
(174,393,o),
(156,357,o),
(147,312,cs),
(130,228,ls),
(127,213,o),
(126,195,o),
(126,183,cs),
(126,158,o),
(130,137,o),
(139,118,cs),
(156,80,o),
(192,57,o),
(244,57,cs),
(269,57,o),
(293,64,o),
(314,79,cs),
(335,93,o),
(355,119,o),
(376,158,c),
(437,128,l),
(394,39,o),
(325,-12,o),
(236,-12,cs)
);
}
);
width = 488;
},
{
anchors = (
{
name = b.uni0327;
position = "{229, 0}";
},
{
name = t.uni0303;
position = "{313, 540}";
}
);
layerId = "6F034211-0C67-4D44-818B-30BEF4D1BE0C";
shapes = (
{
closed = 1;
nodes = (
(187,-12,o),
(157,-3,o),
(133,14,cs),
(85,49,o),
(61,110,o),
(61,186,cs),
(61,223,o),
(64,259,o),
(71,292,cs),
(80,337,o),
(95,376,o),
(116,410,cs),
(156,477,o),
(218,518,o),
(301,518,cs),
(340,518,o),
(374,507,o),
(401,486,cs),
(428,465,o),
(444,437,o),
(451,403,c),
(432,398,l),
(417,463,o),
(366,499,o),
(299,499,cs),
(248,499,o),
(205,481,o),
(168,445,cs),
(131,408,o),
(107,359,o),
(96,297,cs),
(87,248,ls),
(83,224,o),
(81,211,o),
(81,186,cs),
(81,153,o),
(86,123,o),
(96,96,cs),
(115,41,o),
(156,7,o),
(223,7,cs),
(262,7,o),
(297,18,o),
(327,39,cs),
(356,60,o),
(382,88,o),
(405,123,c),
(422,114,l),
(373,38,o),
(310,-12,o),
(223,-12,cs)
);
}
);
width = 479;
}
);
leftKerningGroup = c2;
rightKerningGroup = c;
unicode = 99;
},
{
glyphname = d;
layers = (
{
anchors = (
{
name = b.uni0327;
position = "{233, 0}";
},
{
name = t.uni0315;
position = "{668, 740}";
}
);
layerId = "0B7F572C-A94B-4AEA-9B1F-F41A56A498B5";
shapes = (
{
closed = 1;
nodes = (
(529,0,l),
(428,0,ls),
(377,0,o),
(333,29,o),
(333,82,cs),
(333,94,o),
(335,109,o),
(336,113,cs),
(338,125,l),
(331,125,l),
(290,40,o),
(243,-12,o),
(159,-12,cs),
(126,-12,o),
(99,-4,o),
(80,12,c),
(40,43,o),
(24,100,o),
(24,165,cs),
(24,216,o),
(30,262,o),
(38,301,c),
(51,354,o),
(69,398,o),
(92,433,cs),
(139,504,o),
(202,540,o),
(266,540,cs),
(304,540,o),
(335,529,o),
(358,508,cs),
(381,487,o),
(393,462,o),
(395,435,c),
(401,435,l),
(461,740,l),
(622,740,l),
(499,127,l),
(554,127,l)
);
},
{
closed = 1;
nodes = (
(276,118,o),
(305,141,o),
(324,165,cs),
(343,189,o),
(358,229,o),
(366,262,c),
(380,334,l),
(384,351,o),
(383,365,o),
(378,376,cs),
(366,399,o),
(340,410,o),
(309,410,cs),
(254,410,o),
(224,378,o),
(209,306,cs),
(195,238,l),
(192,226,o),
(189,195,o),
(189,179,cs),
(189,166,o),
(191,155,o),
(196,146,cs),
(205,128,o),
(223,118,o),
(244,118,cs)
);
}
);
width = 594;
},
{
anchors = (
{
name = b.uni0327;
position = "{233, 0}";
},
{
name = t.uni0315;
position = "{668, 740}";
}
);
layerId = "1D0433F9-D608-41FF-8548-FFD7049742EF";
shapes = (
{
closed = 1;
nodes = (
(523,0,l),
(430,0,ls),
(381,0,o),
(342,28,o),
(342,77,cs),
(342,88,o),
(344,102,o),
(345,107,cs),
(348,122,l),
(342,122,l),
(301,37,o),
(254,-12,o),
(171,-12,cs),
(138,-12,o),
(112,-4,o),
(91,12,cs),
(50,43,o),
(31,101,o),
(31,170,cs),
(31,215,o),
(36,259,o),
(44,296,cs),
(55,346,o),
(72,389,o),
(95,425,cs),
(140,497,o),
(204,537,o),
(275,537,cs),
(312,537,o),
(342,527,o),
(366,507,cs),
(389,487,o),
(403,463,o),
(406,434,c),
(411,434,l),
(472,740,l),
(612,740,l),
(486,112,l),
(545,112,l)
);
},
{
closed = 1;
nodes = (
(276,103,o),
(306,126,o),
(327,151,cs),
(350,178,o),
(367,216,o),
(375,255,cs),
(391,335,ls),
(395,353,o),
(394,369,o),
(388,382,cs),
(376,408,o),
(348,422,o),
(309,422,cs),
(248,422,o),
(210,384,o),
(194,305,cs),
(180,235,ls),
(177,222,o),
(174,194,o),
(174,178,cs),
(174,163,o),
(177,149,o),
(182,138,cs),
(193,115,o),
(213,103,o),
(240,103,cs)
);
}
);
width = 591;
},
{
anchors = (
{
name = b.uni0327;
position = "{233, 0}";
},
{
name = t.uni0315;
position = "{668, 740}";
}
);
layerId = "AA599D58-A149-49FA-A2EA-5B415EA8A4DA";
shapes = (
{
closed = 1;
nodes = (
(506,0,l),
(437,0,ls),
(392,0,o),
(370,25,o),
(370,62,cs),
(370,70,o),
(372,80,o),
(373,89,c),
(378,112,l),
(375,112,l),
(334,27,o),
(284,-12,o),
(208,-12,cs),
(177,-12,o),
(149,-4,o),
(126,12,cs),
(78,44,o),
(51,104,o),
(51,185,cs),
(51,216,o),
(54,248,o),
(61,280,cs),
(70,322,o),
(84,362,o),
(105,400,cs),
(146,476,o),
(212,528,o),
(303,528,cs),
(334,528,o),
(363,520,o),
(389,505,c),
(414,489,o),
(431,465,o),
(438,432,c),
(442,432,l),
(504,740,l),
(581,740,l),
(446,68,l),
(519,68,l)
);
},
{
closed = 1;
nodes = (
(274,58,o),
(308,80,o),
(337,109,cs),
(370,142,o),
(393,181,o),
(402,233,c),
(423,338,l),
(428,359,o),
(427,379,o),
(420,398,cs),
(407,434,o),
(371,458,o),
(310,458,cs),
(226,458,o),
(170,401,o),
(150,301,cs),
(135,226,ls),
(132,209,o),
(130,192,o),
(130,175,cs),
(130,153,o),
(134,133,o),
(141,116,cs),
(155,80,o),
(184,58,o),
(229,58,cs)
);
}
);
width = 583;
},
{
anchors = (
{
name = b.uni0327;
position = "{216, 0}";
},
{
name = t.uni0315;
position = "{645, 740}";
}
);
layerId = "6F034211-0C67-4D44-818B-30BEF4D1BE0C";
shapes = (
{
closed = 1;
nodes = (
(491,0,l),
(413,0,ls),
(398,0,o),
(390,6,o),
(390,19,cs),
(390,26,o),
(391,30,o),
(392,35,cs),
(407,111,l),
(404,111,l),
(363,38,o),
(308,-12,o),
(223,-12,cs),
(188,-12,o),
(159,-4,o),
(135,13,c),
(86,45,o),
(60,105,o),
(60,176,cs),
(60,211,o),
(64,243,o),
(69,275,c),
(78,321,o),
(94,362,o),
(115,399,cs),
(157,472,o),
(222,518,o),
(309,518,cs),
(352,518,o),
(386,508,o),
(413,489,cs),
(439,470,o),
(456,444,o),
(465,413,c),
(468,413,l),
(533,740,l),
(554,740,l),
(410,19,l),
(495,19,l)
);
},
{
closed = 1;
nodes = (
(266,7,o),
(298,18,o),
(333,47,cs),
(372,79,o),
(413,135,o),
(426,204,cs),
(454,346,ls),
(459,369,o),
(457,392,o),
(449,415,cs),
(433,462,o),
(389,499,o),
(309,499,cs),
(194,499,o),
(121,414,o),
(94,282,cs),
(87,247,ls),
(83,226,o),
(81,204,o),
(81,176,cs),
(81,145,o),
(86,117,o),
(96,92,cs),
(116,40,o),
(158,7,o),
(223,7,cs)
);
}
);
width = 567;
}
);
leftKerningGroup = a2;
rightKerningGroup = d;
unicode = 100;
},
{
glyphname = e;
layers = (
{
anchors = (
{
name = b.uni0327;
position = "{234, 0}";
},
{
name = b.uni0328;
position = "{337, 0}";
},
{
name = t.uni0303;
position = "{323, 540}";
}
);
layerId = "0B7F572C-A94B-4AEA-9B1F-F41A56A498B5";
shapes = (
{
closed = 1;
nodes = (
(177,-12,o),
(118,9,o),
(81,51,cs),
(44,93,o),
(25,148,o),
(25,217,cs),
(25,242,o),
(27,264,o),
(32,288,cs),
(41,334,o),
(59,376,o),
(84,414,cs),
(135,490,o),
(214,540,o),
(315,540,cs),
(354,540,o),
(401,533,o),
(441,511,cs),
(481,489,o),
(510,452,o),
(510,391,cs),
(510,350,o),
(496,313,o),
(464,282,cs),
(448,267,o),
(427,254,o),
(402,243,c),
(350,222,o),
(281,207,o),
(186,204,c),
(185,192,o),
(185,191,o),
(185,187,cs),
(185,146,o),
(201,116,o),
(268,116,cs),
(288,116,o),
(307,120,o),
(324,128,cs),
(341,135,o),
(361,155,o),
(386,186,c),
(484,110,l),
(417,22,o),
(352,-12,o),
(256,-12,cs)
);
},
{
closed = 1;
nodes = (
(290,419,o),
(275,415,o),
(261,408,cs),
(232,392,o),
(213,363,o),
(206,323,c),
(203,302,l),
(266,306,o),
(305,316,o),
(327,329,cs),
(349,341,o),
(355,356,o),
(355,372,cs),
(355,393,o),
(349,407,o),
(338,412,cs),
(326,417,o),
(316,419,o),
(307,419,cs)
);
}
);
width = 516;
},
{
anchors = (
{
name = b.uni0327;
position = "{234, 0}";
},
{
name = b.uni0328;
position = "{337, 0}";
},
{
name = t.uni0303;
position = "{323, 540}";
}
);
layerId = "1D0433F9-D608-41FF-8548-FFD7049742EF";
shapes = (
{
closed = 1;
nodes = (
(178,-12,o),
(123,8,o),
(86,49,cs),
(49,90,o),
(31,145,o),
(31,214,cs),
(31,239,o),
(33,263,o),
(38,287,cs),
(47,333,o),
(65,375,o),
(90,413,cs),
(140,488,o),
(217,537,o),
(316,537,cs),
(356,537,o),
(402,529,o),
(440,507,cs),
(478,485,o),
(504,448,o),
(504,391,cs),
(504,348,o),
(488,311,o),
(455,282,cs),
(438,267,o),
(417,255,o),
(391,245,cs),
(338,224,o),
(267,211,o),
(172,208,c),
(171,196,o),
(170,190,o),
(170,185,cs),
(170,136,o),
(194,101,o),
(263,101,cs),
(286,101,o),
(308,106,o),
(327,116,cs),
(346,125,o),
(368,145,o),
(391,174,c),
(477,106,l),
(412,21,o),
(344,-12,o),
(253,-12,cs)
);
},
{
closed = 1;
nodes = (
(289,430,o),
(271,426,o),
(255,417,cs),
(222,399,o),
(199,365,o),
(191,320,cs),
(187,297,l),
(262,301,o),
(308,311,o),
(334,325,cs),
(360,339,o),
(368,356,o),
(368,377,cs),
(368,400,o),
(361,414,o),
(348,421,c),
(334,427,o),
(321,430,o),
(308,430,cs)
);
}
);
width = 515;
},
{
anchors = (
{
name = b.uni0327;
position = "{234, 0}";
},
{
name = b.uni0328;
position = "{337, 0}";
},
{
name = t.uni0303;
position = "{323, 540}";
}
);
layerId = "AA599D58-A149-49FA-A2EA-5B415EA8A4DA";
shapes = (
{
closed = 1;
nodes = (
(183,-12,o),
(135,7,o),
(101,44,cs),
(66,81,o),
(49,134,o),
(49,204,cs),
(49,231,o),
(52,259,o),
(57,284,cs),
(66,329,o),
(83,371,o),
(107,408,cs),
(155,482,o),
(228,528,o),
(319,528,cs),
(363,528,o),
(404,517,o),
(435,494,cs),
(466,471,o),
(485,437,o),
(485,390,cs),
(485,345,o),
(466,309,o),
(429,282,cs),
(410,269,o),
(387,258,o),
(358,249,cs),
(301,231,o),
(225,222,o),
(129,221,c),
(128,208,o),
(126,190,o),
(126,179,cs),
(126,106,o),
(169,57,o),
(249,57,cs),
(282,57,o),
(311,65,o),
(338,80,cs),
(364,95,o),
(387,114,o),
(407,139,c),
(457,94,l),
(393,17,o),
(319,-12,o),
(244,-12,cs)
);
},
{
closed = 1;
nodes = (
(284,462,o),
(260,456,o),
(237,443,cs),
(191,418,o),
(158,371,o),
(145,310,cs),
(139,281,l),
(250,285,o),
(318,295,o),
(356,313,cs),
(394,331,o),
(406,355,o),
(406,391,cs),
(406,418,o),
(396,437,o),
(377,447,cs),
(358,457,o),
(336,462,o),
(311,462,cs)
);
}
);
width = 511;
},
{
anchors = (
{
name = b.uni0327;
position = "{234, 0}";
},
{
name = b.uni0328;
position = "{322, 0}";
},
{
name = t.uni0303;
position = "{319, 540}";
}
);
layerId = "6F034211-0C67-4D44-818B-30BEF4D1BE0C";
shapes = (
{
closed = 1;
nodes = (
(180,-12,o),
(137,4,o),
(107,37,c),
(76,69,o),
(61,119,o),
(61,187,cs),
(61,218,o),
(64,247,o),
(69,275,cs),
(78,322,o),
(94,364,o),
(116,401,cs),
(160,473,o),
(227,518,o),
(308,518,cs),
(356,518,o),
(395,506,o),
(423,485,cs),
(451,464,o),
(466,434,o),
(466,395,cs),
(466,370,o),
(458,340,o),
(430,313,cs),
(415,299,o),
(394,286,o),
(366,275,c),
(310,251,o),
(221,236,o),
(85,233,c),
(84,224,o),
(82,200,o),
(82,189,cs),
(82,61,o),
(134,7,o),
(237,7,cs),
(278,7,o),
(315,18,o),
(347,41,cs),
(379,63,o),
(405,93,o),
(426,132,c),
(445,124,l),
(394,31,o),
(321,-12,o),
(237,-12,cs)
);
},
{
closed = 1;
nodes = (
(269,499,o),
(235,489,o),
(206,469,cs),
(146,429,o),
(106,358,o),
(90,269,cs),
(87,252,l),
(238,255,o),
(327,273,o),
(378,301,cs),
(429,328,o),
(444,362,o),
(444,395,cs),
(444,426,o),
(433,451,o),
(412,470,cs),
(390,489,o),
(355,499,o),
(306,499,cs)
);
}
);
width = 505;
}
);
leftKerningGroup = c2;
rightKerningGroup = e;
unicode = 101;
},
{
glyphname = f;
layers = (
{
layerId = "0B7F572C-A94B-4AEA-9B1F-F41A56A498B5";
shapes = (
{
closed = 1;
nodes = (
(289,401,l),
(210,0,l),
(46,0,l),
(128,401,l),
(64,401,l),
(89,528,l),
(153,528,l),
(163,578,ls),
(184,686,o),
(257,740,o),
(377,740,cs),
(452,740,l),
(424,613,l),
(331,613,l),
(315,528,l),
(417,528,l),
(392,401,l)
);
}
);
width = 368;
},
{
layerId = "1D0433F9-D608-41FF-8548-FFD7049742EF";
shapes = (
{
closed = 1;
nodes = (
(273,413,l),
(192,0,l),
(48,0,l),
(133,413,l),
(64,413,l),
(86,525,l),
(155,525,l),
(168,590,ls),
(188,689,o),
(251,740,o),
(360,740,cs),
(436,740,l),
(412,628,l),
(316,628,l),
(296,525,l),
(398,525,l),
(376,413,l)
);
}
);
width = 353;
},
{
layerId = "AA599D58-A149-49FA-A2EA-5B415EA8A4DA";
shapes = (
{
closed = 1;
nodes = (
(226,448,l),
(137,0,l),
(55,0,l),
(149,448,l),
(64,448,l),
(77,516,l),
(162,516,l),
(184,626,ls),
(199,697,o),
(230,740,o),
(310,740,cs),
(389,740,l),
(376,672,l),
(271,672,l),
(239,516,l),
(340,516,l),
(327,448,l)
);
}
);
width = 307;
},
{
layerId = "6F034211-0C67-4D44-818B-30BEF4D1BE0C";
shapes = (
{
closed = 1;
nodes = (
(190,487,l),
(94,0,l),
(73,0,l),
(169,487,l),
(69,487,l),
(73,506,l),
(173,506,l),
(212,707,ls),
(217,734,o),
(223,740,o),
(251,740,cs),
(345,740,l),
(341,721,l),
(236,721,l),
(194,506,l),
(298,506,l),
(294,487,l)
);
}
);
width = 282;
}
);
leftKerningGroup = f;
unicode = 102;
},
{
glyphname = g;
layers = (
{
anchors = (
{
name = t.uni0303;
position = "{298, 540}";
}
);
layerId = "0B7F572C-A94B-4AEA-9B1F-F41A56A498B5";
shapes = (
{
closed = 1;
nodes = (
(509,-51,o),
(480,-119,o),
(411,-178,o),
(290,-212,o),
(195,-212,qs),
(99,-212,o),
(1,-179,o),
(-35,-126,o),
(-35,-95,qs),
(-35,-43,o),
(36,2,o),
(84,12,q),
(84,19,l),
(54,23,o),
(19,69,o),
(19,99,qs),
(19,145,o),
(96,199,o),
(138,208,q),
(139,215,l),
(102,234,o),
(61,300,o),
(61,346,qs),
(61,392,o),
(110,481,o),
(221,540,o),
(315,540,qs),
(338,540,o),
(382,533,o),
(401,528,q),
(596,528,l),
(574,418,l),
(512,418,l),
(512,416,l),
(515,413,o),
(519,393,o),
(519,382,qs),
(519,337,o),
(470,247,o),
(359,188,o),
(266,188,qs),
(241,188,o),
(192,194,o),
(171,200,q),
(161,193,o),
(148,167,o),
(148,154,qs),
(148,140,o),
(171,123,o),
(196,123,qs),
(330,123,ls),
(417,123,o),
(509,52,o),
(509,-17,qs)
);
},
{
closed = 1;
nodes = (
(315,295,o),
(358,329,o),
(364,359,qs),
(366,370,o),
(366,382,o),
(366,384,qs),
(366,408,o),
(335,433,o),
(300,433,qs),
(264,433,o),
(221,401,o),
(215,369,q),
(212,358,o),
(212,346,o),
(212,344,qs),
(212,320,o),
(245,295,o),
(278,295,qs)
);
},
{
closed = 1;
nodes = (
(349,-33,o),
(321,-14,o),
(282,-14,qs),
(110,-14,l),
(100,-24,o),
(94,-52,o),
(94,-60,qs),
(94,-75,o),
(111,-94,o),
(148,-105,o),
(178,-105,qs),
(249,-105,ls),
(288,-105,o),
(332,-90,o),
(349,-65,o),
(349,-51,qs)
);
}
);
width = 550;
},
{
anchors = (
{
name = t.uni0303;
position = "{298, 540}";
}
);
layerId = "1D0433F9-D608-41FF-8548-FFD7049742EF";
shapes = (
{
closed = 1;
nodes = (
(497,-56,o),
(469,-123,o),
(402,-179,o),
(284,-212,o),
(193,-212,qs),
(105,-212,o),
(9,-181,o),
(-30,-128,o),
(-30,-96,qs),
(-30,-47,o),
(36,2,o),
(85,13,q),
(85,20,l),
(57,26,o),
(26,68,o),
(26,96,qs),
(26,140,o),
(97,193,o),
(141,202,q),
(142,209,l),
(105,228,o),
(66,294,o),
(66,340,qs),
(66,389,o),
(117,479,o),
(225,537,o),
(311,537,qs),
(334,537,o),
(376,530,o),
(394,525,q),
(579,525,l),
(560,427,l),
(495,427,l),
(495,425,l),
(500,419,o),
(505,394,o),
(505,381,qs),
(505,333,o),
(454,242,o),
(346,184,o),
(260,184,qs),
(238,184,o),
(197,189,o),
(179,194,q),
(163,187,o),
(141,161,o),
(141,145,qs),
(141,129,o),
(166,112,o),
(194,112,qs),
(323,112,ls),
(410,112,o),
(497,44,o),
(497,-22,qs)
);
},
{
closed = 1;
nodes = (
(313,280,o),
(360,318,o),
(367,352,qs),
(370,367,o),
(371,381,o),
(371,385,qs),
(371,412,o),
(336,441,o),
(298,441,qs),
(257,441,o),
(210,404,o),
(203,369,qs),
(200,354,o),
(199,340,o),
(199,336,qs),
(199,309,o),
(235,280,o),
(272,280,qs)
);
},
{
closed = 1;
nodes = (
(357,-31,o),
(327,-9,o),
(286,-9,qs),
(113,-9,l),
(98,-20,o),
(86,-51,o),
(86,-64,qs),
(86,-80,o),
(104,-103,o),
(143,-116,o),
(176,-116,qs),
(241,-116,ls),
(285,-116,o),
(336,-99,o),
(357,-69,o),
(357,-52,qs)
);
}
);
width = 540;
},
{
anchors = (
{
name = t.uni0303;
position = "{298, 540}";
}
);
layerId = "AA599D58-A149-49FA-A2EA-5B415EA8A4DA";
shapes = (
{
closed = 1;
nodes = (
(462,-70,o),
(436,-134,o),
(374,-183,o),
(267,-212,o),
(186,-212,qs),
(123,-212,o),
(33,-186,o),
(-15,-135,o),
(-15,-98,qs),
(-15,-58,o),
(36,1,o),
(87,16,q),
(89,24,l),
(67,34,o),
(47,65,o),
(47,87,qs),
(47,124,o),
(99,175,o),
(151,185,q),
(152,192,l),
(115,210,o),
(82,276,o),
(82,322,qs),
(82,381,o),
(138,474,o),
(236,528,o),
(300,528,qs),
(321,528,o),
(358,521,o),
(374,516,q),
(528,516,l),
(517,453,l),
(445,453,l),
(445,451,l),
(454,438,o),
(464,398,o),
(464,378,qs),
(464,320,o),
(407,227,o),
(307,173,o),
(242,173,qs),
(230,173,o),
(213,175,o),
(202,176,q),
(169,170,o),
(120,143,o),
(120,117,qs),
(120,96,o),
(152,79,o),
(188,79,qs),
(303,79,ls),
(389,79,o),
(462,19,o),
(462,-36,qs)
);
},
{
closed = 1;
nodes = (
(307,234,o),
(367,286,o),
(376,331,qs),
(381,358,o),
(385,378,o),
(385,388,qs),
(385,423,o),
(339,466,o),
(291,466,qs),
(237,466,o),
(177,413,o),
(168,368,qs),
(163,341,o),
(159,321,o),
(159,311,qs),
(159,277,o),
(205,234,o),
(253,234,qs)
);
},
{
closed = 1;
nodes = (
(382,-25,o),
(345,6,o),
(298,6,qs),
(121,6,l),
(93,-7,o),
(62,-47,o),
(62,-76,qs),
(62,-96,o),
(82,-130,o),
(129,-149,o),
(170,-149,qs),
(218,-149,ls),
(275,-149,o),
(347,-125,o),
(382,-82,o),
(382,-54,qs)
);
}
);
width = 510;
},
{
anchors = (
{
name = t.uni0303;
position = "{281, 540}";
}
);
layerId = "6F034211-0C67-4D44-818B-30BEF4D1BE0C";
shapes = (
{
closed = 1;
nodes = (
(440,-95,o),
(406,-154,o),
(340,-193,o),
(244,-212,o),
(183,-212,qs),
(122,-212,o),
(39,-182,o),
(-4,-128,o),
(-4,-92,qs),
(-4,-45,o),
(55,21,o),
(104,37,q),
(104,40,l),
(86,45,o),
(65,79,o),
(65,99,qs),
(65,137,o),
(124,181,o),
(163,192,q),
(164,196,l),
(128,213,o),
(90,275,o),
(90,312,qs),
(90,376,o),
(140,468,o),
(226,518,o),
(281,518,qs),
(300,518,o),
(333,512,o),
(347,506,q),
(513,506,l),
(510,487,l),
(380,487,l),
(380,485,l),
(403,470,o),
(429,416,o),
(429,386,qs),
(429,323,o),
(379,230,o),
(293,180,o),
(238,180,qs),
(225,180,o),
(203,183,o),
(192,186,q),
(134,171,o),
(85,128,o),
(85,99,qs),
(85,80,o),
(111,53,o),
(149,53,qs),
(288,53,ls),
(368,53,o),
(440,-5,o),
(440,-55,qs)
);
},
{
closed = 1;
nodes = (
(306,199,o),
(391,272,o),
(401,330,qs),
(406,356,o),
(408,380,o),
(408,386,qs),
(408,435,o),
(343,499,o),
(281,499,qs),
(214,499,o),
(129,426,o),
(118,368,q),
(114,343,o),
(111,318,o),
(111,312,qs),
(111,263,o),
(177,199,o),
(238,199,qs)
);
},
{
closed = 1;
nodes = (
(418,-13,o),
(358,33,o),
(284,33,qs),
(136,33,l),
(84,19,o),
(18,-40,o),
(18,-90,qs),
(18,-126,o),
(59,-172,o),
(129,-193,o),
(174,-193,qs),
(206,-193,ls),
(268,-193,o),
(363,-164,o),
(418,-103,o),
(418,-56,qs)
);
}
);
width = 485;
}
);
leftKerningGroup = g2;
rightKerningGroup = g;
unicode = 103;
},
{
glyphname = g.alt01;
layers = (
{
anchors = (
{
name = t.uni0303;
position = "{327, 540}";
}
);
layerId = "0B7F572C-A94B-4AEA-9B1F-F41A56A498B5";
shapes = (
{
closed = 1;
nodes = (
(128,7,o),
(102,15,o),
(83,30,cs),
(43,61,o),
(27,119,o),
(27,184,cs),
(27,231,o),
(31,271,o),
(38,308,cs),
(49,361,o),
(67,405,o),
(90,439,cs),
(136,507,o),
(199,540,o),
(264,540,cs),
(303,540,o),
(334,529,o),
(357,508,cs),
(380,487,o),
(392,462,o),
(394,435,c),
(399,435,l),
(418,528,l),
(579,528,l),
(479,28,l),
(470,-23,o),
(455,-66,o),
(434,-102,cs),
(393,-174,o),
(325,-212,o),
(210,-212,cs),
(123,-212,o),
(48,-192,o),
(-8,-116,c),
(92,-24,l),
(117,-60,o),
(157,-85,o),
(205,-85,cs),
(269,-85,o),
(304,-41,o),
(319,34,cs),
(341,144,l),
(334,144,l),
(293,59,o),
(246,7,o),
(161,7,cs)
);
},
{
closed = 1;
nodes = (
(279,137,o),
(307,160,o),
(326,184,cs),
(345,208,o),
(361,246,o),
(369,281,c),
(378,328,ls),
(380,341,o),
(379,354,o),
(376,367,c),
(368,392,o),
(346,410,o),
(307,410,cs),
(254,410,o),
(222,378,o),
(207,306,cs),
(198,257,l),
(195,245,o),
(191,214,o),
(191,198,cs),
(191,185,o),
(194,173,o),
(199,164,cs),
(209,145,o),
(226,137,o),
(247,137,cs)
);
}
);
width = 585;
},
{
anchors = (
{
name = t.uni0303;
position = "{327, 540}";
}
);
layerId = "1D0433F9-D608-41FF-8548-FFD7049742EF";
shapes = (
{
closed = 1;
nodes = (
(140,2,o),
(114,10,o),
(93,26,cs),
(52,57,o),
(33,115,o),
(33,184,cs),
(33,227,o),
(37,265,o),
(44,301,cs),
(55,352,o),
(71,395,o),
(94,430,cs),
(138,500,o),
(202,537,o),
(274,537,cs),
(311,537,o),
(341,527,o),
(365,507,cs),
(388,487,o),
(402,463,o),
(405,434,c),
(410,434,l),
(428,525,l),
(568,525,l),
(467,19,ls),
(458,-30,o),
(443,-71,o),
(423,-106,cs),
(382,-175,o),
(315,-212,o),
(207,-212,cs),
(119,-212,o),
(47,-187,o),
(-4,-118,c),
(85,-37,l),
(110,-74,o),
(152,-100,o),
(203,-100,cs),
(272,-100,o),
(312,-55,o),
(328,26,cs),
(350,136,l),
(344,136,l),
(303,51,o),
(256,2,o),
(173,2,cs)
);
},
{
closed = 1;
nodes = (
(278,117,o),
(308,140,o),
(329,165,cs),
(352,192,o),
(369,230,o),
(377,269,cs),
(390,335,ls),
(393,349,o),
(392,363,o),
(387,376,cs),
(377,403,o),
(351,422,o),
(308,422,cs),
(247,422,o),
(209,384,o),
(193,305,cs),
(182,249,ls),
(179,236,o),
(176,208,o),
(176,192,cs),
(176,177,o),
(179,163,o),
(184,152,cs),
(195,129,o),
(215,117,o),
(242,117,cs)
);
}
);
width = 582;
},
{
anchors = (
{
name = t.uni0303;
position = "{327, 540}";
}
);
layerId = "AA599D58-A149-49FA-A2EA-5B415EA8A4DA";
shapes = (
{
closed = 1;
nodes = (
(177,-12,o),
(149,-4,o),
(126,12,cs),
(78,44,o),
(51,104,o),
(51,185,cs),
(51,216,o),
(54,248,o),
(61,280,cs),
(70,322,o),
(84,362,o),
(105,400,cs),
(146,476,o),
(212,528,o),
(303,528,cs),
(334,528,o),
(363,520,o),
(389,505,c),
(414,489,o),
(431,465,o),
(438,432,c),
(442,432,l),
(459,516,l),
(536,516,l),
(431,-8,ls),
(422,-51,o),
(408,-88,o),
(388,-119,cs),
(348,-179,o),
(285,-212,o),
(198,-212,cs),
(105,-212,o),
(44,-175,o),
(8,-123,c),
(63,-75,l),
(91,-119,o),
(137,-144,o),
(198,-144,cs),
(282,-144,o),
(336,-98,o),
(356,2,cs),
(378,112,l),
(375,112,l),
(334,27,o),
(284,-12,o),
(208,-12,cs)
);
},
{
closed = 1;
nodes = (
(275,58,o),
(308,80,o),
(337,109,cs),
(372,144,o),
(393,184,o),
(402,233,cs),
(427,357,ls),
(430,372,o),
(428,388,o),
(419,403,cs),
(402,434,o),
(365,458,o),
(312,458,cs),
(225,458,o),
(170,401,o),
(150,301,cs),
(135,226,ls),
(132,209,o),
(130,191,o),
(130,175,cs),
(130,153,o),
(134,133,o),
(141,116,cs),
(155,80,o),
(183,58,o),
(227,58,cs)
);
}
);
width = 572;
},
{
anchors = (
{
name = t.uni0303;
position = "{326, 540}";
}
);
layerId = "6F034211-0C67-4D44-818B-30BEF4D1BE0C";
shapes = (
{
closed = 1;
nodes = (
(188,-12,o),
(159,-4,o),
(135,13,c),
(86,45,o),
(60,105,o),
(60,176,cs),
(60,212,o),
(63,247,o),
(70,280,cs),
(79,325,o),
(95,366,o),
(116,402,cs),
(158,474,o),
(224,518,o),
(309,518,cs),
(352,518,o),
(386,508,o),
(413,489,cs),
(439,470,o),
(456,444,o),
(465,413,c),
(468,413,l),
(487,506,l),
(508,506,l),
(403,-18,ls),
(394,-62,o),
(380,-98,o),
(360,-127,cs),
(319,-184,o),
(257,-212,o),
(174,-212,cs),
(99,-212,o),
(50,-186,o),
(18,-145,c),
(34,-131,l),
(62,-168,o),
(105,-193,o),
(174,-193,cs),
(285,-193,o),
(358,-140,o),
(383,-13,cs),
(407,111,l),
(404,111,l),
(363,38,o),
(308,-12,o),
(223,-12,cs)
);
},
{
closed = 1;
nodes = (
(266,7,o),
(298,18,o),
(333,47,cs),
(372,79,o),
(413,135,o),
(426,204,cs),
(454,346,ls),
(459,369,o),
(457,392,o),
(449,415,cs),
(433,462,o),
(389,499,o),
(309,499,cs),
(194,499,o),
(121,414,o),
(94,282,cs),
(87,247,ls),
(83,226,o),
(81,204,o),
(81,176,cs),
(81,145,o),
(86,117,o),
(96,92,cs),
(116,40,o),
(158,7,o),
(223,7,cs)
);
}
);
width = 561;
}
);
leftKerningGroup = a2;
rightKerningGroup = q;
},
{
glyphname = h;
layers = (
{
anchors = (
{
name = b.uni0327;
position = "{263, 0}";
},
{
name = t.uni0303;
position = "{223, 698}";
}
);
layerId = "0B7F572C-A94B-4AEA-9B1F-F41A56A498B5";
shapes = (
{
closed = 1;
nodes = (
(7,0,l),
(154,740,l),
(315,740,l),
(248,399,l),
(254,399,l),
(295,486,o),
(350,540,o),
(434,540,cs),
(513,540,o),
(557,493,o),
(557,406,cs),
(557,379,o),
(553,357,o),
(548,330,cs),
(507,127,l),
(553,127,l),
(528,0,l),
(431,0,ls),
(372,0,o),
(341,33,o),
(341,82,cs),
(341,95,o),
(343,108,o),
(344,112,cs),
(383,310,ls),
(387,329,o),
(390,344,o),
(390,367,cs),
(390,388,o),
(379,407,o),
(346,407,cs),
(314,407,o),
(285,384,o),
(264,357,cs),
(244,330,o),
(228,304,o),
(220,264,cs),
(168,0,l)
);
}
);
width = 596;
},
{
anchors = (
{
name = b.uni0327;
position = "{263, 0}";
},
{
name = t.uni0303;
position = "{223, 698}";
}
);
layerId = "1D0433F9-D608-41FF-8548-FFD7049742EF";
shapes = (
{
closed = 1;
nodes = (
(14,0,l),
(162,740,l),
(302,740,l),
(235,403,l),
(241,403,l),
(281,487,o),
(334,537,o),
(415,537,cs),
(496,537,o),
(541,488,o),
(541,401,cs),
(541,376,o),
(537,354,o),
(532,327,cs),
(489,112,l),
(542,112,l),
(520,0,l),
(429,0,ls),
(376,0,o),
(345,29,o),
(345,76,cs),
(345,88,o),
(347,99,o),
(348,104,cs),
(389,312,ls),
(393,331,o),
(396,348,o),
(396,368,cs),
(396,399,o),
(382,420,o),
(343,420,cs),
(310,420,o),
(281,399,o),
(258,372,cs),
(234,344,o),
(216,310,o),
(208,270,cs),
(154,0,l)
);
}
);
width = 588;
},
{
anchors = (
{
name = b.uni0327;
position = "{263, 0}";
},
{
name = t.uni0303;
position = "{223, 698}";
}
);
layerId = "AA599D58-A149-49FA-A2EA-5B415EA8A4DA";
shapes = (
{
closed = 1;
nodes = (
(36,0,l),
(185,740,l),
(262,740,l),
(196,414,l),
(201,414,l),
(237,491,o),
(286,528,o),
(359,528,cs),
(448,528,o),
(492,474,o),
(492,385,cs),
(492,366,o),
(490,343,o),
(485,318,cs),
(435,68,l),
(508,68,l),
(495,0,l),
(422,0,ls),
(385,0,o),
(358,18,o),
(358,58,cs),
(358,65,o),
(359,70,o),
(360,79,c),
(408,318,ls),
(412,338,o),
(413,359,o),
(413,371,cs),
(413,430,o),
(389,458,o),
(334,458,cs),
(297,458,o),
(267,445,o),
(239,417,cs),
(206,384,o),
(179,329,o),
(171,288,cs),
(113,0,l)
);
}
);
width = 565;
},
{
anchors = (
{
name = b.uni0327;
position = "{249, 0}";
},
{
name = t.uni0303;
position = "{211, 698}";
}
);
layerId = "6F034211-0C67-4D44-818B-30BEF4D1BE0C";
shapes = (
{
closed = 1;
nodes = (
(54,0,l),
(201,740,l),
(222,740,l),
(155,401,l),
(158,401,l),
(198,477,o),
(253,518,o),
(336,518,cs),
(421,518,o),
(468,469,o),
(468,386,cs),
(468,366,o),
(465,341,o),
(461,321,cs),
(401,19,l),
(486,19,l),
(482,0,l),
(404,0,ls),
(389,0,o),
(381,6,o),
(381,19,cs),
(381,26,o),
(382,30,o),
(383,35,cs),
(440,320,ls),
(444,343,o),
(447,370,o),
(447,383,cs),
(447,460,o),
(408,499,o),
(333,499,cs),
(288,499,o),
(240,484,o),
(200,437,cs),
(179,412,o),
(149,372,o),
(137,312,cs),
(75,0,l)
);
}
);
width = 549;
}
);
leftKerningGroup = b2;
rightKerningGroup = h;
unicode = 104;
},
{
glyphname = i;
layers = (
{
anchors = (
{
name = b.uni0327;
position = "{125, 0}";
},
{
name = b.uni0328;
position = "{213, 0}";
}
);
layerId = "0B7F572C-A94B-4AEA-9B1F-F41A56A498B5";
shapes = (
{
closed = 1;
nodes = (
(145,565,o),
(119,586,o),
(119,623,cs),
(119,638,o),
(124,656,o),
(125,667,c),
(130,686,o),
(140,704,o),
(155,722,cs),
(170,740,o),
(196,749,o),
(235,749,cs),
(291,749,o),
(317,728,o),
(317,692,cs),
(317,677,o),
(312,657,o),
(311,648,c),
(306,629,o),
(296,610,o),
(281,592,cs),
(266,574,o),
(240,565,o),
(201,565,cs)
);
},
{
closed = 1;
nodes = (
(222,0,l),
(122,0,ls),
(67,0,o),
(26,34,o),
(26,86,cs),
(26,94,o),
(28,102,o),
(29,111,c),
(112,528,l),
(273,528,l),
(192,127,l),
(247,127,l)
);
}
);
width = 287;
},
{
anchors = (
{
name = b.uni0327;
position = "{125, 0}";
},
{
name = b.uni0328;
position = "{213, 0}";
}
);
layerId = "1D0433F9-D608-41FF-8548-FFD7049742EF";
shapes = (
{
closed = 1;
nodes = (
(153,583,o),
(130,603,o),
(130,635,cs),
(130,647,o),
(133,663,o),
(136,675,cs),
(141,692,o),
(150,709,o),
(163,724,cs),
(176,739,o),
(199,747,o),
(232,747,cs),
(281,747,o),
(304,727,o),
(304,695,cs),
(304,683,o),
(301,667,o),
(298,655,cs),
(293,638,o),
(285,621,o),
(272,606,cs),
(259,591,o),
(235,583,o),
(202,583,cs)
);
},
{
closed = 1;
nodes = (
(213,0,l),
(122,0,ls),
(69,0,o),
(32,32,o),
(32,80,cs),
(32,88,o),
(34,96,o),
(35,105,c),
(119,525,l),
(259,525,l),
(176,112,l),
(235,112,l)
);
}
);
width = 281;
},
{
anchors = (
{
name = b.uni0327;
position = "{125, 0}";
},
{
name = b.uni0328;
position = "{213, 0}";
}
);
layerId = "AA599D58-A149-49FA-A2EA-5B415EA8A4DA";
shapes = (
{
closed = 1;
nodes = (
(175,637,o),
(164,653,o),
(164,672,cs),
(164,676,o),
(164,681,o),
(168,700,cs),
(171,713,o),
(176,723,o),
(185,730,cs),
(193,737,o),
(205,740,o),
(222,740,cs),
(253,740,o),
(264,724,o),
(264,705,cs),
(264,701,o),
(264,696,o),
(260,677,cs),
(257,664,o),
(252,655,o),
(244,648,cs),
(235,641,o),
(223,637,o),
(206,637,cs)
);
},
{
closed = 1;
nodes = (
(187,0,l),
(121,0,ls),
(74,0,o),
(51,26,o),
(51,63,cs),
(51,70,o),
(53,78,o),
(54,87,c),
(140,516,l),
(217,516,l),
(127,68,l),
(200,68,l)
);
}
);
width = 264;
},
{
anchors = (
{
name = b.uni0327;
position = "{114, 0}";
},
{
name = b.uni0328;
position = "{187, 0}";
}
);
layerId = "6F034211-0C67-4D44-818B-30BEF4D1BE0C";
shapes = (
{
closed = 1;
nodes = (
(185,673,o),
(180,681,o),
(180,689,cs),
(180,693,o),
(181,698,o),
(182,703,cs),
(183,709,o),
(186,714,o),
(190,717,cs),
(194,720,o),
(200,722,o),
(209,722,cs),
(224,722,o),
(229,714,o),
(229,706,cs),
(229,702,o),
(228,699,o),
(227,692,cs),
(226,686,o),
(223,681,o),
(219,678,cs),
(215,675,o),
(209,673,o),
(200,673,cs)
);
},
{
closed = 1;
nodes = (
(159,0,l),
(81,0,ls),
(66,0,o),
(58,6,o),
(58,19,cs),
(58,26,o),
(59,30,o),
(60,35,cs),
(155,506,l),
(176,506,l),
(78,19,l),
(163,19,l)
);
}
);
width = 235;
}
);
leftKerningGroup = i2;
rightKerningGroup = i;
unicode = 105;
},
{
glyphname = j;
layers = (
{
layerId = "0B7F572C-A94B-4AEA-9B1F-F41A56A498B5";
shapes = (
{
closed = 1;
nodes = (
(-3,-73,l),
(117,528,l),
(278,528,l),
(161,-49,ls),
(142,-146,o),
(88,-200,o),
(-17,-200,cs),
(-100,-200,l),
(-76,-73,l)
);
},
{
closed = 1;
nodes = (
(150,565,o),
(124,586,o),
(124,623,cs),
(124,638,o),
(128,656,o),
(131,667,cs),
(136,686,o),
(146,704,o),
(161,722,cs),
(175,740,o),
(202,749,o),
(241,749,cs),
(296,749,o),
(323,728,o),
(323,692,cs),
(323,677,o),
(319,657,o),
(316,648,cs),
(311,629,o),
(301,610,o),
(286,592,cs),
(271,574,o),
(245,565,o),
(206,565,cs)
);
}
);
width = 284;
},
{
layerId = "1D0433F9-D608-41FF-8548-FFD7049742EF";
shapes = (
{
closed = 1;
nodes = (
(0,-88,l),
(123,525,l),
(263,525,l),
(144,-61,ls),
(127,-152,o),
(79,-200,o),
(-18,-200,cs),
(-97,-200,l),
(-75,-88,l)
);
},
{
closed = 1;
nodes = (
(157,583,o),
(134,603,o),
(134,635,cs),
(134,647,o),
(137,663,o),
(140,675,cs),
(145,692,o),
(154,709,o),
(167,724,cs),
(180,739,o),
(203,747,o),
(236,747,cs),
(285,747,o),
(308,727,o),
(308,695,cs),
(308,683,o),
(305,667,o),
(302,655,cs),
(297,638,o),
(289,621,o),
(276,606,cs),
(263,591,o),
(239,583,o),
(206,583,cs)
);
}
);
width = 276;
},
{
layerId = "AA599D58-A149-49FA-A2EA-5B415EA8A4DA";
shapes = (
{
closed = 1;
nodes = (
(10,-132,l),
(140,516,l),
(217,516,l),
(94,-98,ls),
(81,-167,o),
(51,-200,o),
(-20,-200,cs),
(-87,-200,l),
(-73,-132,l)
);
},
{
closed = 1;
nodes = (
(175,637,o),
(164,653,o),
(164,672,cs),
(164,676,o),
(164,681,o),
(168,700,cs),
(171,713,o),
(176,723,o),
(185,730,cs),
(193,737,o),
(205,740,o),
(222,740,cs),
(253,740,o),
(264,724,o),
(264,705,cs),
(264,701,o),
(264,696,o),
(260,677,cs),
(257,664,o),
(252,655,o),
(244,648,cs),
(235,641,o),
(223,637,o),
(206,637,cs)
);
}
);
width = 253;
},
{
layerId = "6F034211-0C67-4D44-818B-30BEF4D1BE0C";
shapes = (
{
closed = 1;
nodes = (
(17,-181,l),
(154,506,l),
(175,506,l),
(41,-167,ls),
(36,-192,o),
(28,-200,o),
(0,-200,cs),
(-72,-200,l),
(-68,-181,l)
);
},
{
closed = 1;
nodes = (
(184,673,o),
(179,681,o),
(179,689,cs),
(179,693,o),
(180,698,o),
(181,703,cs),
(182,709,o),
(185,714,o),
(189,717,cs),
(193,720,o),
(199,722,o),
(208,722,cs),
(223,722,o),
(228,714,o),
(228,706,cs),
(228,702,o),
(227,699,o),
(226,692,cs),
(225,686,o),
(222,681,o),
(218,678,cs),
(214,675,o),
(208,673,o),
(199,673,cs)
);
}
);
width = 229;
}
);
leftKerningGroup = j2;
rightKerningGroup = j;
unicode = 106;
},
{
glyphname = k;
layers = (
{
anchors = (
{
name = b.uni0327;
position = "{252, 0}";
}
);
layerId = "0B7F572C-A94B-4AEA-9B1F-F41A56A498B5";
shapes = (
{
closed = 1;
nodes = (
(7,0,l),
(154,740,l),
(315,740,l),
(248,402,l),
(231,315,l),
(238,315,l),
(304,406,l),
(414,528,l),
(600,528,l),
(393,313,l),
(454,127,l),
(513,127,l),
(485,0,l),
(400,0,ls),
(349,0,o),
(313,30,o),
(296,87,c),
(268,200,l),
(193,129,l),
(168,0,l)
);
}
);
width = 560;
},
{
anchors = (
{
name = b.uni0327;
position = "{252, 0}";
}
);
layerId = "1D0433F9-D608-41FF-8548-FFD7049742EF";
shapes = (
{
closed = 1;
nodes = (
(14,0,l),
(162,740,l),
(302,740,l),
(233,395,l),
(215,305,l),
(222,305,l),
(294,395,l),
(420,525,l),
(583,525,l),
(370,312,l),
(442,112,l),
(503,112,l),
(479,0,l),
(404,0,ls),
(355,0,o),
(322,26,o),
(305,79,cs),
(261,216,l),
(182,142,l),
(154,0,l)
);
}
);
width = 550;
},
{
anchors = (
{
name = b.uni0327;
position = "{252, 0}";
}
);
layerId = "AA599D58-A149-49FA-A2EA-5B415EA8A4DA";
shapes = (
{
closed = 1;
nodes = (
(36,0,l),
(185,740,l),
(262,740,l),
(188,374,l),
(168,275,l),
(173,275,l),
(265,363,l),
(439,516,l),
(532,516,l),
(302,308,l),
(407,68,l),
(473,68,l),
(460,0,l),
(416,0,ls),
(371,0,o),
(348,15,o),
(331,54,cs),
(240,263,l),
(149,181,l),
(113,0,l)
);
}
);
width = 519;
},
{
anchors = (
{
name = b.uni0327;
position = "{240, 0}";
}
);
layerId = "6F034211-0C67-4D44-818B-30BEF4D1BE0C";
shapes = (
{
closed = 1;
nodes = (
(53,0,l),
(201,740,l),
(222,740,l),
(141,335,l),
(118,221,l),
(122,221,l),
(234,315,l),
(453,506,l),
(480,506,l),
(237,292,l),
(378,19,l),
(435,19,l),
(431,0,l),
(383,0,ls),
(368,0,o),
(362,6,o),
(354,21,cs),
(221,280,l),
(112,189,l),
(74,0,l)
);
}
);
width = 479;
}
);
leftKerningGroup = b2;
rightKerningGroup = k;
unicode = 107;
},
{
glyphname = l;
layers = (
{
anchors = (
{
name = b.uni0327;
position = "{129, 0}";
},
{
name = t.uni0303;
position = "{234, 740}";
},
{
name = t.uni0315;
position = "{360, 740}";
}
);
layerId = "0B7F572C-A94B-4AEA-9B1F-F41A56A498B5";
shapes = (
{
closed = 1;
nodes = (
(224,0,l),
(122,0,ls),
(67,0,o),
(26,34,o),
(26,86,cs),
(26,94,o),
(28,102,o),
(29,111,c),
(154,740,l),
(315,740,l),
(192,127,l),
(249,127,l)
);
}
);
width = 287;
},
{
anchors = (
{
name = b.uni0327;
position = "{129, 0}";
},
{
name = t.uni0303;
position = "{234, 740}";
},
{
name = t.uni0315;
position = "{360, 740}";
}
);
layerId = "1D0433F9-D608-41FF-8548-FFD7049742EF";
shapes = (
{
closed = 1;
nodes = (
(216,0,l),
(122,0,ls),
(69,0,o),
(32,32,o),
(32,80,cs),
(32,88,o),
(34,96,o),
(35,105,c),
(162,740,l),
(302,740,l),
(176,112,l),
(238,112,l)
);
}
);
width = 281;
},
{
anchors = (
{
name = b.uni0327;
position = "{129, 0}";
},
{
name = t.uni0303;
position = "{234, 740}";
},
{
name = t.uni0315;
position = "{360, 740}";
}
);
layerId = "AA599D58-A149-49FA-A2EA-5B415EA8A4DA";
shapes = (
{
closed = 1;
nodes = (
(192,0,l),
(121,0,ls),
(74,0,o),
(51,26,o),
(51,63,cs),
(51,70,o),
(53,78,o),
(54,87,c),
(185,740,l),
(262,740,l),
(127,68,l),
(205,68,l)
);
}
);
width = 264;
},
{
anchors = (
{
name = b.uni0327;
position = "{116, 0}";
},
{
name = t.uni0303;
position = "{222, 740}";
},
{
name = t.uni0315;
position = "{328, 740}";
}
);
layerId = "6F034211-0C67-4D44-818B-30BEF4D1BE0C";
shapes = (
{
closed = 1;
nodes = (
(159,0,l),
(81,0,ls),
(66,0,o),
(58,6,o),
(58,19,cs),
(58,26,o),
(59,30,o),
(60,35,cs),
(201,740,l),
(222,740,l),
(78,19,l),
(163,19,l)
);
}
);
width = 235;
}
);
leftKerningGroup = l;
rightKerningGroup = d;
unicode = 108;
},
{
glyphname = m;
layers = (
{
anchors = (
{
name = b.uni0327;
position = "{389, 0}";
},
{
name = t.uni0303;
position = "{513, 540}";
}
);
layerId = "0B7F572C-A94B-4AEA-9B1F-F41A56A498B5";
shapes = (
{
closed = 1;
nodes = (
(168,0,l),
(7,0,l),
(112,528,l),
(273,528,l),
(248,399,l),
(254,399,l),
(294,484,o),
(346,540,o),
(427,540,cs),
(508,540,o),
(551,488,o),
(550,399,c),
(555,399,l),
(575,439,o),
(599,473,o),
(627,500,cs),
(654,527,o),
(690,540,o),
(733,540,cs),
(808,540,o),
(848,490,o),
(848,410,cs),
(848,375,o),
(842,343,o),
(835,311,cs),
(798,127,l),
(844,127,l),
(819,0,l),
(722,0,ls),
(665,0,o),
(632,33,o),
(632,82,cs),
(632,97,o),
(634,108,o),
(635,112,cs),
(674,310,l),
(678,327,o),
(682,346,o),
(682,365,cs),
(682,389,o),
(673,407,o),
(650,407,cs),
(619,407,o),
(591,385,o),
(570,358,c),
(553,334,o),
(534,297,o),
(527,264,cs),
(474,0,l),
(313,0,l),
(375,310,ls),
(379,329,o),
(382,347,o),
(382,363,cs),
(382,390,o),
(374,407,o),
(343,407,cs),
(311,407,o),
(284,386,o),
(261,357,c),
(244,332,o),
(228,304,o),
(220,264,cs)
);
}
);
width = 887;
},
{
anchors = (
{
name = b.uni0327;
position = "{389, 0}";
},
{
name = t.uni0303;
position = "{513, 540}";
}
);
layerId = "1D0433F9-D608-41FF-8548-FFD7049742EF";
shapes = (
{
closed = 1;
nodes = (
(154,0,l),
(14,0,l),
(119,525,l),
(259,525,l),
(235,403,l),
(241,403,l),
(280,486,o),
(330,537,o),
(410,537,cs),
(489,537,o),
(531,487,o),
(532,403,c),
(537,403,l),
(556,442,o),
(580,475,o),
(607,500,cs),
(634,525,o),
(669,537,o),
(711,537,cs),
(788,537,o),
(830,487,o),
(830,404,cs),
(830,373,o),
(825,344,o),
(818,313,cs),
(778,112,l),
(831,112,l),
(809,0,l),
(718,0,ls),
(665,0,o),
(634,29,o),
(634,76,cs),
(634,88,o),
(636,99,o),
(637,104,cs),
(678,312,ls),
(682,331,o),
(686,350,o),
(686,367,cs),
(686,399,o),
(673,420,o),
(642,420,cs),
(611,420,o),
(583,400,o),
(560,373,c),
(539,346,o),
(519,306,o),
(512,270,cs),
(458,0,l),
(318,0,l),
(380,312,ls),
(384,331,o),
(387,350,o),
(387,366,cs),
(387,399,o),
(375,420,o),
(340,420,cs),
(307,420,o),
(279,400,o),
(256,372,cs),
(233,344,o),
(216,310,o),
(208,270,cs)
);
}
);
width = 877;
},
{
anchors = (
{
name = b.uni0327;
position = "{389, 0}";
},
{
name = t.uni0303;
position = "{513, 540}";
}
);
layerId = "AA599D58-A149-49FA-A2EA-5B415EA8A4DA";
shapes = (
{
closed = 1;
nodes = (
(113,0,l),
(36,0,l),
(140,516,l),
(217,516,l),
(196,414,l),
(201,414,l),
(237,491,o),
(283,528,o),
(358,528,cs),
(430,528,o),
(470,485,o),
(478,414,c),
(484,414,l),
(501,453,o),
(523,481,o),
(549,500,cs),
(575,519,o),
(607,528,o),
(645,528,cs),
(732,528,o),
(775,477,o),
(775,386,cs),
(775,366,o),
(773,344,o),
(768,319,cs),
(718,68,l),
(791,68,l),
(778,0,l),
(706,0,ls),
(666,0,o),
(640,18,o),
(640,57,cs),
(640,64,o),
(642,71,o),
(643,80,c),
(691,319,ls),
(695,339,o),
(697,358,o),
(697,374,cs),
(697,429,o),
(673,458,o),
(618,458,cs),
(586,458,o),
(558,445,o),
(531,417,cs),
(498,384,o),
(475,331,o),
(467,288,cs),
(409,0,l),
(332,0,l),
(396,318,ls),
(400,338,o),
(402,359,o),
(402,376,cs),
(402,429,o),
(379,458,o),
(330,458,cs),
(295,458,o),
(264,442,o),
(241,418,cs),
(204,381,o),
(179,328,o),
(171,288,cs)
);
}
);
width = 848;
},
{
anchors = (
{
name = b.uni0327;
position = "{372, 0}";
},
{
name = t.uni0303;
position = "{491, 540}";
}
);
layerId = "6F034211-0C67-4D44-818B-30BEF4D1BE0C";
shapes = (
{
closed = 1;
nodes = (
(74,0,l),
(53,0,l),
(154,506,l),
(175,506,l),
(154,401,l),
(157,401,l),
(193,472,o),
(248,518,o),
(327,518,cs),
(410,518,o),
(452,463,o),
(453,394,c),
(456,394,l),
(473,431,o),
(497,461,o),
(528,484,cs),
(559,507,o),
(595,518,o),
(636,518,cs),
(717,518,o),
(762,469,o),
(762,386,cs),
(762,366,o),
(759,341,o),
(755,321,cs),
(695,19,l),
(780,19,l),
(776,0,l),
(698,0,ls),
(683,0,o),
(675,6,o),
(675,19,cs),
(675,26,o),
(676,30,o),
(677,35,cs),
(734,320,ls),
(738,343,o),
(741,370,o),
(741,383,cs),
(741,460,o),
(704,499,o),
(633,499,cs),
(589,499,o),
(541,481,o),
(504,437,cs),
(479,408,o),
(457,375,o),
(446,319,cs),
(382,0,l),
(361,0,l),
(425,320,ls),
(429,343,o),
(432,370,o),
(432,383,cs),
(432,460,o),
(395,499,o),
(324,499,cs),
(281,499,o),
(238,481,o),
(199,437,cs),
(175,410,o),
(147,367,o),
(136,312,cs)
);
}
);
width = 843;
}
);
leftKerningGroup = m;
rightKerningGroup = h;
unicode = 109;
},
{
glyphname = n;
layers = (
{
anchors = (
{
name = b.uni0327;
position = "{263, 0}";
},
{
name = t.uni0303;
position = "{348, 540}";
}
);
layerId = "0B7F572C-A94B-4AEA-9B1F-F41A56A498B5";
shapes = (
{
closed = 1;
nodes = (
(168,0,l),
(7,0,l),
(112,528,l),
(273,528,l),
(248,399,l),
(254,399,l),
(295,486,o),
(350,540,o),
(434,540,cs),
(513,540,o),
(557,493,o),
(557,406,cs),
(557,379,o),
(553,357,o),
(548,330,cs),
(507,127,l),
(553,127,l),
(528,0,l),
(431,0,ls),
(372,0,o),
(341,33,o),
(341,82,cs),
(341,95,o),
(343,108,o),
(344,112,cs),
(383,310,ls),
(387,329,o),
(390,344,o),
(390,367,cs),
(390,388,o),
(379,407,o),
(346,407,cs),
(314,407,o),
(285,384,o),
(264,357,cs),
(244,330,o),
(228,304,o),
(220,264,cs)
);
}
);
width = 596;
},
{
anchors = (
{
name = b.uni0327;
position = "{263, 0}";
},
{
name = t.uni0303;
position = "{348, 540}";
}
);
layerId = "1D0433F9-D608-41FF-8548-FFD7049742EF";
shapes = (
{
closed = 1;
nodes = (
(154,0,l),
(14,0,l),
(119,525,l),
(259,525,l),
(235,403,l),
(241,403,l),
(281,487,o),
(334,537,o),
(415,537,cs),
(496,537,o),
(541,488,o),
(541,401,cs),
(541,376,o),
(537,354,o),
(532,327,cs),
(489,112,l),
(542,112,l),
(520,0,l),
(429,0,ls),
(376,0,o),
(345,29,o),
(345,76,cs),
(345,88,o),
(347,99,o),
(348,104,cs),
(389,312,ls),
(393,331,o),
(396,348,o),
(396,368,cs),
(396,399,o),
(382,420,o),
(343,420,cs),
(310,420,o),
(281,399,o),
(258,372,cs),
(234,344,o),
(216,310,o),
(208,270,cs)
);
}
);
width = 588;
},
{
anchors = (
{
name = b.uni0327;
position = "{263, 0}";
},
{
name = t.uni0303;
position = "{348, 540}";
}
);
layerId = "AA599D58-A149-49FA-A2EA-5B415EA8A4DA";
shapes = (
{
closed = 1;
nodes = (
(113,0,l),
(36,0,l),
(140,516,l),
(217,516,l),
(196,414,l),
(201,414,l),
(237,491,o),
(286,528,o),
(359,528,cs),
(448,528,o),
(492,474,o),
(492,385,cs),
(492,366,o),
(490,343,o),
(485,318,cs),
(435,68,l),
(508,68,l),
(495,0,l),
(422,0,ls),
(385,0,o),
(358,18,o),
(358,58,cs),
(358,65,o),
(359,70,o),
(360,79,c),
(408,318,ls),
(412,338,o),
(413,359,o),
(413,371,cs),
(413,430,o),
(389,458,o),
(334,458,cs),
(297,458,o),
(267,445,o),
(239,417,cs),
(206,384,o),
(179,329,o),
(171,288,cs)
);
}
);
width = 565;
},
{
anchors = (
{
name = b.uni0327;
position = "{251, 0}";
},
{
name = t.uni0303;
position = "{348, 540}";
}
);
layerId = "6F034211-0C67-4D44-818B-30BEF4D1BE0C";
shapes = (
{
closed = 1;
nodes = (
(74,0,l),
(53,0,l),
(154,506,l),
(175,506,l),
(154,401,l),
(157,401,l),
(197,477,o),
(252,518,o),
(335,518,cs),
(420,518,o),
(467,469,o),
(467,386,cs),
(467,366,o),
(464,341,o),
(460,321,cs),
(400,19,l),
(485,19,l),
(481,0,l),
(403,0,ls),
(388,0,o),
(380,6,o),
(380,19,cs),
(380,26,o),
(381,30,o),
(382,35,cs),
(439,320,ls),
(443,343,o),
(446,370,o),
(446,383,cs),
(446,460,o),
(407,499,o),
(332,499,cs),
(287,499,o),
(239,484,o),
(199,437,cs),
(178,412,o),
(148,372,o),
(136,312,cs)
);
}
);
width = 548;
}
);
leftKerningGroup = m;
rightKerningGroup = h;
unicode = 110;
},
{
glyphname = o;
layers = (
{
anchors = (
{
name = b.uni0327;
position = "{228, 0}";
},
{
name = t.uni0303;
position = "{317, 540}";
}
);
layerId = "0B7F572C-A94B-4AEA-9B1F-F41A56A498B5";
shapes = (
{
closed = 1;
nodes = (
(197,-12,o),
(158,-3,o),
(126,15,cs),
(61,50,o),
(25,118,o),
(25,209,cs),
(25,241,o),
(28,267,o),
(33,294,cs),
(43,344,o),
(61,387,o),
(86,424,cs),
(136,497,o),
(210,540,o),
(298,540,cs),
(343,540,o),
(381,531,o),
(414,514,c),
(478,478,o),
(514,410,o),
(514,319,cs),
(514,290,o),
(511,261,o),
(507,234,c),
(498,185,o),
(480,142,o),
(455,105,cs),
(404,31,o),
(330,-12,o),
(242,-12,cs)
);
},
{
closed = 1;
nodes = (
(292,116,o),
(319,151,o),
(332,215,cs),
(352,316,ls),
(353,320,o),
(354,329,o),
(354,342,cs),
(354,356,o),
(352,368,o),
(348,379,c),
(339,399,o),
(322,412,o),
(294,412,cs),
(247,412,o),
(220,377,o),
(208,313,c),
(187,212,l),
(187,211,o),
(185,199,o),
(185,186,cs),
(185,172,o),
(187,160,o),
(192,149,cs),
(200,128,o),
(220,116,o),
(245,116,cs)
);
}
);
width = 539;
},
{
anchors = (
{
name = b.uni0327;
position = "{228, 0}";
},
{
name = t.uni0303;
position = "{317, 540}";
}
);
layerId = "1D0433F9-D608-41FF-8548-FFD7049742EF";
shapes = (
{
closed = 1;
nodes = (
(197,-12,o),
(160,-3,o),
(129,14,cs),
(66,49,o),
(31,115,o),
(31,207,cs),
(31,238,o),
(34,265,o),
(39,292,cs),
(49,341,o),
(66,383,o),
(91,420,cs),
(140,493,o),
(214,537,o),
(302,537,cs),
(345,537,o),
(382,528,o),
(413,511,cs),
(476,476,o),
(511,410,o),
(511,318,cs),
(511,289,o),
(508,260,o),
(503,233,cs),
(494,185,o),
(477,143,o),
(452,106,cs),
(402,32,o),
(328,-12,o),
(240,-12,cs)
);
},
{
closed = 1;
nodes = (
(298,101,o),
(335,141,o),
(350,216,cs),
(369,310,ls),
(370,317,o),
(372,328,o),
(372,341,cs),
(372,358,o),
(369,372,o),
(364,385,c),
(352,409,o),
(330,424,o),
(297,424,cs),
(244,424,o),
(207,384,o),
(192,309,cs),
(173,215,ls),
(172,210,o),
(170,197,o),
(170,184,cs),
(170,167,o),
(173,153,o),
(179,141,cs),
(190,116,o),
(213,101,o),
(245,101,cs)
);
}
);
width = 542;
},
{
anchors = (
{
name = b.uni0327;
position = "{228, 0}";
},
{
name = t.uni0303;
position = "{317, 540}";
}
);
layerId = "AA599D58-A149-49FA-A2EA-5B415EA8A4DA";
shapes = (
{
closed = 1;
nodes = (
(199,-12,o),
(167,-4,o),
(139,12,cs),
(83,44,o),
(49,107,o),
(49,200,cs),
(49,229,o),
(53,258,o),
(58,286,c),
(68,331,o),
(85,372,o),
(109,409,cs),
(156,481,o),
(227,528,o),
(315,528,cs),
(351,528,o),
(383,520,o),
(411,504,cs),
(467,472,o),
(501,409,o),
(501,316,cs),
(501,287,o),
(499,258,o),
(492,230,c),
(483,185,o),
(466,145,o),
(442,108,cs),
(394,35,o),
(323,-12,o),
(235,-12,cs)
);
},
{
closed = 1;
nodes = (
(320,57,o),
(384,113,o),
(405,218,cs),
(420,293,ls),
(423,308,o),
(425,323,o),
(425,338,cs),
(425,362,o),
(421,383,o),
(412,402,cs),
(394,438,o),
(357,459,o),
(305,459,cs),
(232,459,o),
(166,403,o),
(145,298,cs),
(130,223,ls),
(127,208,o),
(125,193,o),
(125,178,cs),
(125,154,o),
(130,133,o),
(139,115,cs),
(158,79,o),
(193,57,o),
(245,57,cs)
);
}
);
width = 550;
},
{
anchors = (
{
name = b.uni0327;
position = "{216, 0}";
},
{
name = t.uni0303;
position = "{313, 540}";
}
);
layerId = "6F034211-0C67-4D44-818B-30BEF4D1BE0C";
shapes = (
{
closed = 1;
nodes = (
(190,-12,o),
(160,-4,o),
(135,13,cs),
(85,45,o),
(59,102,o),
(59,169,cs),
(59,208,o),
(63,246,o),
(70,281,cs),
(79,326,o),
(95,367,o),
(116,403,cs),
(158,474,o),
(221,518,o),
(309,518,cs),
(345,518,o),
(375,510,o),
(400,494,cs),
(449,461,o),
(475,404,o),
(475,337,cs),
(475,298,o),
(471,260,o),
(464,225,cs),
(455,180,o),
(440,140,o),
(419,104,cs),
(377,32,o),
(313,-12,o),
(225,-12,cs)
);
},
{
closed = 1;
nodes = (
(339,7,o),
(414,90,o),
(441,225,cs),
(449,265,ls),
(453,288,o),
(454,312,o),
(454,337,cs),
(454,366,o),
(449,393,o),
(439,418,cs),
(418,467,o),
(375,499,o),
(307,499,cs),
(195,499,o),
(120,416,o),
(93,281,cs),
(85,241,ls),
(81,220,o),
(80,196,o),
(80,169,cs),
(80,140,o),
(85,113,o),
(96,88,cs),
(116,39,o),
(159,7,o),
(227,7,cs)
);
}
);
width = 534;
}
);
leftKerningGroup = c2;
rightKerningGroup = o;
unicode = 111;
},
{
glyphname = p;
layers = (
{
anchors = (
{
name = t.uni0303;
position = "{371, 540}";
}
);
layerId = "0B7F572C-A94B-4AEA-9B1F-F41A56A498B5";
shapes = (
{
closed = 1;
nodes = (
(-33,-200,l),
(112,528,l),
(273,528,l),
(249,403,l),
(256,403,l),
(296,487,o),
(345,540,o),
(428,540,cs),
(461,540,o),
(488,532,o),
(508,517,c),
(547,485,o),
(562,430,o),
(562,363,cs),
(562,316,o),
(558,274,o),
(550,235,cs),
(539,181,o),
(522,136,o),
(499,99,cs),
(451,25,o),
(388,-12,o),
(321,-12,cs),
(282,-12,o),
(252,-1,o),
(229,20,cs),
(206,41,o),
(193,66,o),
(191,93,c),
(186,93,l),
(128,-200,l)
);
},
{
closed = 1;
nodes = (
(334,118,o),
(363,150,o),
(378,222,cs),
(392,290,ls),
(395,303,o),
(398,333,o),
(398,349,cs),
(398,363,o),
(396,374,o),
(391,383,cs),
(382,400,o),
(364,410,o),
(343,410,cs),
(310,410,o),
(282,388,o),
(263,363,cs),
(246,339,o),
(228,299,o),
(221,266,cs),
(206,194,ls),
(203,178,o),
(205,164,o),
(210,153,cs),
(221,129,o),
(247,118,o),
(278,118,cs)
);
}
);
width = 587;
},
{
anchors = (
{
name = t.uni0303;
position = "{371, 540}";
}
);
layerId = "1D0433F9-D608-41FF-8548-FFD7049742EF";
shapes = (
{
closed = 1;
nodes = (
(-26,-200,l),
(119,525,l),
(259,525,l),
(235,403,l),
(241,403,l),
(282,488,o),
(331,537,o),
(412,537,cs),
(445,537,o),
(471,529,o),
(492,514,c),
(533,482,o),
(552,426,o),
(552,355,cs),
(552,314,o),
(548,274,o),
(541,238,cs),
(531,187,o),
(515,142,o),
(492,105,cs),
(446,29,o),
(381,-12,o),
(308,-12,cs),
(271,-12,o),
(241,-2,o),
(218,18,cs),
(194,38,o),
(180,62,o),
(177,91,c),
(172,91,l),
(114,-200,l)
);
},
{
closed = 1;
nodes = (
(337,103,o),
(373,141,o),
(389,220,cs),
(403,290,ls),
(406,305,o),
(409,331,o),
(409,347,cs),
(409,363,o),
(406,377,o),
(401,388,cs),
(390,410,o),
(371,422,o),
(343,422,cs),
(307,422,o),
(277,401,o),
(256,374,cs),
(235,347,o),
(216,309,o),
(208,270,cs),
(192,190,ls),
(189,173,o),
(190,157,o),
(196,144,cs),
(207,117,o),
(235,103,o),
(274,103,cs)
);
}
);
width = 583;
},
{
anchors = (
{
name = t.uni0303;
position = "{371, 540}";
}
);
layerId = "AA599D58-A149-49FA-A2EA-5B415EA8A4DA";
shapes = (
{
closed = 1;
nodes = (
(-4,-200,l),
(140,516,l),
(217,516,l),
(194,404,l),
(197,404,l),
(240,491,o),
(288,528,o),
(364,528,cs),
(395,528,o),
(423,520,o),
(447,504,cs),
(494,472,o),
(521,412,o),
(521,331,cs),
(521,304,o),
(518,275,o),
(513,246,cs),
(505,203,o),
(491,161,o),
(470,122,cs),
(429,43,o),
(362,-12,o),
(269,-12,cs),
(238,-12,o),
(210,-4,o),
(184,12,cs),
(158,27,o),
(141,51,o),
(134,84,c),
(130,84,l),
(73,-200,l)
);
},
{
closed = 1;
nodes = (
(346,58,o),
(402,115,o),
(422,215,cs),
(437,290,ls),
(440,307,o),
(442,324,o),
(442,341,cs),
(442,364,o),
(439,384,o),
(432,401,cs),
(418,436,o),
(390,458,o),
(343,458,cs),
(298,458,o),
(266,438,o),
(235,407,cs),
(202,374,o),
(181,335,o),
(170,283,cs),
(149,178,ls),
(145,157,o),
(146,137,o),
(153,119,c),
(165,82,o),
(201,58,o),
(262,58,cs)
);
}
);
width = 572;
},
{
anchors = (
{
name = t.uni0303;
position = "{362, 540}";
}
);
layerId = "6F034211-0C67-4D44-818B-30BEF4D1BE0C";
shapes = (
{
closed = 1;
nodes = (
(14,-200,l),
(155,506,l),
(176,506,l),
(154,395,l),
(157,395,l),
(200,470,o),
(253,518,o),
(338,518,cs),
(373,518,o),
(403,510,o),
(427,494,cs),
(475,461,o),
(501,402,o),
(501,330,cs),
(501,294,o),
(498,259,o),
(491,226,cs),
(482,181,o),
(467,140,o),
(446,104,cs),
(403,32,o),
(339,-12,o),
(252,-12,cs),
(209,-12,o),
(175,-2,o),
(149,18,cs),
(123,37,o),
(105,62,o),
(96,93,c),
(93,93,l),
(35,-200,l)
);
},
{
closed = 1;
nodes = (
(367,7,o),
(442,92,o),
(467,224,cs),
(474,259,ls),
(478,282,o),
(480,302,o),
(480,330,cs),
(480,361,o),
(475,390,o),
(465,415,cs),
(445,466,o),
(403,499,o),
(338,499,cs),
(297,499,o),
(263,488,o),
(228,459,cs),
(189,427,o),
(150,373,o),
(135,302,cs),
(107,160,ls),
(103,137,o),
(105,114,o),
(113,91,cs),
(128,44,o),
(173,7,o),
(252,7,cs)
);
}
);
width = 561;
}
);
rightKerningGroup = b;
unicode = 112;
},
{
glyphname = q;
layers = (
{
anchors = (
{
name = t.uni0303;
position = "{319, 540}";
}
);
layerId = "0B7F572C-A94B-4AEA-9B1F-F41A56A498B5";
shapes = (
{
closed = 1;
nodes = (
(274,-200,l),
(338,125,l),
(331,125,l),
(290,40,o),
(243,-12,o),
(159,-12,cs),
(126,-12,o),
(99,-4,o),
(80,12,c),
(40,43,o),
(24,100,o),
(24,165,cs),
(24,212,o),
(29,252,o),
(36,291,cs),
(47,346,o),
(65,392,o),
(88,429,cs),
(135,502,o),
(201,540,o),
(266,540,cs),
(304,540,o),
(335,529,o),
(358,508,cs),
(381,487,o),
(393,462,o),
(395,435,c),
(401,435,l),
(419,528,l),
(580,528,l),
(435,-200,l)
);
},
{
closed = 1;
nodes = (
(276,118,o),
(305,141,o),
(324,165,cs),
(343,189,o),
(358,229,o),
(366,262,c),
(380,334,l),
(384,351,o),
(383,365,o),
(378,376,cs),
(366,399,o),
(340,410,o),
(309,410,cs),
(254,410,o),
(224,378,o),
(209,306,cs),
(195,238,l),
(192,226,o),
(189,195,o),
(189,179,cs),
(189,166,o),
(191,155,o),
(196,146,cs),
(205,128,o),
(223,118,o),
(244,118,cs)
);
}
);
width = 587;
},
{
anchors = (
{
name = t.uni0303;
position = "{319, 540}";
}
);
layerId = "1D0433F9-D608-41FF-8548-FFD7049742EF";
shapes = (
{
closed = 1;
nodes = (
(284,-200,l),
(348,122,l),
(342,122,l),
(301,37,o),
(254,-12,o),
(171,-12,cs),
(138,-12,o),
(112,-4,o),
(91,12,cs),
(50,43,o),
(31,101,o),
(31,170,cs),
(31,213,o),
(35,251,o),
(42,287,cs),
(53,339,o),
(69,384,o),
(92,421,cs),
(137,496,o),
(203,537,o),
(275,537,cs),
(312,537,o),
(342,527,o),
(366,507,cs),
(389,487,o),
(403,463,o),
(406,434,c),
(411,434,l),
(429,525,l),
(569,525,l),
(424,-200,l)
);
},
{
closed = 1;
nodes = (
(276,103,o),
(306,126,o),
(327,151,cs),
(350,178,o),
(367,216,o),
(375,255,cs),
(391,335,ls),
(395,353,o),
(394,369,o),
(388,382,cs),
(376,408,o),
(348,422,o),
(309,422,cs),
(248,422,o),
(210,384,o),
(194,305,cs),
(180,235,ls),
(177,222,o),
(174,194,o),
(174,178,cs),
(174,163,o),
(177,149,o),
(182,138,cs),
(193,115,o),
(213,103,o),
(240,103,cs)
);
}
);
width = 583;
},
{
anchors = (
{
name = t.uni0303;
position = "{319, 540}";
}
);
layerId = "AA599D58-A149-49FA-A2EA-5B415EA8A4DA";
shapes = (
{
closed = 1;
nodes = (
(315,-200,l),
(378,112,l),
(375,112,l),
(334,27,o),
(284,-12,o),
(208,-12,cs),
(177,-12,o),
(149,-4,o),
(126,12,cs),
(78,44,o),
(51,104,o),
(51,185,cs),
(51,214,o),
(55,246,o),
(60,275,c),
(69,318,o),
(83,358,o),
(104,397,cs),
(144,474,o),
(211,528,o),
(303,528,cs),
(334,528,o),
(363,520,o),
(389,505,c),
(414,489,o),
(431,465,o),
(438,432,c),
(442,432,l),
(459,516,l),
(536,516,l),
(392,-200,l)
);
},
{
closed = 1;
nodes = (
(274,58,o),
(308,80,o),
(337,109,cs),
(370,142,o),
(393,181,o),
(402,233,c),
(423,338,l),
(428,359,o),
(427,379,o),
(420,398,cs),
(407,434,o),
(371,458,o),
(310,458,cs),
(226,458,o),
(170,401,o),
(150,301,cs),
(135,226,ls),
(132,209,o),
(130,192,o),
(130,175,cs),
(130,153,o),
(134,133,o),
(141,116,cs),
(155,80,o),
(184,58,o),
(229,58,cs)
);
}
);
width = 572;
},
{
anchors = (
{
name = t.uni0303;
position = "{319, 540}";
}
);
layerId = "6F034211-0C67-4D44-818B-30BEF4D1BE0C";
shapes = (
{
closed = 1;
nodes = (
(345,-200,l),
(407,111,l),
(404,111,l),
(363,38,o),
(308,-12,o),
(223,-12,cs),
(188,-12,o),
(159,-4,o),
(135,13,c),
(86,45,o),
(60,105,o),
(60,176,cs),
(60,212,o),
(63,247,o),
(70,280,cs),
(79,325,o),
(95,366,o),
(116,402,cs),
(158,474,o),
(224,518,o),
(309,518,cs),
(352,518,o),
(386,508,o),
(413,489,cs),
(439,470,o),
(456,444,o),
(465,413,c),
(468,413,l),
(486,506,l),
(507,506,l),
(366,-200,l)
);
},
{
closed = 1;
nodes = (
(266,7,o),
(298,18,o),
(333,47,cs),
(372,79,o),
(413,135,o),
(426,204,cs),
(454,346,ls),
(459,369,o),
(457,392,o),
(449,415,cs),
(433,462,o),
(389,499,o),
(309,499,cs),
(194,499,o),
(121,414,o),
(94,282,cs),
(87,247,ls),
(83,226,o),
(81,204,o),
(81,176,cs),
(81,145,o),
(86,117,o),
(96,92,cs),
(116,40,o),
(158,7,o),
(223,7,cs)
);
}
);
width = 560;
}
);
leftKerningGroup = c2;
rightKerningGroup = q;
unicode = 113;
},
{
glyphname = r;
layers = (
{
anchors = (
{
name = b.uni0327;
position = "{83, 0}";
},
{
name = t.uni0303;
position = "{254, 540}";
}
);
layerId = "0B7F572C-A94B-4AEA-9B1F-F41A56A498B5";
shapes = (
{
closed = 1;
nodes = (
(168,0,l),
(7,0,l),
(112,528,l),
(273,528,l),
(246,388,l),
(253,388,l),
(260,408,o),
(270,429,o),
(285,450,cs),
(314,493,o),
(359,528,o),
(411,528,cs),
(434,528,l),
(401,373,l),
(367,373,ls),
(338,373,o),
(314,370,o),
(295,365,cs),
(255,354,o),
(233,326,o),
(220,266,c)
);
}
);
width = 404;
},
{
anchors = (
{
name = b.uni0327;
position = "{83, 0}";
},
{
name = t.uni0303;
position = "{254, 540}";
}
);
layerId = "1D0433F9-D608-41FF-8548-FFD7049742EF";
shapes = (
{
closed = 1;
nodes = (
(154,0,l),
(14,0,l),
(119,525,l),
(259,525,l),
(233,394,l),
(240,394,l),
(247,413,o),
(258,433,o),
(273,453,cs),
(301,493,o),
(344,525,o),
(397,525,cs),
(422,525,l),
(394,389,l),
(359,389,ls),
(330,389,o),
(305,386,o),
(285,379,cs),
(244,365,o),
(221,333,o),
(209,276,cs)
);
}
);
width = 394;
},
{
anchors = (
{
name = b.uni0327;
position = "{83, 0}";
},
{
name = t.uni0303;
position = "{254, 540}";
}
);
layerId = "AA599D58-A149-49FA-A2EA-5B415EA8A4DA";
shapes = (
{
closed = 1;
nodes = (
(113,0,l),
(36,0,l),
(140,516,l),
(217,516,l),
(195,413,l),
(200,413,l),
(209,430,o),
(221,447,o),
(234,463,cs),
(261,494,o),
(299,516,o),
(355,516,cs),
(387,516,l),
(372,437,l),
(336,437,ls),
(305,437,o),
(278,431,o),
(256,419,cs),
(211,395,o),
(184,354,o),
(175,307,cs)
);
}
);
width = 364;
},
{
anchors = (
{
name = b.uni0327;
position = "{73, 0}";
},
{
name = t.uni0303;
position = "{259, 540}";
}
);
layerId = "6F034211-0C67-4D44-818B-30BEF4D1BE0C";
shapes = (
{
closed = 1;
nodes = (
(74,0,l),
(53,0,l),
(154,506,l),
(175,506,l),
(152,392,l),
(155,392,l),
(166,414,o),
(180,434,o),
(195,451,cs),
(225,486,o),
(267,506,o),
(328,506,cs),
(358,506,l),
(354,487,l),
(325,487,ls),
(292,487,o),
(263,478,o),
(236,461,cs),
(183,426,o),
(147,365,o),
(132,293,cs)
);
}
);
width = 338;
}
);
leftKerningGroup = m;
rightKerningGroup = r;
unicode = 114;
},
{
glyphname = s;
layers = (
{
layerId = "0B7F572C-A94B-4AEA-9B1F-F41A56A498B5";
shapes = (
{
closed = 1;
nodes = (
(136,-12,o),
(63,17,o),
(5,81,c),
(98,176,l),
(138,134,o),
(183,112,o),
(234,112,c),
(249,111,o),
(303,114,o),
(303,147,cs),
(303,164,o),
(298,179,o),
(264,190,cs),
(208,209,ls),
(104,246,o),
(61,295,o),
(60,364,cs),
(60,467,o),
(136,539,o),
(268,539,cs),
(382,539,o),
(431,511,o),
(488,457,c),
(396,362,l),
(357,398,o),
(318,415,o),
(278,415,cs),
(238,415,o),
(217,404,o),
(217,377,cs),
(217,359,o),
(229,348,o),
(254,338,c),
(296,323,ls),
(409,281,o),
(458,236,o),
(461,166,cs),
(464,65,o),
(367,-12,o),
(229,-12,cs)
);
}
);
width = 507;
},
{
layerId = "1D0433F9-D608-41FF-8548-FFD7049742EF";
shapes = (
{
closed = 1;
nodes = (
(135,-12,o),
(63,18,o),
(7,83,c),
(91,166,l),
(131,121,o),
(178,98,o),
(231,98,cs),
(260,98,o),
(310,107,o),
(310,144,cs),
(310,168,o),
(297,185,o),
(262,197,cs),
(210,215,ls),
(116,248,o),
(65,296,o),
(65,367,cs),
(65,471,o),
(144,536,o),
(267,536,cs),
(371,536,o),
(423,508,o),
(477,454,c),
(395,371,l),
(358,408,o),
(318,426,o),
(273,426,cs),
(226,426,o),
(202,410,o),
(202,378,cs),
(202,356,o),
(218,341,o),
(251,329,cs),
(292,314,ls),
(394,277,o),
(446,234,o),
(448,161,cs),
(450,61,o),
(359,-12,o),
(226,-12,cs)
);
}
);
width = 502;
},
{
layerId = "AA599D58-A149-49FA-A2EA-5B415EA8A4DA";
shapes = (
{
closed = 1;
nodes = (
(132,-12,o),
(64,22,o),
(13,89,c),
(70,135,l),
(111,82,o),
(162,56,o),
(223,56,c),
(294,59,o),
(330,86,o),
(330,135,cs),
(330,181,o),
(295,202,o),
(256,218,c),
(217,232,ls),
(152,255,o),
(78,300,o),
(79,377,cs),
(80,484,o),
(167,528,o),
(264,528,cs),
(339,528,o),
(399,500,o),
(444,445,c),
(391,397,l),
(362,439,o),
(318,460,o),
(258,460,cs),
(191,460,o),
(157,429,o),
(157,380,cs),
(157,348,o),
(184,320,o),
(241,301,cs),
(279,288,ls),
(348,265,o),
(409,227,o),
(409,146,cs),
(408,50,o),
(336,-12,o),
(217,-12,cs)
);
}
);
width = 487;
},
{
layerId = "6F034211-0C67-4D44-818B-30BEF4D1BE0C";
shapes = (
{
closed = 1;
nodes = (
(129,-12,o),
(70,14,o),
(23,81,c),
(41,93,l),
(79,36,o),
(135,7,o),
(210,7,c),
(298,9,o),
(356,39,o),
(356,131,cs),
(356,180,o),
(321,216,o),
(251,241,cs),
(209,257,l),
(130,284,o),
(91,327,o),
(91,385,cs),
(91,480,o),
(166,518,o),
(252,518,cs),
(325,518,o),
(380,494,o),
(419,445,c),
(403,431,l),
(372,467,o),
(333,499,o),
(253,499,cs),
(169,499,o),
(113,464,o),
(113,383,cs),
(113,337,o),
(148,301,o),
(217,276,cs),
(259,260,l),
(338,233,o),
(378,190,o),
(378,131,cs),
(378,35,o),
(314,-12,o),
(210,-12,cs)
);
}
);
width = 462;
}
);
leftKerningGroup = s2;
rightKerningGroup = s;
unicode = 115;
},
{
glyphname = t;
layers = (
{
anchors = (
{
name = b.uni0327;
position = "{150, 0}";
},
{
name = t.uni0315;
position = "{381, 791}";
}
);
layerId = "0B7F572C-A94B-4AEA-9B1F-F41A56A498B5";
shapes = (
{
closed = 1;
nodes = (
(283,0,l),
(197,0,ls),
(105,0,o),
(57,36,o),
(57,111,cs),
(57,123,o),
(58,144,o),
(61,160,cs),
(109,401,l),
(35,401,l),
(60,528,l),
(95,528,ls),
(140,528,o),
(150,546,o),
(157,582,cs),
(174,670,l),
(324,670,l),
(296,528,l),
(400,528,l),
(373,401,l),
(270,401,l),
(215,127,l),
(308,127,l)
);
}
);
width = 365;
},
{
anchors = (
{
name = b.uni0327;
position = "{150, 0}";
},
{
name = t.uni0315;
position = "{381, 791}";
}
);
layerId = "1D0433F9-D608-41FF-8548-FFD7049742EF";
shapes = (
{
closed = 1;
nodes = (
(270,0,l),
(182,0,ls),
(101,0,o),
(59,34,o),
(59,99,cs),
(59,110,o),
(60,127,o),
(63,142,cs),
(117,413,l),
(43,413,l),
(65,525,l),
(101,525,ls),
(144,525,o),
(153,542,o),
(160,578,cs),
(178,667,l),
(308,667,l),
(280,525,l),
(385,525,l),
(362,413,l),
(257,413,l),
(197,112,l),
(292,112,l)
);
}
);
width = 354;
},
{
anchors = (
{
name = b.uni0327;
position = "{150, 0}";
},
{
name = t.uni0315;
position = "{381, 791}";
}
);
layerId = "AA599D58-A149-49FA-A2EA-5B415EA8A4DA";
shapes = (
{
closed = 1;
nodes = (
(230,0,l),
(137,0,ls),
(86,0,o),
(66,26,o),
(66,63,cs),
(66,70,o),
(68,78,o),
(69,87,c),
(142,448,l),
(66,448,l),
(79,516,l),
(118,516,ls),
(155,516,o),
(163,529,o),
(170,565,cs),
(189,659,l),
(260,659,l),
(232,516,l),
(341,516,l),
(328,448,l),
(219,448,l),
(142,68,l),
(243,68,l)
);
}
);
width = 320;
},
{
anchors = (
{
name = b.uni0327;
position = "{146, 0}";
},
{
name = t.uni0315;
position = "{364, 780}";
}
);
layerId = "6F034211-0C67-4D44-818B-30BEF4D1BE0C";
shapes = (
{
closed = 1;
nodes = (
(206,0,l),
(100,0,ls),
(85,0,o),
(77,6,o),
(77,19,cs),
(77,26,o),
(78,30,o),
(79,35,cs),
(169,487,l),
(74,487,l),
(78,506,l),
(150,506,ls),
(169,506,o),
(175,514,o),
(178,531,cs),
(202,650,l),
(223,650,l),
(194,506,l),
(315,506,l),
(311,487,l),
(190,487,l),
(97,19,l),
(210,19,l)
);
}
);
width = 302;
}
);
leftKerningGroup = t2;
rightKerningGroup = t;
unicode = 116;
},
{
glyphname = u;
layers = (
{
anchors = (
{
name = b.uni0327;
position = "{250, 0}";
},
{
name = b.uni0328;
position = "{514, 0}";
},
{
name = t.uni0303;
position = "{336, 540}";
}
);
layerId = "0B7F572C-A94B-4AEA-9B1F-F41A56A498B5";
shapes = (
{
closed = 1;
nodes = (
(107,528,l),
(268,528,l),
(207,218,ls),
(203,199,o),
(199,181,o),
(199,165,cs),
(199,140,o),
(212,121,o),
(239,121,cs),
(274,121,o),
(299,143,o),
(320,171,cs),
(337,195,o),
(353,224,o),
(361,264,cs),
(414,528,l),
(575,528,l),
(494,127,l),
(549,127,l),
(524,0,l),
(423,0,ls),
(372,0,o),
(328,29,o),
(328,82,cs),
(328,94,o),
(330,109,o),
(330,112,c),
(334,129,l),
(327,129,l),
(288,46,o),
(237,-12,o),
(154,-12,cs),
(78,-12,o),
(32,38,o),
(32,122,cs),
(32,151,o),
(37,173,o),
(42,201,cs)
);
}
);
width = 589;
},
{
anchors = (
{
name = b.uni0327;
position = "{250, 0}";
},
{
name = b.uni0328;
position = "{514, 0}";
},
{
name = t.uni0303;
position = "{336, 540}";
}
);
layerId = "1D0433F9-D608-41FF-8548-FFD7049742EF";
shapes = (
{
closed = 1;
nodes = (
(114,525,l),
(254,525,l),
(192,213,ls),
(188,194,o),
(185,175,o),
(185,160,cs),
(185,127,o),
(201,105,o),
(234,105,cs),
(269,105,o),
(295,125,o),
(318,153,cs),
(341,181,o),
(358,215,o),
(366,255,cs),
(420,525,l),
(560,525,l),
(477,112,l),
(536,112,l),
(514,0,l),
(421,0,ls),
(372,0,o),
(333,28,o),
(333,77,cs),
(333,88,o),
(335,102,o),
(336,107,cs),
(339,122,l),
(333,122,l),
(294,41,o),
(244,-12,o),
(164,-12,cs),
(85,-12,o),
(40,39,o),
(40,124,cs),
(40,151,o),
(44,173,o),
(49,200,cs)
);
}
);
width = 582;
},
{
anchors = (
{
name = b.uni0327;
position = "{250, 0}";
},
{
name = b.uni0328;
position = "{514, 0}";
},
{
name = t.uni0303;
position = "{336, 540}";
}
);
layerId = "AA599D58-A149-49FA-A2EA-5B415EA8A4DA";
shapes = (
{
closed = 1;
nodes = (
(134,516,l),
(211,516,l),
(147,198,ls),
(143,178,o),
(142,157,o),
(142,145,cs),
(142,88,o),
(164,58,o),
(219,58,cs),
(255,58,o),
(285,71,o),
(312,99,cs),
(349,138,o),
(372,189,o),
(380,228,cs),
(438,516,l),
(515,516,l),
(425,68,l),
(498,68,l),
(485,0,l),
(415,0,ls),
(371,0,o),
(349,26,o),
(349,63,cs),
(349,70,o),
(350,79,o),
(353,92,cs),
(355,102,l),
(350,102,l),
(314,25,o),
(266,-12,o),
(195,-12,cs),
(107,-12,o),
(63,42,o),
(63,131,cs),
(63,150,o),
(65,173,o),
(70,198,cs)
);
}
);
width = 562;
},
{
anchors = (
{
name = b.uni0327;
position = "{211, 0}";
},
{
name = b.uni0328;
position = "{501, 0}";
},
{
name = t.uni0303;
position = "{329, 540}";
}
);
layerId = "6F034211-0C67-4D44-818B-30BEF4D1BE0C";
shapes = (
{
closed = 1;
nodes = (
(145,506,l),
(166,506,l),
(102,186,ls),
(98,165,o),
(95,136,o),
(95,123,cs),
(95,46,o),
(134,7,o),
(209,7,cs),
(254,7,o),
(302,22,o),
(342,69,cs),
(365,96,o),
(393,134,o),
(405,194,cs),
(467,506,l),
(488,506,l),
(391,19,l),
(476,19,l),
(472,0,l),
(394,0,ls),
(379,0,o),
(371,6,o),
(371,19,cs),
(371,26,o),
(372,30,o),
(373,35,cs),
(387,105,l),
(384,105,l),
(344,29,o),
(289,-12,o),
(206,-12,cs),
(121,-12,o),
(74,37,o),
(74,120,cs),
(74,140,o),
(77,165,o),
(81,185,cs)
);
}
);
width = 548;
}
);
leftKerningGroup = u;
rightKerningGroup = a;
unicode = 117;
},
{
glyphname = v;
layers = (
{
anchors = (
{
name = b.uni0327;
position = "{195, 0}";
},
{
name = t.uni0303;
position = "{302, 540}";
}
);
layerId = "0B7F572C-A94B-4AEA-9B1F-F41A56A498B5";
shapes = (
{
closed = 1;
nodes = (
(296,0,l),
(99,0,l),
(39,528,l),
(199,528,l),
(209,349,l),
(222,142,l),
(230,142,l),
(316,349,l),
(394,528,l),
(566,528,l)
);
}
);
width = 521;
},
{
anchors = (
{
name = b.uni0327;
position = "{195, 0}";
},
{
name = t.uni0303;
position = "{302, 540}";
}
);
layerId = "1D0433F9-D608-41FF-8548-FFD7049742EF";
shapes = (
{
closed = 1;
nodes = (
(281,0,l),
(111,0,l),
(46,525,l),
(185,525,l),
(202,327,l),
(217,125,l),
(224,125,l),
(312,327,l),
(405,525,l),
(554,525,l)
);
}
);
width = 512;
},
{
anchors = (
{
name = b.uni0327;
position = "{195, 0}";
},
{
name = t.uni0303;
position = "{302, 540}";
}
);
layerId = "AA599D58-A149-49FA-A2EA-5B415EA8A4DA";
shapes = (
{
closed = 1;
nodes = (
(237,0,l),
(146,0,l),
(67,516,l),
(142,516,l),
(180,261,l),
(201,73,l),
(206,73,l),
(299,261,l),
(437,516,l),
(519,516,l)
);
}
);
width = 484;
},
{
anchors = (
{
name = b.uni0327;
position = "{181, 0}";
},
{
name = t.uni0303;
position = "{291, 540}";
}
);
layerId = "6F034211-0C67-4D44-818B-30BEF4D1BE0C";
shapes = (
{
closed = 1;
nodes = (
(189,0,l),
(163,0,l),
(73,506,l),
(93,506,l),
(139,243,l),
(178,24,l),
(181,24,l),
(306,243,l),
(454,506,l),
(477,506,l)
);
}
);
width = 460;
}
);
unicode = 118;
},
{
glyphname = w;
layers = (
{
anchors = (
{
name = b.uni0327;
position = "{339, 0}";
},
{
name = t.uni0303;
position = "{440, 540}";
}
);
layerId = "0B7F572C-A94B-4AEA-9B1F-F41A56A498B5";
shapes = (
{
closed = 1;
nodes = (
(90,0,l),
(46,528,l),
(207,528,l),
(213,358,l),
(215,185,l),
(222,185,l),
(282,331,l),
(370,528,l),
(518,528,l),
(530,361,l),
(540,174,l),
(547,174,l),
(604,328,l),
(685,528,l),
(844,528,l),
(602,0,l),
(437,0,l),
(426,140,l),
(411,328,l),
(404,328,l),
(333,171,l),
(256,0,l)
);
}
);
width = 808;
},
{
anchors = (
{
name = b.uni0327;
position = "{339, 0}";
},
{
name = t.uni0303;
position = "{440, 540}";
}
);
layerId = "1D0433F9-D608-41FF-8548-FFD7049742EF";
shapes = (
{
closed = 1;
nodes = (
(94,0,l),
(54,525,l),
(193,525,l),
(200,335,l),
(203,157,l),
(209,157,l),
(274,309,l),
(372,525,l),
(502,525,l),
(516,335,l),
(527,150,l),
(533,150,l),
(595,309,l),
(685,525,l),
(823,525,l),
(583,0,l),
(436,0,l),
(421,175,l),
(408,349,l),
(402,349,l),
(334,198,l),
(243,0,l)
);
}
);
width = 791;
},
{
anchors = (
{
name = b.uni0327;
position = "{339, 0}";
},
{
name = t.uni0303;
position = "{440, 540}";
}
);
layerId = "AA599D58-A149-49FA-A2EA-5B415EA8A4DA";
shapes = (
{
closed = 1;
nodes = (
(105,0,l),
(77,516,l),
(151,516,l),
(160,265,l),
(166,74,l),
(171,74,l),
(250,243,l),
(378,516,l),
(453,516,l),
(475,256,l),
(487,78,l),
(492,78,l),
(568,252,l),
(685,516,l),
(760,516,l),
(525,0,l),
(432,0,l),
(407,279,l),
(400,411,l),
(395,411,l),
(336,279,l),
(203,0,l)
);
}
);
width = 740;
},
{
anchors = (
{
name = b.uni0327;
position = "{326, 0}";
},
{
name = t.uni0303;
position = "{435, 540}";
}
);
layerId = "6F034211-0C67-4D44-818B-30BEF4D1BE0C";
shapes = (
{
closed = 1;
nodes = (
(130,0,l),
(78,506,l),
(98,506,l),
(130,189,l),
(146,27,l),
(149,27,l),
(232,189,l),
(394,506,l),
(416,506,l),
(450,189,l),
(467,27,l),
(469,27,l),
(551,189,l),
(710,506,l),
(732,506,l),
(476,0,l),
(450,0,l),
(423,263,l),
(401,472,l),
(398,472,l),
(291,263,l),
(156,0,l)
);
}
);
width = 718;
}
);
leftKerningGroup = w2;
rightKerningGroup = w;
unicode = 119;
},
{
glyphname = x;
layers = (
{
anchors = (
{
name = b.uni0327;
position = "{205, 0}";
},
{
name = t.uni0303;
position = "{318, 540}";
}
);
layerId = "0B7F572C-A94B-4AEA-9B1F-F41A56A498B5";
shapes = (
{
closed = 1;
nodes = (
(116,0,l),
(-59,0,l),
(167,276,l),
(60,528,l),
(233,528,l),
(285,361,l),
(291,361,l),
(409,528,l),
(583,528,l),
(353,249,l),
(461,0,l),
(287,0,l),
(236,159,l),
(230,159,l)
);
}
);
width = 526;
},
{
anchors = (
{
name = b.uni0327;
position = "{205, 0}";
},
{
name = t.uni0303;
position = "{318, 540}";
}
);
layerId = "1D0433F9-D608-41FF-8548-FFD7049742EF";
shapes = (
{
closed = 1;
nodes = (
(102,0,l),
(-51,0,l),
(177,274,l),
(65,525,l),
(216,525,l),
(278,350,l),
(284,350,l),
(414,525,l),
(567,525,l),
(338,252,l),
(453,0,l),
(302,0,l),
(238,172,l),
(232,172,l)
);
}
);
width = 518;
},
{
anchors = (
{
name = b.uni0327;
position = "{205, 0}";
},
{
name = t.uni0303;
position = "{318, 540}";
}
);
layerId = "AA599D58-A149-49FA-A2EA-5B415EA8A4DA";
shapes = (
{
closed = 1;
nodes = (
(60,0,l),
(-28,0,l),
(206,267,l),
(80,516,l),
(164,516,l),
(257,318,l),
(262,318,l),
(430,516,l),
(518,516,l),
(294,260,l),
(430,0,l),
(346,0,l),
(243,210,l),
(238,210,l)
);
}
);
width = 494;
},
{
anchors = (
{
name = b.uni0327;
position = "{197, 0}";
},
{
name = t.uni0303;
position = "{307, 540}";
}
);
layerId = "6F034211-0C67-4D44-818B-30BEF4D1BE0C";
shapes = (
{
closed = 1;
nodes = (
(23,0,l),
(-4,0,l),
(221,257,l),
(88,506,l),
(110,506,l),
(237,271,l),
(240,271,l),
(446,506,l),
(473,506,l),
(249,253,l),
(381,0,l),
(359,0,l),
(233,239,l),
(230,239,l)
);
}
);
width = 473;
}
);
unicode = 120;
},
{
glyphname = y;
layers = (
{
anchors = (
{
name = b.uni0327;
position = "{358, 0}";
},
{
name = t.uni0303;
position = "{286, 540}";
}
);
layerId = "0B7F572C-A94B-4AEA-9B1F-F41A56A498B5";
shapes = (
{
closed = 1;
nodes = (
(319,349,l),
(398,528,l),
(569,528,l),
(256,-74,ls),
(234,-116,o),
(208,-148,o),
(178,-169,cs),
(147,-190,o),
(103,-200,o),
(45,-200,cs),
(-32,-200,l),
(-6,-73,l),
(93,-73,l),
(109,-35,l),
(37,528,l),
(198,528,l),
(212,349,l),
(226,150,l),
(232,150,l)
);
}
);
width = 517;
},
{
anchors = (
{
name = b.uni0327;
position = "{358, 0}";
},
{
name = t.uni0303;
position = "{286, 540}";
}
);
layerId = "1D0433F9-D608-41FF-8548-FFD7049742EF";
shapes = (
{
closed = 1;
nodes = (
(314,327,l),
(408,525,l),
(557,525,l),
(235,-85,ls),
(214,-124,o),
(191,-153,o),
(164,-172,cs),
(137,-191,o),
(99,-200,o),
(49,-200,cs),
(-29,-200,l),
(-6,-88,l),
(91,-88,l),
(119,-30,l),
(45,525,l),
(184,525,l),
(204,327,l),
(220,131,l),
(226,131,l)
);
}
);
width = 509;
},
{
anchors = (
{
name = b.uni0327;
position = "{358, 0}";
},
{
name = t.uni0303;
position = "{286, 540}";
}
);
layerId = "AA599D58-A149-49FA-A2EA-5B415EA8A4DA";
shapes = (
{
closed = 1;
nodes = (
(300,261,l),
(438,516,l),
(520,516,l),
(171,-117,ls),
(154,-147,o),
(138,-168,o),
(123,-181,cs),
(107,-194,o),
(86,-200,o),
(60,-200,cs),
(-20,-200,l),
(-7,-134,l),
(86,-134,l),
(150,-16,l),
(68,516,l),
(143,516,l),
(181,261,l),
(202,73,l),
(207,73,l)
);
}
);
width = 484;
},
{
anchors = (
{
name = b.uni0327;
position = "{333, 0}";
},
{
name = t.uni0303;
position = "{267, 540}";
}
);
layerId = "6F034211-0C67-4D44-818B-30BEF4D1BE0C";
shapes = (
{
closed = 1;
nodes = (
(305,243,l),
(454,506,l),
(477,506,l),
(89,-175,ls),
(84,-184,o),
(78,-191,o),
(73,-195,cs),
(68,-198,o),
(60,-200,o),
(51,-200,cs),
(-24,-200,l),
(-20,-181,l),
(64,-181,l),
(164,-3,l),
(73,506,l),
(93,506,l),
(139,243,l),
(178,24,l),
(181,24,l)
);
}
);
width = 460;
}
);
leftKerningGroup = y2;
rightKerningGroup = y;
unicode = 121;
},
{
glyphname = z;
layers = (
{
anchors = (
{
name = b.uni0327;
position = "{197, 0}";
},
{
name = t.uni0303;
position = "{299, 540}";
}
);
layerId = "0B7F572C-A94B-4AEA-9B1F-F41A56A498B5";
shapes = (
{
closed = 1;
nodes = (
(429,0,l),
(-13,0,l),
(12,127,l),
(306,401,l),
(73,401,l),
(98,528,l),
(524,528,l),
(499,401,l),
(204,127,l),
(454,127,l)
);
}
);
width = 507;
},
{
anchors = (
{
name = b.uni0327;
position = "{197, 0}";
},
{
name = t.uni0303;
position = "{299, 540}";
}
);
layerId = "1D0433F9-D608-41FF-8548-FFD7049742EF";
shapes = (
{
closed = 1;
nodes = (
(414,0,l),
(-11,0,l),
(11,112,l),
(317,413,l),
(76,413,l),
(98,525,l),
(507,525,l),
(485,413,l),
(178,112,l),
(436,112,l)
);
}
);
width = 492;
},
{
anchors = (
{
name = b.uni0327;
position = "{197, 0}";
},
{
name = t.uni0303;
position = "{299, 540}";
}
);
layerId = "AA599D58-A149-49FA-A2EA-5B415EA8A4DA";
shapes = (
{
closed = 1;
nodes = (
(368,0,l),
(-5,0,l),
(8,66,l),
(351,448,l),
(85,448,l),
(98,516,l),
(457,516,l),
(444,450,l),
(101,68,l),
(381,68,l)
);
}
);
width = 448;
},
{
anchors = (
{
name = b.uni0327;
position = "{194, 0}";
},
{
name = t.uni0303;
position = "{281, 540}";
}
);
layerId = "6F034211-0C67-4D44-818B-30BEF4D1BE0C";
shapes = (
{
closed = 1;
nodes = (
(346,0,l),
(-1,0,l),
(3,20,l),
(402,487,l),
(92,487,l),
(96,506,l),
(430,506,l),
(426,486,l),
(28,19,l),
(350,19,l)
);
}
);
width = 430;
}
);
leftKerningGroup = z2;
rightKerningGroup = z;
unicode = 122;
},
{
glyphname = A;
layers = (
{
anchors = (
{
name = b.uni0327;
position = "{283, 0}";
},
{
name = b.uni0328;
position = "{588, 0}";
},
{
name = t.uni0303;
position = "{411, 698}";
}
);
layerId = "0B7F572C-A94B-4AEA-9B1F-F41A56A498B5";
shapes = (
{
closed = 1;
nodes = (
(602,0,l),
(433,0,l),
(421,158,l),
(214,158,l),
(140,0,l),
(-38,0,l),
(317,698,l),
(528,698,l)
);
},
{
closed = 1;
nodes = (
(410,295,l),
(405,423,l),
(396,549,l),
(387,549,l),
(332,423,l),
(277,295,l)
);
}
);
width = 670;
},
{
anchors = (
{
name = b.uni0327;
position = "{283, 0}";
},
{
name = b.uni0328;
position = "{588, 0}";
},
{
name = t.uni0303;
position = "{411, 698}";
}
);
layerId = "1D0433F9-D608-41FF-8548-FFD7049742EF";
shapes = (
{
closed = 1;
nodes = (
(588,0,l),
(441,0,l),
(425,170,l),
(202,170,l),
(120,0,l),
(-35,0,l),
(324,698,l),
(509,698,l)
);
},
{
closed = 1;
nodes = (
(415,291,l),
(403,451,l),
(394,567,l),
(386,567,l),
(333,451,l),
(259,291,l)
);
}
);
width = 658;
},
{
anchors = (
{
name = b.uni0327;
position = "{283, 0}";
},
{
name = b.uni0328;
position = "{588, 0}";
},
{
name = t.uni0303;
position = "{411, 698}";
}
);
layerId = "AA599D58-A149-49FA-A2EA-5B415EA8A4DA";
shapes = (
{
closed = 1;
nodes = (
(547,0,l),
(464,0,l),
(438,206,l),
(167,206,l),
(59,0,l),
(-27,0,l),
(346,698,l),
(453,698,l)
);
},
{
closed = 1;
nodes = (
(430,278,l),
(398,536,l),
(387,621,l),
(382,621,l),
(337,534,l),
(204,278,l)
);
}
);
width = 623;
},
{
anchors = (
{
name = b.uni0327;
position = "{273, 0}";
},
{
name = b.uni0328;
position = "{560, 0}";
},
{
name = t.uni0303;
position = "{385, 698}";
}
);
layerId = "6F034211-0C67-4D44-818B-30BEF4D1BE0C";
shapes = (
{
closed = 1;
nodes = (
(519,0,l),
(497,0,l),
(452,234,l),
(134,234,l),
(12,0,l),
(-12,0,l),
(354,698,l),
(384,698,l)
);
},
{
closed = 1;
nodes = (
(448,253,l),
(394,534,l),
(367,673,l),
(364,673,l),
(291,534,l),
(144,253,l)
);
}
);
width = 594;
}
);
leftKerningGroup = A2;
rightKerningGroup = A;
unicode = 65;
},
{
glyphname = B;
layers = (
{
anchors = (
{
name = b.uni0327;
position = "{246, 0}";
},
{
name = t.uni0303;
position = "{386, 698}";
}
);
layerId = "0B7F572C-A94B-4AEA-9B1F-F41A56A498B5";
shapes = (
{
closed = 1;
nodes = (
(16,0,l),
(156,698,l),
(468,698,ls),
(518,698,o),
(560,687,o),
(594,665,cs),
(627,643,o),
(644,607,o),
(644,557,cs),
(644,526,o),
(639,497,o),
(630,471,cs),
(610,418,o),
(571,379,o),
(510,360,c),
(509,355,l),
(586,334,o),
(614,280,o),
(614,217,cs),
(614,172,o),
(605,134,o),
(588,102,cs),
(553,37,o),
(482,0,o),
(369,0,cs)
);
},
{
closed = 1;
nodes = (
(213,141,l),
(369,141,ls),
(409,141,o),
(427,155,o),
(435,191,cs),
(442,226,o),
(444,238,o),
(444,247,cs),
(444,256,o),
(441,264,o),
(436,271,c),
(430,277,o),
(420,280,o),
(405,280,cs),
(240,280,l)
);
},
{
closed = 1;
nodes = (
(267,415,l),
(399,415,ls),
(436,415,o),
(455,428,o),
(463,465,cs),
(470,501,o),
(473,511,o),
(473,520,cs),
(473,541,o),
(461,557,o),
(430,557,cs),
(296,557,l)
);
}
);
width = 659;
},
{
anchors = (
{
name = b.uni0327;
position = "{246, 0}";
},
{
name = t.uni0303;
position = "{386, 698}";
}
);
layerId = "1D0433F9-D608-41FF-8548-FFD7049742EF";
shapes = (
{
closed = 1;
nodes = (
(22,0,l),
(162,698,l),
(460,698,ls),
(511,698,o),
(552,686,o),
(585,663,cs),
(618,640,o),
(634,604,o),
(634,555,cs),
(634,524,o),
(629,496,o),
(619,470,cs),
(599,418,o),
(559,379,o),
(498,362,c),
(497,357,l),
(570,337,o),
(601,287,o),
(601,222,cs),
(601,178,o),
(592,139,o),
(574,106,cs),
(538,39,o),
(467,0,o),
(360,0,cs)
);
},
{
closed = 1;
nodes = (
(193,124,l),
(360,124,ls),
(407,124,o),
(434,144,o),
(443,189,cs),
(450,224,o),
(452,237,o),
(452,246,cs),
(452,259,o),
(448,270,o),
(439,279,cs),
(430,287,o),
(416,291,o),
(397,291,cs),
(226,291,l)
);
},
{
closed = 1;
nodes = (
(250,410,l),
(391,410,ls),
(438,410,o),
(465,427,o),
(474,472,cs),
(481,507,o),
(483,518,o),
(483,527,cs),
(483,555,o),
(466,574,o),
(429,574,cs),
(283,574,l)
);
}
);
width = 651;
},
{
anchors = (
{
name = b.uni0327;
position = "{246, 0}";
},
{
name = t.uni0303;
position = "{386, 698}";
}
);
layerId = "AA599D58-A149-49FA-A2EA-5B415EA8A4DA";
shapes = (
{
closed = 1;
nodes = (
(39,0,l),
(179,698,l),
(436,698,ls),
(489,698,o),
(531,685,o),
(560,658,cs),
(589,631,o),
(603,594,o),
(603,549,cs),
(603,520,o),
(598,494,o),
(587,469,cs),
(565,419,o),
(522,382,o),
(461,367,c),
(460,362,l),
(523,347,o),
(561,310,o),
(561,238,cs),
(561,195,o),
(551,155,o),
(531,119,cs),
(491,47,o),
(420,0,o),
(333,0,cs)
);
},
{
closed = 1;
nodes = (
(134,72,l),
(332,72,ls),
(401,72,o),
(452,109,o),
(467,184,cs),
(474,219,o),
(476,233,o),
(476,242,cs),
(476,268,o),
(467,288,o),
(450,303,cs),
(433,317,o),
(407,324,o),
(374,324,cs),
(184,324,l)
);
},
{
closed = 1;
nodes = (
(198,394,l),
(367,394,ls),
(442,394,o),
(494,425,o),
(507,494,c),
(514,525,o),
(514,540,o),
(514,549,cs),
(514,597,o),
(484,626,o),
(425,626,cs),
(244,626,l)
);
}
);
width = 627;
},
{
anchors = (
{
name = b.uni0327;
position = "{227, 0}";
},
{
name = t.uni0303;
position = "{344, 698}";
}
);
layerId = "6F034211-0C67-4D44-818B-30BEF4D1BE0C";
shapes = (
{
closed = 1;
nodes = (
(55,0,l),
(193,698,l),
(414,698,ls),
(462,698,o),
(499,686,o),
(525,663,cs),
(551,639,o),
(564,605,o),
(564,561,cs),
(564,534,o),
(560,507,o),
(553,480,c),
(537,427,o),
(500,385,o),
(429,370,c),
(429,367,l),
(496,352,o),
(531,295,o),
(531,228,cs),
(531,180,o),
(523,139,o),
(506,105,cs),
(472,37,o),
(408,0,o),
(321,0,cs)
);
},
{
closed = 1;
nodes = (
(81,20,l),
(323,20,ls),
(426,20,o),
(484,79,o),
(500,159,cs),
(508,198,o),
(509,217,o),
(509,228,cs),
(509,263,o),
(499,294,o),
(478,320,cs),
(457,345,o),
(423,358,o),
(377,358,cs),
(148,358,l)
);
},
{
closed = 1;
nodes = (
(152,378,l),
(367,378,ls),
(462,378,o),
(520,422,o),
(533,495,cs),
(541,538,o),
(542,551,o),
(542,562,cs),
(542,633,o),
(505,678,o),
(413,678,cs),
(211,678,l)
);
}
);
width = 606;
}
);
unicode = 66;
},
{
glyphname = C;
layers = (
{
anchors = (
{
name = b.uni0327;
position = "{290, 0}";
},
{
name = t.uni0303;
position = "{419, 698}";
}
);
layerId = "0B7F572C-A94B-4AEA-9B1F-F41A56A498B5";
shapes = (
{
closed = 1;
nodes = (
(260,-12,o),
(216,-1,o),
(178,20,cs),
(102,63,o),
(58,147,o),
(58,274,cs),
(58,307,o),
(61,339,o),
(66,370,c),
(85,469,o),
(128,554,o),
(192,615,cs),
(255,675,o),
(335,710,o),
(423,710,cs),
(551,710,o),
(630,643,o),
(663,536,c),
(515,475,l),
(509,498,o),
(499,518,o),
(485,536,cs),
(471,553,o),
(446,562,o),
(411,562,cs),
(382,562,o),
(357,555,o),
(336,542,cs),
(294,514,o),
(266,464,o),
(253,399,cs),
(231,291,l),
(228,272,o),
(227,257,o),
(227,246,cs),
(227,207,o),
(235,179,o),
(251,162,cs),
(267,145,o),
(292,136,o),
(327,136,cs),
(363,136,o),
(392,145,o),
(415,163,cs),
(437,181,o),
(454,204,o),
(467,231,c),
(606,169,l),
(545,46,o),
(432,-12,o),
(311,-12,cs)
);
}
);
width = 646;
},
{
anchors = (
{
name = b.uni0327;
position = "{290, 0}";
},
{
name = t.uni0303;
position = "{419, 698}";
}
);
layerId = "1D0433F9-D608-41FF-8548-FFD7049742EF";
shapes = (
{
closed = 1;
nodes = (
(257,-12,o),
(213,-1,o),
(176,20,cs),
(101,63,o),
(57,147,o),
(57,272,cs),
(57,309,o),
(60,345,o),
(67,378,cs),
(86,474,o),
(129,557,o),
(190,617,cs),
(251,676,o),
(328,710,o),
(415,710,cs),
(539,710,o),
(618,647,o),
(651,540,c),
(522,486,l),
(514,513,o),
(502,535,o),
(485,554,cs),
(468,572,o),
(441,581,o),
(404,581,cs),
(373,581,o),
(346,574,o),
(323,559,cs),
(276,530,o),
(246,477,o),
(231,406,cs),
(209,296,ls),
(205,276,o),
(204,259,o),
(204,246,cs),
(204,203,o),
(214,171,o),
(233,150,cs),
(252,128,o),
(280,117,o),
(319,117,cs),
(358,117,o),
(390,127,o),
(414,146,cs),
(437,165,o),
(457,190,o),
(472,221,c),
(593,166,l),
(532,45,o),
(427,-12,o),
(306,-12,cs)
);
}
);
width = 635;
},
{
anchors = (
{
name = b.uni0327;
position = "{290, 0}";
},
{
name = t.uni0303;
position = "{419, 698}";
}
);
layerId = "AA599D58-A149-49FA-A2EA-5B415EA8A4DA";
shapes = (
{
closed = 1;
nodes = (
(245,-12,o),
(204,-1,o),
(169,20,cs),
(98,63,o),
(55,146,o),
(55,266,cs),
(55,314,o),
(61,360,o),
(70,403,cs),
(90,491,o),
(129,567,o),
(185,623,cs),
(240,678,o),
(310,710,o),
(391,710,cs),
(504,710,o),
(582,659,o),
(615,551,c),
(542,518,l),
(529,557,o),
(511,587,o),
(486,607,cs),
(461,627,o),
(426,637,o),
(383,637,cs),
(348,637,o),
(315,628,o),
(285,611,cs),
(225,576,o),
(182,512,o),
(165,427,cs),
(142,312,ls),
(137,287,o),
(136,266,o),
(136,246,cs),
(136,191,o),
(150,147,o),
(178,113,cs),
(206,78,o),
(245,61,o),
(295,61,cs),
(344,61,o),
(382,73,o),
(411,96,cs),
(439,119,o),
(464,150,o),
(487,191,c),
(555,157,l),
(494,41,o),
(414,-12,o),
(290,-12,cs)
);
}
);
width = 602;
},
{
anchors = (
{
name = b.uni0327;
position = "{301, 0}";
},
{
name = t.uni0303;
position = "{425, 698}";
}
);
layerId = "6F034211-0C67-4D44-818B-30BEF4D1BE0C";
shapes = (
{
closed = 1;
nodes = (
(247,-12,o),
(208,-3,o),
(175,15,cs),
(108,50,o),
(69,120,o),
(69,220,cs),
(69,263,o),
(73,310,o),
(82,358,cs),
(98,445,o),
(131,531,o),
(182,599,cs),
(233,667,o),
(305,710,o),
(398,710,cs),
(510,710,o),
(568,656,o),
(589,569,c),
(568,564,l),
(557,602,o),
(539,633,o),
(514,656,cs),
(488,679,o),
(449,690,o),
(397,690,cs),
(350,690,o),
(307,678,o),
(269,653,cs),
(192,603,o),
(137,508,o),
(112,384,cs),
(101,329,ls),
(93,288,o),
(91,248,o),
(91,220,cs),
(91,155,o),
(108,104,o),
(143,66,c),
(177,27,o),
(226,8,o),
(291,8,cs),
(338,8,o),
(378,20,o),
(411,44,cs),
(444,67,o),
(473,103,o),
(500,151,c),
(519,141,l),
(458,32,o),
(388,-12,o),
(291,-12,cs)
);
}
);
width = 595;
}
);
leftKerningGroup = C2;
rightKerningGroup = C;
unicode = 67;
},
{
glyphname = D;
layers = (
{
anchors = (
{
name = b.uni0327;
position = "{253, 0}";
},
{
name = t.uni0303;
position = "{393, 698}";
}
);
layerId = "0B7F572C-A94B-4AEA-9B1F-F41A56A498B5";
shapes = (
{
closed = 1;
nodes = (
(16,0,l),
(156,698,l),
(387,698,ls),
(444,698,o),
(493,688,o),
(535,669,cs),
(618,630,o),
(664,553,o),
(664,440,cs),
(664,395,o),
(660,350,o),
(652,310,cs),
(633,217,o),
(593,140,o),
(532,85,cs),
(471,29,o),
(392,0,o),
(292,0,cs)
);
},
{
closed = 1;
nodes = (
(212,147,l),
(308,147,ls),
(335,147,o),
(359,152,o),
(381,163,cs),
(424,184,o),
(458,229,o),
(471,298,cs),
(489,389,ls),
(494,416,o),
(496,442,o),
(496,451,cs),
(496,526,o),
(459,551,o),
(400,551,cs),
(294,551,l)
);
}
);
width = 692;
},
{
anchors = (
{
name = b.uni0327;
position = "{253, 0}";
},
{
name = t.uni0303;
position = "{393, 698}";
}
);
layerId = "1D0433F9-D608-41FF-8548-FFD7049742EF";
shapes = (
{
closed = 1;
nodes = (
(22,0,l),
(162,698,l),
(386,698,ls),
(441,698,o),
(489,688,o),
(529,669,cs),
(609,629,o),
(654,552,o),
(654,437,cs),
(654,393,o),
(650,351,o),
(642,312,cs),
(623,220,o),
(584,143,o),
(524,87,cs),
(464,31,o),
(385,0,o),
(288,0,cs)
);
},
{
closed = 1;
nodes = (
(193,128,l),
(300,128,ls),
(330,128,o),
(357,134,o),
(382,147,cs),
(430,171,o),
(466,220,o),
(481,296,cs),
(500,390,ls),
(505,415,o),
(507,440,o),
(507,452,cs),
(507,536,o),
(463,570,o),
(395,570,cs),
(282,570,l)
);
}
);
width = 682;
},
{
anchors = (
{
name = b.uni0327;
position = "{253, 0}";
},
{
name = t.uni0303;
position = "{393, 698}";
}
);
layerId = "AA599D58-A149-49FA-A2EA-5B415EA8A4DA";
shapes = (
{
closed = 1;
nodes = (
(39,0,l),
(179,698,l),
(384,698,ls),
(434,698,o),
(477,688,o),
(513,668,cs),
(584,627,o),
(623,547,o),
(623,427,cs),
(623,390,o),
(619,353,o),
(612,317,cs),
(595,232,o),
(556,153,o),
(500,94,cs),
(443,35,o),
(367,0,o),
(275,0,cs)
);
},
{
closed = 1;
nodes = (
(135,72,l),
(277,72,ls),
(317,72,o),
(353,80,o),
(385,97,cs),
(448,130,o),
(493,196,o),
(512,289,cs),
(533,394,ls),
(537,414,o),
(539,436,o),
(539,455,cs),
(539,566,o),
(477,626,o),
(380,626,cs),
(245,626,l)
);
}
);
width = 652;
},
{
anchors = (
{
name = b.uni0327;
position = "{249, 0}";
},
{
name = t.uni0303;
position = "{383, 698}";
}
);
layerId = "6F034211-0C67-4D44-818B-30BEF4D1BE0C";
shapes = (
{
closed = 1;
nodes = (
(55,0,l),
(193,698,l),
(378,698,ls),
(429,698,o),
(471,689,o),
(506,671,cs),
(574,634,o),
(610,564,o),
(610,468,cs),
(610,421,o),
(606,375,o),
(597,328,cs),
(580,240,o),
(546,159,o),
(495,98,cs),
(443,37,o),
(373,0,o),
(282,0,cs)
);
},
{
closed = 1;
nodes = (
(81,20,l),
(282,20,ls),
(335,20,o),
(380,33,o),
(419,59,cs),
(496,111,o),
(547,202,o),
(567,303,cs),
(578,358,ls),
(586,401,o),
(588,440,o),
(588,468,cs),
(588,599,o),
(519,678,o),
(375,678,cs),
(211,678,l)
);
}
);
width = 648;
}
);
rightKerningGroup = D;
unicode = 68;
},
{
glyphname = E;
layers = (
{
anchors = (
{
name = b.uni0327;
position = "{263, 0}";
},
{
name = b.uni0328;
position = "{481, 0}";
},
{
name = t.uni0303;
position = "{386, 698}";
}
);
layerId = "0B7F572C-A94B-4AEA-9B1F-F41A56A498B5";
shapes = (
{
closed = 1;
nodes = (
(486,0,l),
(16,0,l),
(156,698,l),
(618,698,l),
(588,551,l),
(294,551,l),
(268,426,l),
(527,426,l),
(497,279,l),
(239,279,l),
(212,147,l),
(516,147,l)
);
}
);
width = 582;
},
{
anchors = (
{
name = b.uni0327;
position = "{263, 0}";
},
{
name = b.uni0328;
position = "{481, 0}";
},
{
name = t.uni0303;
position = "{386, 698}";
}
);
layerId = "1D0433F9-D608-41FF-8548-FFD7049742EF";
shapes = (
{
closed = 1;
nodes = (
(481,0,l),
(22,0,l),
(162,698,l),
(611,698,l),
(585,570,l),
(282,570,l),
(251,417,l),
(519,417,l),
(493,289,l),
(225,289,l),
(193,128,l),
(507,128,l)
);
}
);
width = 578;
},
{
anchors = (
{
name = b.uni0327;
position = "{263, 0}";
},
{
name = b.uni0328;
position = "{481, 0}";
},
{
name = t.uni0303;
position = "{386, 698}";
}
);
layerId = "AA599D58-A149-49FA-A2EA-5B415EA8A4DA";
shapes = (
{
closed = 1;
nodes = (
(467,0,l),
(39,0,l),
(179,698,l),
(590,698,l),
(575,626,l),
(246,626,l),
(199,390,l),
(495,390,l),
(481,318,l),
(184,318,l),
(135,72,l),
(481,72,l)
);
}
);
width = 565;
},
{
anchors = (
{
name = b.uni0327;
position = "{258, 0}";
},
{
name = b.uni0328;
position = "{446, 0}";
},
{
name = t.uni0303;
position = "{390, 698}";
}
);
layerId = "6F034211-0C67-4D44-818B-30BEF4D1BE0C";
shapes = (
{
closed = 1;
nodes = (
(432,0,l),
(54,0,l),
(194,698,l),
(572,698,l),
(568,678,l),
(212,678,l),
(149,364,l),
(493,364,l),
(489,344,l),
(145,344,l),
(80,20,l),
(436,20,l)
);
}
);
width = 553;
}
);
rightKerningGroup = E;
unicode = 69;
},
{
glyphname = F;
layers = (
{
anchors = (
{
name = b.uni0327;
position = "{95, 0}";
},
{
name = t.uni0303;
position = "{386, 698}";
}
);
layerId = "0B7F572C-A94B-4AEA-9B1F-F41A56A498B5";
shapes = (
{
closed = 1;
nodes = (
(183,0,l),
(16,0,l),
(156,698,l),
(606,698,l),
(576,551,l),
(293,551,l),
(267,426,l),
(512,426,l),
(482,279,l),
(237,279,l)
);
}
);
width = 562;
},
{
anchors = (
{
name = b.uni0327;
position = "{95, 0}";
},
{
name = t.uni0303;
position = "{386, 698}";
}
);
layerId = "1D0433F9-D608-41FF-8548-FFD7049742EF";
shapes = (
{
closed = 1;
nodes = (
(167,0,l),
(22,0,l),
(162,698,l),
(599,698,l),
(573,570,l),
(281,570,l),
(250,417,l),
(507,417,l),
(481,289,l),
(224,289,l)
);
}
);
width = 557;
},
{
anchors = (
{
name = b.uni0327;
position = "{95, 0}";
},
{
name = t.uni0303;
position = "{386, 698}";
}
);
layerId = "AA599D58-A149-49FA-A2EA-5B415EA8A4DA";
shapes = (
{
closed = 1;
nodes = (
(120,0,l),
(39,0,l),
(179,698,l),
(579,698,l),
(564,626,l),
(246,626,l),
(199,390,l),
(491,390,l),
(477,318,l),
(184,318,l)
);
}
);
width = 542;
},
{
anchors = (
{
name = b.uni0327;
position = "{85, 0}";
},
{
name = t.uni0303;
position = "{385, 698}";
}
);
layerId = "6F034211-0C67-4D44-818B-30BEF4D1BE0C";
shapes = (
{
closed = 1;
nodes = (
(76,0,l),
(54,0,l),
(194,698,l),
(564,698,l),
(560,678,l),
(212,678,l),
(149,364,l),
(483,364,l),
(479,344,l),
(145,344,l)
);
}
);
width = 528;
}
);
unicode = 70;
},
{
glyphname = G;
layers = (
{
layerId = "0B7F572C-A94B-4AEA-9B1F-F41A56A498B5";
shapes = (
{
closed = 1;
nodes = (
(638,394,l),
(615,274,l),
(587,107,o),
(483,-12,o),
(276,-12,cs),
(123,-12,o),
(37,119,o),
(37,283,cs),
(37,508,o),
(169,710,o),
(406,710,cs),
(565,710,o),
(646,611,o),
(659,548,c),
(526,491,l),
(521,523,o),
(495,581,o),
(397,581,cs),
(296,581,o),
(241,502,o),
(222,403,cs),
(211,344,ls),
(194,256,o),
(160,115,o),
(303,115,cs),
(372,115,o),
(435,157,o),
(453,240,cs),
(458,266,l),
(316,266,l),
(342,394,l)
);
}
);
width = 642;
},
{
layerId = "1D0433F9-D608-41FF-8548-FFD7049742EF";
shapes = (
{
closed = 1;
nodes = (
(626,385,l),
(603,266,ls),
(571,88,o),
(458,-12,o),
(275,-12,cs),
(131,-12,o),
(37,107,o),
(37,279,cs),
(37,499,o),
(163,710,o),
(400,710,cs),
(546,710,o),
(627,623,o),
(645,549,c),
(527,496,l),
(519,539,o),
(486,595,o),
(390,595,cs),
(286,595,o),
(224,516,o),
(203,408,cs),
(189,336,ls),
(171,241,o),
(155,102,o),
(297,102,cs),
(374,102,o),
(441,146,o),
(460,235,cs),
(467,270,l),
(313,270,l),
(336,385,l)
);
}
);
width = 632;
},
{
layerId = "AA599D58-A149-49FA-A2EA-5B415EA8A4DA";
shapes = (
{
closed = 1;
nodes = (
(590,359,l),
(567,243,ls),
(522,32,o),
(384,-12,o),
(272,-12,cs),
(156,-12,o),
(37,71,o),
(37,267,cs),
(37,472,o),
(145,710,o),
(382,710,cs),
(489,710,o),
(571,658,o),
(604,551,c),
(530,510,l),
(514,586,o),
(459,636,o),
(369,636,cs),
(256,636,o),
(172,558,o),
(146,424,cs),
(124,311,ls),
(101,197,o),
(140,62,o),
(280,62,cs),
(380,62,o),
(460,114,o),
(481,221,cs),
(494,283,l),
(303,283,l),
(318,359,l)
);
}
);
width = 602;
},
{
layerId = "6F034211-0C67-4D44-818B-30BEF4D1BE0C";
shapes = (
{
closed = 1;
nodes = (
(553,332,l),
(526,200,ls),
(499,67,o),
(404,-12,o),
(272,-12,cs),
(118,-12,o),
(37,91,o),
(37,218,cs),
(37,427,o),
(111,710,o),
(375,710,cs),
(498,710,o),
(562,653,o),
(584,565,c),
(563,559,l),
(543,640,o),
(488,689,o),
(373,689,cs),
(233,689,o),
(126,592,o),
(84,396,cs),
(71,336,ls),
(37,177,o),
(64,9,o),
(272,9,cs),
(396,9,o),
(480,80,o),
(503,201,c),
(526,311,l),
(299,311,l),
(303,332,l)
);
}
);
width = 595;
}
);
leftKerningGroup = C2;
rightKerningGroup = G;
unicode = 71;
},
{
glyphname = H;
layers = (
{
anchors = (
{
name = b.uni0327;
position = "{297, 0}";
},
{
name = t.uni0303;
position = "{425, 698}";
}
);
layerId = "0B7F572C-A94B-4AEA-9B1F-F41A56A498B5";
shapes = (
{
closed = 1;
nodes = (
(416,0,l),
(472,279,l),
(239,279,l),
(183,0,l),
(16,0,l),
(156,698,l),
(323,698,l),
(268,426,l),
(502,426,l),
(556,698,l),
(722,698,l),
(582,0,l)
);
}
);
width = 705;
},
{
anchors = (
{
name = b.uni0327;
position = "{297, 0}";
},
{
name = t.uni0303;
position = "{425, 698}";
}
);
layerId = "1D0433F9-D608-41FF-8548-FFD7049742EF";
shapes = (
{
closed = 1;
nodes = (
(427,0,l),
(485,289,l),
(225,289,l),
(167,0,l),
(22,0,l),
(162,698,l),
(307,698,l),
(251,417,l),
(511,417,l),
(567,698,l),
(712,698,l),
(572,0,l)
);
}
);
width = 700;
},
{
anchors = (
{
name = b.uni0327;
position = "{297, 0}";
},
{
name = t.uni0303;
position = "{425, 698}";
}
);
layerId = "AA599D58-A149-49FA-A2EA-5B415EA8A4DA";
shapes = (
{
closed = 1;
nodes = (
(460,0,l),
(523,318,l),
(184,318,l),
(120,0,l),
(39,0,l),
(179,698,l),
(260,698,l),
(199,390,l),
(538,390,l),
(600,698,l),
(681,698,l),
(541,0,l)
);
}
);
width = 684;
},
{
anchors = (
{
name = b.uni0327;
position = "{296, 0}";
},
{
name = t.uni0303;
position = "{424, 698}";
}
);
layerId = "6F034211-0C67-4D44-818B-30BEF4D1BE0C";
shapes = (
{
closed = 1;
nodes = (
(502,0,l),
(571,344,l),
(145,344,l),
(76,0,l),
(54,0,l),
(194,698,l),
(216,698,l),
(149,364,l),
(575,364,l),
(642,698,l),
(664,698,l),
(524,0,l)
);
}
);
width = 680;
}
);
unicode = 72;
},
{
glyphname = I;
layers = (
{
layerId = "0B7F572C-A94B-4AEA-9B1F-F41A56A498B5";
shapes = (
{
closed = 1;
nodes = (
(176,0,l),
(19,0,l),
(160,698,l),
(318,698,l)
);
}
);
width = 302;
},
{
layerId = "1D0433F9-D608-41FF-8548-FFD7049742EF";
shapes = (
{
closed = 1;
nodes = (
(162,0,l),
(24,0,l),
(164,698,l),
(303,698,l)
);
}
);
width = 292;
},
{
layerId = "AA599D58-A149-49FA-A2EA-5B415EA8A4DA";
shapes = (
{
closed = 1;
nodes = (
(120,0,l),
(39,0,l),
(177,698,l),
(258,698,l)
);
}
);
width = 261;
},
{
layerId = "6F034211-0C67-4D44-818B-30BEF4D1BE0C";
shapes = (
{
closed = 1;
nodes = (
(54,0,l),
(194,698,l),
(216,698,l),
(76,0,l)
);
}
);
width = 232;
}
);
leftKerningGroup = I2;
rightKerningGroup = I;
unicode = 73;
},
{
glyphname = J;
layers = (
{
anchors = (
{
name = b.uni0327;
position = "{206, 0}";
},
{
name = t.uni0303;
position = "{382, 698}";
}
);
layerId = "0B7F572C-A94B-4AEA-9B1F-F41A56A498B5";
shapes = (
{
closed = 1;
nodes = (
(401,698,l),
(567,698,l),
(465,191,ls),
(442,71,o),
(365,-11,o),
(230,-11,cs),
(181,-11,o),
(140,-2,o),
(109,17,cs),
(45,54,o),
(14,118,o),
(6,189,c),
(166,221,l),
(173,168,o),
(184,133,o),
(228,133,cs),
(257,133,o),
(290,152,o),
(302,207,cs)
);
}
);
width = 549;
},
{
anchors = (
{
name = b.uni0327;
position = "{206, 0}";
},
{
name = t.uni0303;
position = "{382, 698}";
}
);
layerId = "1D0433F9-D608-41FF-8548-FFD7049742EF";
shapes = (
{
closed = 1;
nodes = (
(404,698,l),
(549,698,l),
(447,190,ls),
(423,69,o),
(346,-11,o),
(215,-11,cs),
(170,-11,o),
(133,-3,o),
(103,15,cs),
(43,49,o),
(12,109,o),
(5,180,c),
(144,208,l),
(149,152,o),
(166,115,o),
(215,115,cs),
(256,115,o),
(292,141,o),
(305,205,cs)
);
}
);
width = 536;
},
{
anchors = (
{
name = b.uni0327;
position = "{206, 0}";
},
{
name = t.uni0303;
position = "{382, 698}";
}
);
layerId = "AA599D58-A149-49FA-A2EA-5B415EA8A4DA";
shapes = (
{
closed = 1;
nodes = (
(413,698,l),
(495,698,l),
(392,186,ls),
(367,61,o),
(290,-12,o),
(171,-12,cs),
(139,-12,o),
(111,-6,o),
(86,7,cs),
(36,32,o),
(6,82,o),
(3,153,c),
(77,168,l),
(80,107,o),
(111,61,o),
(175,61,cs),
(252,61,o),
(296,109,o),
(313,198,cs)
);
}
);
width = 498;
},
{
anchors = (
{
name = b.uni0327;
position = "{162, 0}";
},
{
name = t.uni0303;
position = "{350, 698}";
}
);
layerId = "6F034211-0C67-4D44-818B-30BEF4D1BE0C";
shapes = (
{
closed = 1;
nodes = (
(424,698,l),
(446,698,l),
(343,178,ls),
(319,57,o),
(246,-12,o),
(142,-12,cs),
(110,-12,o),
(83,-6,o),
(60,5,cs),
(15,28,o),
(-10,69,o),
(-14,118,c),
(6,123,l),
(14,46,o),
(65,8,o),
(142,8,cs),
(237,8,o),
(301,72,o),
(322,184,cs)
);
}
);
width = 455;
}
);
leftKerningGroup = J2;
rightKerningGroup = J;
unicode = 74;
},
{
glyphname = K;
layers = (
{
anchors = (
{
name = b.uni0327;
position = "{297, 0}";
},
{
name = t.uni0303;
position = "{421, 698}";
}
);
layerId = "0B7F572C-A94B-4AEA-9B1F-F41A56A498B5";
shapes = (
{
closed = 1;
nodes = (
(428,0,l),
(329,284,l),
(216,163,l),
(183,0,l),
(16,0,l),
(156,698,l),
(323,698,l),
(283,503,l),
(257,371,l),
(265,371,l),
(372,508,l),
(539,698,l),
(740,698,l),
(460,399,l),
(612,0,l)
);
}
);
width = 671;
},
{
anchors = (
{
name = b.uni0327;
position = "{297, 0}";
},
{
name = t.uni0303;
position = "{421, 698}";
}
);
layerId = "1D0433F9-D608-41FF-8548-FFD7049742EF";
shapes = (
{
closed = 1;
nodes = (
(436,0,l),
(319,299,l),
(203,179,l),
(167,0,l),
(22,0,l),
(162,698,l),
(307,698,l),
(266,494,l),
(240,364,l),
(247,364,l),
(357,495,l),
(545,698,l),
(721,698,l),
(433,398,l),
(596,0,l)
);
}
);
width = 657;
},
{
anchors = (
{
name = b.uni0327;
position = "{297, 0}";
},
{
name = t.uni0303;
position = "{421, 698}";
}
);
layerId = "AA599D58-A149-49FA-A2EA-5B415EA8A4DA";
shapes = (
{
closed = 1;
nodes = (
(461,0,l),
(290,343,l),
(165,226,l),
(120,0,l),
(39,0,l),
(179,698,l),
(260,698,l),
(214,467,l),
(189,342,l),
(194,342,l),
(313,457,l),
(562,698,l),
(665,698,l),
(352,395,l),
(549,0,l)
);
}
);
width = 615;
},
{
anchors = (
{
name = b.uni0327;
position = "{301, 0}";
},
{
name = t.uni0303;
position = "{394, 698}";
}
);
layerId = "6F034211-0C67-4D44-818B-30BEF4D1BE0C";
shapes = (
{
closed = 1;
nodes = (
(474,0,l),
(290,388,l),
(125,237,l),
(76,0,l),
(54,0,l),
(194,698,l),
(216,698,l),
(164,437,l),
(131,271,l),
(134,271,l),
(300,423,l),
(604,698,l),
(633,698,l),
(307,402,l),
(497,0,l)
);
}
);
width = 564;
}
);
rightKerningGroup = K;
unicode = 75;
},
{
glyphname = L;
layers = (
{
anchors = (
{
name = b.uni0327;
position = "{222, 0}";
},
{
name = t.uni0303;
position = "{234, 698}";
},
{
name = t.uni0315;
position = "{379, 740}";
}
);
layerId = "0B7F572C-A94B-4AEA-9B1F-F41A56A498B5";
shapes = (
{
closed = 1;
nodes = (
(428,0,l),
(16,0,l),
(156,698,l),
(323,698,l),
(212,147,l),
(458,147,l)
);
}
);
width = 517;
},
{
anchors = (
{
name = b.uni0327;
position = "{222, 0}";
},
{
name = t.uni0303;
position = "{234, 698}";
},
{
name = t.uni0315;
position = "{379, 740}";
}
);
layerId = "1D0433F9-D608-41FF-8548-FFD7049742EF";
shapes = (
{
closed = 1;
nodes = (
(423,0,l),
(22,0,l),
(162,698,l),
(307,698,l),
(193,128,l),
(449,128,l)
);
}
);
width = 510;
},
{
anchors = (
{
name = b.uni0327;
position = "{222, 0}";
},
{
name = t.uni0303;
position = "{234, 698}";
},
{
name = t.uni0315;
position = "{379, 740}";
}
);
layerId = "AA599D58-A149-49FA-A2EA-5B415EA8A4DA";
shapes = (
{
closed = 1;
nodes = (
(408,0,l),
(39,0,l),
(179,698,l),
(260,698,l),
(135,72,l),
(422,72,l)
);
}
);
width = 489;
},
{
anchors = (
{
name = b.uni0327;
position = "{231, 0}";
},
{
name = t.uni0303;
position = "{228, 698}";
},
{
name = t.uni0315;
position = "{357, 740}";
}
);
layerId = "6F034211-0C67-4D44-818B-30BEF4D1BE0C";
shapes = (
{
closed = 1;
nodes = (
(401,0,l),
(54,0,l),
(194,698,l),
(216,698,l),
(80,20,l),
(405,20,l)
);
}
);
width = 468;
}
);
rightKerningGroup = L;
unicode = 76;
},
{
glyphname = M;
layers = (
{
anchors = (
{
name = b.uni0327;
position = "{344, 0}";
},
{
name = t.uni0303;
position = "{484, 698}";
}
);
layerId = "0B7F572C-A94B-4AEA-9B1F-F41A56A498B5";
shapes = (
{
closed = 1;
nodes = (
(526,0,l),
(583,280,l),
(611,419,l),
(604,419,l),
(503,280,l),
(369,98,l),
(303,300,l),
(264,422,l),
(259,422,l),
(234,300,l),
(174,0,l),
(16,0,l),
(156,698,l),
(324,698,l),
(382,504,l),
(419,382,l),
(424,382,l),
(510,504,l),
(647,698,l),
(824,698,l),
(684,0,l)
);
}
);
width = 807;
},
{
anchors = (
{
name = b.uni0327;
position = "{344, 0}";
},
{
name = t.uni0303;
position = "{484, 698}";
}
);
layerId = "1D0433F9-D608-41FF-8548-FFD7049742EF";
shapes = (
{
closed = 1;
nodes = (
(535,0,l),
(601,327,l),
(628,461,l),
(622,461,l),
(526,327,l),
(371,115,l),
(297,342,l),
(258,463,l),
(253,463,l),
(229,342,l),
(160,0,l),
(22,0,l),
(162,698,l),
(314,698,l),
(378,487,l),
(415,366,l),
(419,366,l),
(504,487,l),
(652,698,l),
(813,698,l),
(673,0,l)
);
}
);
width = 801;
},
{
anchors = (
{
name = b.uni0327;
position = "{344, 0}";
},
{
name = t.uni0303;
position = "{484, 698}";
}
);
layerId = "AA599D58-A149-49FA-A2EA-5B415EA8A4DA";
shapes = (
{
closed = 1;
nodes = (
(561,0,l),
(656,469,l),
(680,586,l),
(675,586,l),
(594,469,l),
(377,166,l),
(278,469,l),
(241,585,l),
(236,585,l),
(213,469,l),
(119,0,l),
(39,0,l),
(179,698,l),
(284,698,l),
(366,435,l),
(402,319,l),
(405,319,l),
(485,435,l),
(668,698,l),
(781,698,l),
(641,0,l)
);
}
);
width = 784;
},
{
anchors = (
{
name = b.uni0327;
position = "{352, 0}";
},
{
name = t.uni0303;
position = "{488, 698}";
}
);
layerId = "6F034211-0C67-4D44-818B-30BEF4D1BE0C";
shapes = (
{
closed = 1;
nodes = (
(603,0,l),
(714,553,l),
(738,673,l),
(735,673,l),
(629,541,l),
(386,236,l),
(265,541,l),
(213,673,l),
(210,673,l),
(186,553,l),
(75,0,l),
(54,0,l),
(194,698,l),
(226,698,l),
(348,390,l),
(392,278,l),
(395,278,l),
(481,386,l),
(729,698,l),
(764,698,l),
(624,0,l)
);
}
);
width = 780;
}
);
unicode = 77;
},
{
glyphname = N;
layers = (
{
anchors = (
{
name = b.uni0327;
position = "{297, 0}";
},
{
name = t.uni0303;
position = "{436, 698}";
}
);
layerId = "0B7F572C-A94B-4AEA-9B1F-F41A56A498B5";
shapes = (
{
closed = 1;
nodes = (
(404,0,l),
(304,308,l),
(267,438,l),
(260,438,l),
(234,308,l),
(173,0,l),
(16,0,l),
(156,698,l),
(334,698,l),
(434,390,l),
(472,260,l),
(478,260,l),
(505,390,l),
(566,698,l),
(722,698,l),
(582,0,l)
);
}
);
width = 705;
},
{
anchors = (
{
name = b.uni0327;
position = "{297, 0}";
},
{
name = t.uni0303;
position = "{436, 698}";
}
);
layerId = "1D0433F9-D608-41FF-8548-FFD7049742EF";
shapes = (
{
closed = 1;
nodes = (
(415,0,l),
(302,336,l),
(260,475,l),
(254,475,l),
(226,336,l),
(159,0,l),
(22,0,l),
(162,698,l),
(319,698,l),
(432,362,l),
(474,223,l),
(480,223,l),
(508,362,l),
(575,698,l),
(712,698,l),
(572,0,l)
);
}
);
width = 700;
},
{
anchors = (
{
name = b.uni0327;
position = "{297, 0}";
},
{
name = t.uni0303;
position = "{436, 698}";
}
);
layerId = "AA599D58-A149-49FA-A2EA-5B415EA8A4DA";
shapes = (
{
closed = 1;
nodes = (
(447,0,l),
(295,420,l),
(240,587,l),
(235,587,l),
(202,420,l),
(118,0,l),
(39,0,l),
(179,698,l),
(273,698,l),
(425,278,l),
(480,111,l),
(485,111,l),
(518,278,l),
(602,698,l),
(681,698,l),
(541,0,l)
);
}
);
width = 684;
},
{
anchors = (
{
name = b.uni0327;
position = "{304, 0}";
},
{
name = t.uni0303;
position = "{444, 698}";
}
);
layerId = "6F034211-0C67-4D44-818B-30BEF4D1BE0C";
shapes = (
{
closed = 1;
nodes = (
(494,0,l),
(262,552,l),
(212,671,l),
(209,671,l),
(187,560,l),
(75,0,l),
(54,0,l),
(194,698,l),
(224,698,l),
(456,146,l),
(506,27,l),
(509,27,l),
(531,138,l),
(643,698,l),
(664,698,l),
(524,0,l)
);
}
);
width = 680;
}
);
unicode = 78;
},
{
glyphname = O;
layers = (
{
anchors = (
{
name = b.uni0327;
position = "{300, 0}";
},
{
name = t.uni0303;
position = "{439, 698}";
}
);
layerId = "0B7F572C-A94B-4AEA-9B1F-F41A56A498B5";
shapes = (
{
closed = 1;
nodes = (
(267,-12,o),
(226,-2,o),
(188,17,cs),
(111,56,o),
(58,138,o),
(58,275,cs),
(58,312,o),
(63,346,o),
(68,381,c),
(87,477,o),
(131,558,o),
(193,618,cs),
(255,677,o),
(332,710,o),
(420,710,cs),
(464,710,o),
(505,700,o),
(544,681,cs),
(620,642,o),
(673,560,o),
(673,423,cs),
(673,387,o),
(668,352,o),
(663,317,c),
(644,222,o),
(601,140,o),
(539,81,cs),
(477,21,o),
(399,-12,o),
(311,-12,cs)
);
},
{
closed = 1;
nodes = (
(350,136,o),
(374,142,o),
(395,155,cs),
(436,179,o),
(465,228,o),
(478,297,cs),
(500,404,ls),
(503,421,o),
(504,439,o),
(504,450,cs),
(504,526,o),
(474,562,o),
(409,562,cs),
(382,562,o),
(358,556,o),
(337,544,cs),
(295,519,o),
(268,470,o),
(253,401,cs),
(231,294,ls),
(228,277,o),
(227,261,o),
(227,248,cs),
(227,171,o),
(257,136,o),
(322,136,cs)
);
}
);
width = 700;
},
{
anchors = (
{
name = b.uni0327;
position = "{300, 0}";
},
{
name = t.uni0303;
position = "{439, 698}";
}
);
layerId = "1D0433F9-D608-41FF-8548-FFD7049742EF";
shapes = (
{
closed = 1;
nodes = (
(263,-12,o),
(222,-2,o),
(184,18,cs),
(108,57,o),
(57,139,o),
(57,271,cs),
(57,310,o),
(61,346,o),
(68,382,cs),
(87,477,o),
(130,557,o),
(191,617,cs),
(251,676,o),
(329,710,o),
(417,710,cs),
(462,710,o),
(503,700,o),
(541,681,cs),
(617,641,o),
(668,559,o),
(668,427,cs),
(668,390,o),
(664,352,o),
(657,316,cs),
(638,223,o),
(595,141,o),
(535,82,cs),
(474,22,o),
(396,-12,o),
(308,-12,cs)
);
},
{
closed = 1;
nodes = (
(349,117,o),
(377,124,o),
(401,138,cs),
(448,166,o),
(480,220,o),
(495,296,cs),
(516,401,ls),
(520,421,o),
(521,440,o),
(521,453,cs),
(521,537,o),
(483,581,o),
(407,581,cs),
(376,581,o),
(349,574,o),
(325,560,cs),
(277,532,o),
(246,478,o),
(230,402,cs),
(209,297,ls),
(205,277,o),
(204,260,o),
(204,245,cs),
(204,161,o),
(242,117,o),
(318,117,cs)
);
}
);
width = 695;
},
{
anchors = (
{
name = b.uni0327;
position = "{300, 0}";
},
{
name = t.uni0303;
position = "{439, 698}";
}
);
layerId = "AA599D58-A149-49FA-A2EA-5B415EA8A4DA";
shapes = (
{
closed = 1;
nodes = (
(252,-12,o),
(211,-2,o),
(174,20,cs),
(101,62,o),
(55,143,o),
(55,260,cs),
(55,303,o),
(59,344,o),
(68,384,cs),
(87,475,o),
(127,555,o),
(185,615,cs),
(243,674,o),
(318,710,o),
(409,710,cs),
(456,710,o),
(497,700,o),
(534,679,cs),
(606,637,o),
(652,555,o),
(652,438,cs),
(652,397,o),
(648,354,o),
(639,314,cs),
(620,225,o),
(581,143,o),
(523,84,cs),
(465,24,o),
(389,-12,o),
(298,-12,cs)
);
},
{
closed = 1;
nodes = (
(347,61,o),
(384,70,o),
(417,89,cs),
(481,126,o),
(526,197,o),
(545,293,cs),
(565,393,ls),
(570,418,o),
(572,442,o),
(572,462,cs),
(572,569,o),
(509,637,o),
(401,637,cs),
(360,637,o),
(324,628,o),
(291,609,cs),
(226,572,o),
(182,502,o),
(162,405,cs),
(142,305,ls),
(137,280,o),
(135,256,o),
(135,236,cs),
(135,131,o),
(198,61,o),
(306,61,cs)
);
}
);
width = 679;
},
{
anchors = (
{
name = b.uni0327;
position = "{282, 0}";
},
{
name = t.uni0303;
position = "{455, 698}";
}
);
layerId = "6F034211-0C67-4D44-818B-30BEF4D1BE0C";
shapes = (
{
closed = 1;
nodes = (
(247,-12,o),
(208,-3,o),
(175,15,cs),
(108,50,o),
(69,120,o),
(69,220,cs),
(69,267,o),
(74,320,o),
(85,373,cs),
(102,457,o),
(135,540,o),
(187,605,cs),
(238,669,o),
(308,710,o),
(401,710,cs),
(445,710,o),
(484,701,o),
(517,684,cs),
(584,648,o),
(623,579,o),
(623,478,cs),
(623,431,o),
(618,378,o),
(607,325,cs),
(590,241,o),
(557,158,o),
(506,94,cs),
(454,29,o),
(384,-12,o),
(291,-12,cs)
);
},
{
closed = 1;
nodes = (
(340,8,o),
(384,21,o),
(423,46,cs),
(501,97,o),
(556,190,o),
(580,314,cs),
(591,369,ls),
(599,412,o),
(601,450,o),
(601,478,cs),
(601,609,o),
(530,690,o),
(401,690,cs),
(353,690,o),
(310,678,o),
(271,653,cs),
(193,603,o),
(137,508,o),
(112,384,cs),
(101,329,ls),
(93,288,o),
(91,248,o),
(91,220,cs),
(91,91,o),
(162,8,o),
(291,8,cs)
);
}
);
width = 658;
}
);
leftKerningGroup = C2;
rightKerningGroup = O;
unicode = 79;
},
{
glyphname = P;
layers = (
{
anchors = (
{
name = b.uni0327;
position = "{93, 0}";
},
{
name = t.uni0303;
position = "{376, 698}";
}
);
layerId = "0B7F572C-A94B-4AEA-9B1F-F41A56A498B5";
shapes = (
{
closed = 1;
nodes = (
(183,0,l),
(16,0,l),
(156,698,l),
(424,698,ls),
(496,698,o),
(553,682,o),
(596,649,cs),
(639,616,o),
(660,567,o),
(660,504,cs),
(660,451,o),
(648,405,o),
(623,365,cs),
(573,285,o),
(485,241,o),
(376,241,cs),
(231,241,l)
);
},
{
closed = 1;
nodes = (
(293,551,l),
(260,387,l),
(398,387,ls),
(435,387,o),
(469,407,o),
(477,451,cs),
(478,459,o),
(480,467,o),
(482,474,cs),
(485,489,o),
(488,501,o),
(488,506,cs),
(488,519,o),
(483,529,o),
(474,538,cs),
(465,547,o),
(451,551,o),
(434,551,cs)
);
}
);
width = 653;
},
{
anchors = (
{
name = b.uni0327;
position = "{93, 0}";
},
{
name = t.uni0303;
position = "{376, 698}";
}
);
layerId = "1D0433F9-D608-41FF-8548-FFD7049742EF";
shapes = (
{
closed = 1;
nodes = (
(167,0,l),
(22,0,l),
(162,698,l),
(425,698,ls),
(494,698,o),
(548,682,o),
(587,649,cs),
(626,616,o),
(645,570,o),
(645,511,cs),
(645,460,o),
(633,416,o),
(610,377,cs),
(563,300,o),
(479,255,o),
(374,255,cs),
(218,255,l)
);
},
{
closed = 1;
nodes = (
(281,570,l),
(244,383,l),
(393,383,ls),
(438,383,o),
(475,407,o),
(484,456,cs),
(486,466,o),
(488,475,o),
(490,483,cs),
(493,498,o),
(495,509,o),
(495,516,cs),
(495,531,o),
(490,544,o),
(480,555,c),
(469,565,o),
(453,570,o),
(431,570,cs)
);
}
);
width = 637;
},
{
anchors = (
{
name = b.uni0327;
position = "{93, 0}";
},
{
name = t.uni0303;
position = "{376, 698}";
}
);
layerId = "AA599D58-A149-49FA-A2EA-5B415EA8A4DA";
shapes = (
{
closed = 1;
nodes = (
(120,0,l),
(39,0,l),
(179,698,l),
(428,698,ls),
(489,698,o),
(534,682,o),
(561,651,cs),
(588,619,o),
(601,579,o),
(601,531,cs),
(601,488,o),
(592,448,o),
(573,413,cs),
(535,342,o),
(463,298,o),
(367,298,cs),
(180,298,l)
);
},
{
closed = 1;
nodes = (
(245,626,l),
(195,370,l),
(379,370,ls),
(446,370,o),
(492,406,o),
(505,471,cs),
(508,486,o),
(511,498,o),
(513,507,cs),
(516,524,o),
(517,534,o),
(517,545,cs),
(517,570,o),
(510,589,o),
(496,604,cs),
(482,619,o),
(457,626,o),
(422,626,cs)
);
}
);
width = 588;
},
{
anchors = (
{
name = b.uni0327;
position = "{95, 0}";
},
{
name = t.uni0303;
position = "{361, 698}";
}
);
layerId = "6F034211-0C67-4D44-818B-30BEF4D1BE0C";
shapes = (
{
closed = 1;
nodes = (
(76,0,l),
(54,0,l),
(194,698,l),
(445,698,ls),
(494,698,o),
(531,684,o),
(557,656,cs),
(583,628,o),
(596,593,o),
(596,550,cs),
(596,502,o),
(588,461,o),
(571,427,cs),
(537,359,o),
(473,322,o),
(386,322,cs),
(141,322,l)
);
},
{
closed = 1;
nodes = (
(211,678,l),
(145,342,l),
(388,342,ls),
(491,342,o),
(549,401,o),
(565,481,cs),
(568,494,o),
(570,505,o),
(571,514,cs),
(574,531,o),
(574,543,o),
(574,550,cs),
(574,585,o),
(564,616,o),
(543,641,cs),
(522,666,o),
(489,678,o),
(443,678,cs)
);
}
);
width = 582;
}
);
unicode = 80;
},
{
glyphname = Q;
leftMetricsKey = O;
widthMetricsKey = O;
layers = (
{
anchors = (
{
name = t.ring;
position = "{493, 698}";
},
{
name = b.cedilla_2;
position = "{321, 0}";
},
{
name = b.uni0327;
position = "{357, 0}";
},
{
name = t.uni0303;
position = "{497, 698}";
}
);
layerId = "0B7F572C-A94B-4AEA-9B1F-F41A56A498B5";
shapes = (
{
closed = 1;
nodes = (
(267,72,l),
(407,136,l),
(505,-140,l),
(341,-140,l)
);
},
{
alignment = -1;
ref = O;
}
);
width = 700;
},
{
anchors = (
{
name = t.ring;
position = "{429, 698}";
},
{
name = b.cedilla_2;
position = "{261, 0}";
}
);
layerId = "1D0433F9-D608-41FF-8548-FFD7049742EF";
shapes = (
{
closed = 1;
nodes = (
(292,63,l),
(408,120,l),
(502,-140,l),
(365,-140,l)
);
},
{
alignment = -1;
ref = O;
}
);
width = 695;
},
{
anchors = (
{
name = t.ring;
position = "{434, 698}";
},
{
name = b.cedilla_2;
position = "{277, 0}";
}
);
layerId = "AA599D58-A149-49FA-A2EA-5B415EA8A4DA";
shapes = (
{
closed = 1;
nodes = (
(309,35,l),
(377,72,l),
(461,-140,l),
(382,-140,l)
);
},
{
alignment = -1;
ref = O;
}
);
width = 679;
},
{
anchors = (
{
name = t.ring;
position = "{439, 698}";
},
{
name = b.cedilla_2;
position = "{307, -70}";
}
);
layerId = "6F034211-0C67-4D44-818B-30BEF4D1BE0C";
shapes = (
{
closed = 1;
nodes = (
(355,0,l),
(372,13,l),
(441,-140,l),
(420,-140,l)
);
},
{
alignment = -1;
ref = O;
}
);
width = 658;
}
);
leftKerningGroup = C2;
rightKerningGroup = O;
unicode = 81;
},
{
glyphname = R;
layers = (
{
anchors = (
{
name = b.uni0327;
position = "{284, 0}";
},
{
name = t.uni0303;
position = "{387, 698}";
}
);
layerId = "0B7F572C-A94B-4AEA-9B1F-F41A56A498B5";
shapes = (
{
closed = 1;
nodes = (
(232,245,l),
(183,0,l),
(16,0,l),
(156,698,l),
(436,698,ls),
(505,698,o),
(559,682,o),
(600,651,cs),
(640,620,o),
(660,574,o),
(660,514,cs),
(660,479,o),
(654,446,o),
(642,413,cs),
(617,348,o),
(568,294,o),
(493,265,c),
(571,0,l),
(393,0,l),
(333,245,l)
);
},
{
closed = 1;
nodes = (
(260,387,l),
(398,387,ls),
(435,387,o),
(469,407,o),
(477,451,cs),
(478,459,o),
(480,467,o),
(482,474,cs),
(485,489,o),
(488,501,o),
(488,506,cs),
(488,519,o),
(483,529,o),
(474,538,cs),
(465,547,o),
(451,551,o),
(434,551,cs),
(293,551,l)
);
}
);
width = 665;
},
{
anchors = (
{
name = b.uni0327;
position = "{284, 0}";
},
{
name = t.uni0303;
position = "{387, 698}";
}
);
layerId = "1D0433F9-D608-41FF-8548-FFD7049742EF";
shapes = (
{
closed = 1;
nodes = (
(219,259,l),
(167,0,l),
(22,0,l),
(162,698,l),
(434,698,ls),
(501,698,o),
(553,682,o),
(590,651,cs),
(627,620,o),
(645,575,o),
(645,518,cs),
(645,483,o),
(639,450,o),
(626,418,cs),
(600,353,o),
(549,301,o),
(474,276,c),
(558,0,l),
(403,0,l),
(334,259,l)
);
},
{
closed = 1;
nodes = (
(244,383,l),
(393,383,ls),
(438,383,o),
(475,407,o),
(484,456,cs),
(486,466,o),
(488,475,o),
(490,483,cs),
(493,498,o),
(495,509,o),
(495,516,cs),
(495,531,o),
(490,544,o),
(480,555,c),
(469,565,o),
(453,570,o),
(431,570,cs),
(281,570,l)
);
}
);
width = 655;
},
{
anchors = (
{
name = b.uni0327;
position = "{284, 0}";
},
{
name = t.uni0303;
position = "{387, 698}";
}
);
layerId = "AA599D58-A149-49FA-A2EA-5B415EA8A4DA";
shapes = (
{
closed = 1;
nodes = (
(180,300,l),
(120,0,l),
(39,0,l),
(179,698,l),
(428,698,ls),
(489,698,o),
(534,682,o),
(561,651,cs),
(588,619,o),
(601,579,o),
(601,531,cs),
(601,496,o),
(594,462,o),
(579,431,cs),
(549,368,o),
(493,323,o),
(418,308,c),
(520,0,l),
(433,0,l),
(338,300,l)
);
},
{
closed = 1;
nodes = (
(195,371,l),
(379,371,ls),
(446,371,o),
(492,406,o),
(505,471,cs),
(508,486,o),
(511,498,o),
(513,507,cs),
(516,524,o),
(517,534,o),
(517,545,cs),
(517,569,o),
(510,589,o),
(496,604,cs),
(482,619,o),
(457,626,o),
(422,626,cs),
(245,626,l)
);
}
);
width = 625;
},
{
anchors = (
{
name = b.uni0327;
position = "{285, 0}";
},
{
name = t.uni0303;
position = "{372, 698}";
}
);
layerId = "6F034211-0C67-4D44-818B-30BEF4D1BE0C";
shapes = (
{
closed = 1;
nodes = (
(141,322,l),
(76,0,l),
(54,0,l),
(194,698,l),
(445,698,ls),
(494,698,o),
(531,684,o),
(557,656,cs),
(583,628,o),
(596,593,o),
(596,550,cs),
(596,502,o),
(588,461,o),
(571,427,cs),
(537,359,o),
(473,322,o),
(382,322,c),
(507,0,l),
(484,0,l),
(359,322,l)
);
},
{
closed = 1;
nodes = (
(145,342,l),
(388,342,ls),
(491,342,o),
(549,401,o),
(565,481,cs),
(568,494,o),
(570,505,o),
(571,514,cs),
(574,531,o),
(574,543,o),
(574,550,cs),
(574,585,o),
(564,616,o),
(543,641,cs),
(522,666,o),
(489,678,o),
(443,678,cs),
(211,678,l)
);
}
);
width = 630;
}
);
rightKerningGroup = R;
unicode = 82;
},
{
glyphname = S;
layers = (
{
layerId = "0B7F572C-A94B-4AEA-9B1F-F41A56A498B5";
shapes = (
{
closed = 1;
nodes = (
(117,210,l),
(163,158,o),
(222,134,o),
(290,134,cs),
(362,134,o),
(389,161,o),
(389,209,cs),
(389,235,o),
(383,253,o),
(331,271,cs),
(256,296,ls),
(159,328,o),
(89,382,o),
(89,506,cs),
(89,652,o),
(228,710,o),
(356,710,cs),
(462,710,o),
(543,679,o),
(599,615,c),
(491,502,l),
(456,544,o),
(405,564,o),
(345,564,cs),
(278,564,o),
(256,541,o),
(255,505,c),
(255,469,o),
(284,451,o),
(314,441,cs),
(382,417,ls),
(529,365,o),
(557,294,o),
(557,219,c),
(553,79,o),
(448,-12,o),
(278,-12,cs),
(168,-12,o),
(75,25,o),
(9,99,c)
);
}
);
width = 638;
},
{
layerId = "1D0433F9-D608-41FF-8548-FFD7049742EF";
shapes = (
{
closed = 1;
nodes = (
(107,198,l),
(154,143,o),
(213,116,o),
(284,116,cs),
(359,116,o),
(397,146,o),
(397,205,cs),
(397,240,o),
(379,262,o),
(327,281,cs),
(257,306,ls),
(165,339,o),
(92,392,o),
(92,509,cs),
(92,652,o),
(224,710,o),
(350,710,cs),
(455,710,o),
(535,677,o),
(590,610,c),
(493,514,l),
(457,559,o),
(406,582,o),
(341,582,cs),
(272,582,o),
(238,558,o),
(237,510,c),
(237,467,o),
(274,446,o),
(309,433,cs),
(373,409,ls),
(509,358,o),
(544,290,o),
(544,214,c),
(541,73,o),
(435,-12,o),
(274,-12,cs),
(165,-12,o),
(75,26,o),
(11,102,c)
);
}
);
width = 622;
},
{
layerId = "AA599D58-A149-49FA-A2EA-5B415EA8A4DA";
shapes = (
{
closed = 1;
nodes = (
(78,162,l),
(126,97,o),
(185,62,o),
(266,62,cs),
(349,62,o),
(420,101,o),
(420,192,cs),
(420,256,o),
(367,288,o),
(314,311,cs),
(261,335,ls),
(183,371,o),
(100,423,o),
(100,519,cs),
(100,653,o),
(212,710,o),
(332,710,cs),
(434,710,o),
(511,672,o),
(563,596,c),
(500,550,l),
(461,603,o),
(409,636,o),
(328,636,cs),
(254,636,o),
(184,608,o),
(184,524,cs),
(184,462,o),
(244,431,o),
(293,409,cs),
(346,385,ls),
(450,338,o),
(504,279,o),
(504,198,cs),
(504,55,o),
(395,-12,o),
(263,-12,cs),
(157,-12,o),
(75,29,o),
(16,110,c)
);
}
);
width = 573;
},
{
layerId = "6F034211-0C67-4D44-818B-30BEF4D1BE0C";
shapes = (
{
closed = 1;
nodes = (
(37,115,l),
(88,44,o),
(160,8,o),
(253,8,cs),
(381,8,o),
(436,61,o),
(445,186,c),
(445,266,o),
(385,308,o),
(316,335,cs),
(250,361,ls),
(171,392,o),
(106,441,o),
(106,532,cs),
(106,652,o),
(191,710,o),
(320,710,cs),
(415,710,o),
(483,678,o),
(526,615,c),
(508,602,l),
(468,661,o),
(405,690,o),
(318,690,cs),
(199,690,o),
(132,640,o),
(129,532,c),
(129,463,o),
(174,416,o),
(260,381,cs),
(326,354,ls),
(405,322,o),
(468,275,o),
(468,184,cs),
(468,52,o),
(384,-12,o),
(253,-12,cs),
(152,-12,o),
(74,26,o),
(19,102,c)
);
}
);
width = 535;
}
);
leftKerningGroup = S2;
rightKerningGroup = S;
unicode = 83;
},
{
glyphname = T;
layers = (
{
anchors = (
{
name = b.uni0327;
position = "{231, 0}";
},
{
name = t.uni0303;
position = "{371, 698}";
}
);
layerId = "0B7F572C-A94B-4AEA-9B1F-F41A56A498B5";
shapes = (
{
closed = 1;
nodes = (
(601,551,l),
(427,551,l),
(316,0,l),
(150,0,l),
(260,551,l),
(86,551,l),
(116,698,l),
(631,698,l)
);
}
);
width = 573;
},
{
anchors = (
{
name = b.uni0327;
position = "{231, 0}";
},
{
name = t.uni0303;
position = "{371, 698}";
}
);
layerId = "1D0433F9-D608-41FF-8548-FFD7049742EF";
shapes = (
{
closed = 1;
nodes = (
(602,570,l),
(418,570,l),
(304,0,l),
(159,0,l),
(273,570,l),
(89,570,l),
(115,698,l),
(628,698,l)
);
}
);
width = 569;
},
{
anchors = (
{
name = b.uni0327;
position = "{231, 0}";
},
{
name = t.uni0303;
position = "{371, 698}";
}
);
layerId = "AA599D58-A149-49FA-A2EA-5B415EA8A4DA";
shapes = (
{
closed = 1;
nodes = (
(605,626,l),
(392,626,l),
(267,0,l),
(186,0,l),
(311,626,l),
(98,626,l),
(112,698,l),
(619,698,l)
);
}
);
width = 557;
},
{
anchors = (
{
name = b.uni0327;
position = "{228, 0}";
},
{
name = t.uni0303;
position = "{367, 698}";
}
);
layerId = "6F034211-0C67-4D44-818B-30BEF4D1BE0C";
shapes = (
{
closed = 1;
nodes = (
(619,678,l),
(370,678,l),
(234,0,l),
(212,0,l),
(348,678,l),
(99,678,l),
(103,698,l),
(623,698,l)
);
}
);
width = 548;
}
);
leftKerningGroup = T2;
rightKerningGroup = T;
unicode = 84;
},
{
glyphname = U;
layers = (
{
anchors = (
{
name = b.uni0327;
position = "{284, 0}";
},
{
name = b.uni0328;
position = "{402, 0}";
},
{
name = t.uni0303;
position = "{421, 698}";
}
);
layerId = "0B7F572C-A94B-4AEA-9B1F-F41A56A498B5";
shapes = (
{
closed = 1;
nodes = (
(155,698,l),
(319,698,l),
(236,284,l),
(232,271,o),
(229,241,o),
(229,224,cs),
(229,165,o),
(259,136,o),
(322,136,cs),
(345,136,o),
(366,141,o),
(383,150,cs),
(417,169,o),
(438,206,o),
(449,261,cs),
(537,698,l),
(701,698,l),
(616,274,ls),
(603,211,o),
(585,158,o),
(560,116,cs),
(511,31,o),
(436,-12,o),
(317,-12,cs),
(264,-12,o),
(219,-3,o),
(182,14,cs),
(108,49,o),
(69,119,o),
(69,222,cs),
(69,247,o),
(70,275,o),
(77,306,cs)
);
}
);
width = 685;
},
{
anchors = (
{
name = b.uni0327;
position = "{284, 0}";
},
{
name = b.uni0328;
position = "{402, 0}";
},
{
name = t.uni0303;
position = "{421, 698}";
}
);
layerId = "1D0433F9-D608-41FF-8548-FFD7049742EF";
shapes = (
{
closed = 1;
nodes = (
(160,698,l),
(303,698,l),
(219,280,l),
(215,263,o),
(212,236,o),
(212,217,cs),
(212,152,o),
(247,117,o),
(314,117,cs),
(341,117,o),
(364,122,o),
(383,133,cs),
(422,154,o),
(447,199,o),
(460,267,cs),
(547,698,l),
(690,698,l),
(605,275,ls),
(592,210,o),
(574,156,o),
(549,114,cs),
(500,29,o),
(424,-12,o),
(308,-12,cs),
(257,-12,o),
(215,-4,o),
(180,14,cs),
(110,48,o),
(72,115,o),
(72,214,cs),
(72,241,o),
(74,270,o),
(81,303,cs)
);
}
);
width = 678;
},
{
anchors = (
{
name = b.uni0327;
position = "{284, 0}";
},
{
name = b.uni0328;
position = "{402, 0}";
},
{
name = t.uni0303;
position = "{421, 698}";
}
);
layerId = "AA599D58-A149-49FA-A2EA-5B415EA8A4DA";
shapes = (
{
closed = 1;
nodes = (
(174,698,l),
(255,698,l),
(169,269,l),
(164,240,o),
(161,220,o),
(161,197,cs),
(161,112,o),
(210,61,o),
(289,61,cs),
(326,61,o),
(358,68,o),
(385,83,cs),
(437,112,o),
(472,176,o),
(493,284,cs),
(576,698,l),
(657,698,l),
(573,278,ls),
(559,207,o),
(540,150,o),
(515,108,cs),
(466,23,o),
(391,-12,o),
(280,-12,cs),
(239,-12,o),
(203,-4,o),
(174,12,cs),
(114,44,o),
(82,104,o),
(82,189,cs),
(82,220,o),
(85,254,o),
(93,294,cs)
);
}
);
width = 656;
},
{
anchors = (
{
name = b.uni0327;
position = "{278, 0}";
},
{
name = b.uni0328;
position = "{365, 0}";
},
{
name = t.uni0303;
position = "{421, 698}";
}
);
layerId = "6F034211-0C67-4D44-818B-30BEF4D1BE0C";
shapes = (
{
closed = 1;
nodes = (
(185,698,l),
(207,698,l),
(122,271,ls),
(110,212,o),
(104,179,o),
(104,148,cs),
(104,60,o),
(157,8,o),
(273,8,cs),
(324,8,o),
(365,16,o),
(397,33,cs),
(461,65,o),
(496,139,o),
(523,271,cs),
(609,698,l),
(631,698,l),
(545,270,ls),
(531,199,o),
(513,143,o),
(492,102,cs),
(449,20,o),
(384,-12,o),
(273,-12,cs),
(233,-12,o),
(199,-6,o),
(171,6,cs),
(114,30,o),
(82,77,o),
(82,148,cs),
(82,185,o),
(90,220,o),
(101,276,cs)
);
}
);
width = 639;
}
);
leftKerningGroup = U2;
rightKerningGroup = U;
unicode = 85;
},
{
glyphname = V;
layers = (
{
anchors = (
{
name = b.uni0327;
position = "{264, 0}";
},
{
name = t.uni0303;
position = "{402, 698}";
}
);
layerId = "0B7F572C-A94B-4AEA-9B1F-F41A56A498B5";
shapes = (
{
closed = 1;
nodes = (
(360,0,l),
(177,0,l),
(95,698,l),
(263,698,l),
(285,440,l),
(298,177,l),
(307,177,l),
(421,440,l),
(543,698,l),
(720,698,l)
);
}
);
width = 644;
},
{
anchors = (
{
name = b.uni0327;
position = "{264, 0}";
},
{
name = t.uni0303;
position = "{402, 698}";
}
);
layerId = "1D0433F9-D608-41FF-8548-FFD7049742EF";
shapes = (
{
closed = 1;
nodes = (
(344,0,l),
(181,0,l),
(99,698,l),
(245,698,l),
(271,417,l),
(288,154,l),
(295,154,l),
(414,417,l),
(551,698,l),
(705,698,l)
);
}
);
width = 631;
},
{
anchors = (
{
name = b.uni0327;
position = "{264, 0}";
},
{
name = t.uni0303;
position = "{402, 698}";
}
);
layerId = "AA599D58-A149-49FA-A2EA-5B415EA8A4DA";
shapes = (
{
closed = 1;
nodes = (
(295,0,l),
(194,0,l),
(111,698,l),
(192,698,l),
(230,348,l),
(257,84,l),
(260,84,l),
(393,348,l),
(575,698,l),
(661,698,l)
);
}
);
width = 593;
},
{
anchors = (
{
name = b.uni0327;
position = "{250, 0}";
},
{
name = t.uni0303;
position = "{397, 698}";
}
);
layerId = "6F034211-0C67-4D44-818B-30BEF4D1BE0C";
shapes = (
{
closed = 1;
nodes = (
(247,0,l),
(217,0,l),
(117,698,l),
(139,698,l),
(206,230,l),
(235,25,l),
(238,25,l),
(349,230,l),
(603,698,l),
(627,698,l)
);
}
);
width = 566;
}
);
unicode = 86;
},
{
glyphname = W;
layers = (
{
anchors = (
{
name = b.uni0327;
position = "{420, 0}";
},
{
name = t.uni0303;
position = "{557, 698}";
}
);
layerId = "0B7F572C-A94B-4AEA-9B1F-F41A56A498B5";
shapes = (
{
closed = 1;
nodes = (
(327,0,l),
(129,0,l),
(120,698,l),
(284,698,l),
(276,444,l),
(259,158,l),
(271,158,l),
(355,396,l),
(481,698,l),
(661,698,l),
(665,420,l),
(651,145,l),
(663,145,l),
(744,396,l),
(851,698,l),
(1018,698,l),
(734,0,l),
(541,0,l),
(536,266,l),
(540,513,l),
(529,513,l),
(447,295,l)
);
}
);
width = 967;
},
{
anchors = (
{
name = b.uni0327;
position = "{420, 0}";
},
{
name = t.uni0303;
position = "{557, 698}";
}
);
layerId = "1D0433F9-D608-41FF-8548-FFD7049742EF";
shapes = (
{
closed = 1;
nodes = (
(302,0,l),
(130,0,l),
(116,698,l),
(259,698,l),
(255,419,l),
(244,144,l),
(254,144,l),
(351,401,l),
(477,698,l),
(636,698,l),
(643,416,l),
(636,134,l),
(646,134,l),
(733,384,l),
(851,698,l),
(997,698,l),
(706,0,l),
(538,0,l),
(530,291,l),
(530,536,l),
(521,536,l),
(432,312,l)
);
}
);
width = 941;
},
{
anchors = (
{
name = b.uni0327;
position = "{420, 0}";
},
{
name = t.uni0303;
position = "{557, 698}";
}
);
layerId = "AA599D58-A149-49FA-A2EA-5B415EA8A4DA";
shapes = (
{
closed = 1;
nodes = (
(226,0,l),
(132,0,l),
(103,698,l),
(184,698,l),
(193,344,l),
(199,101,l),
(203,101,l),
(340,416,l),
(466,698,l),
(562,698,l),
(577,403,l),
(591,102,l),
(595,102,l),
(701,349,l),
(851,698,l),
(935,698,l),
(622,0,l),
(529,0,l),
(511,367,l),
(501,606,l),
(496,606,l),
(387,362,l)
);
}
);
width = 862;
},
{
anchors = (
{
name = b.uni0327;
position = "{441, 0}";
},
{
name = t.uni0303;
position = "{570, 698}";
}
);
layerId = "6F034211-0C67-4D44-818B-30BEF4D1BE0C";
shapes = (
{
closed = 1;
nodes = (
(192,0,l),
(161,0,l),
(121,698,l),
(143,698,l),
(168,256,l),
(181,31,l),
(184,31,l),
(293,256,l),
(507,698,l),
(538,698,l),
(572,256,l),
(589,31,l),
(592,31,l),
(698,256,l),
(905,698,l),
(929,698,l),
(600,0,l),
(569,0,l),
(531,506,l),
(519,668,l),
(516,668,l),
(437,506,l)
);
}
);
width = 864;
}
);
leftKerningGroup = W2;
rightKerningGroup = W;
unicode = 87;
},
{
glyphname = X;
layers = (
{
anchors = (
{
name = b.uni0327;
position = "{273, 0}";
},
{
name = t.uni0303;
position = "{398, 698}";
}
);
layerId = "0B7F572C-A94B-4AEA-9B1F-F41A56A498B5";
shapes = (
{
closed = 1;
nodes = (
(439,348,l),
(592,0,l),
(411,0,l),
(319,229,l),
(310,229,l),
(148,0,l),
(-45,0,l),
(246,373,l),
(99,698,l),
(278,698,l),
(365,487,l),
(375,487,l),
(531,698,l),
(724,698,l)
);
}
);
width = 656;
},
{
anchors = (
{
name = b.uni0327;
position = "{273, 0}";
},
{
name = t.uni0303;
position = "{398, 698}";
}
);
layerId = "1D0433F9-D608-41FF-8548-FFD7049742EF";
shapes = (
{
closed = 1;
nodes = (
(419,347,l),
(571,0,l),
(414,0,l),
(315,243,l),
(307,243,l),
(128,0,l),
(-40,0,l),
(250,369,l),
(104,698,l),
(260,698,l),
(355,468,l),
(363,468,l),
(538,698,l),
(706,698,l)
);
}
);
width = 641;
},
{
anchors = (
{
name = b.uni0327;
position = "{273, 0}";
},
{
name = t.uni0303;
position = "{398, 698}";
}
);
layerId = "AA599D58-A149-49FA-A2EA-5B415EA8A4DA";
shapes = (
{
closed = 1;
nodes = (
(360,343,l),
(508,0,l),
(423,0,l),
(303,286,l),
(299,286,l),
(69,0,l),
(-25,0,l),
(263,358,l),
(120,698,l),
(205,698,l),
(324,411,l),
(328,411,l),
(559,698,l),
(653,698,l)
);
}
);
width = 596;
},
{
anchors = (
{
name = b.uni0327;
position = "{248, 0}";
},
{
name = t.uni0303;
position = "{379, 698}";
}
);
layerId = "6F034211-0C67-4D44-818B-30BEF4D1BE0C";
shapes = (
{
closed = 1;
nodes = (
(306,355,l),
(473,0,l),
(449,0,l),
(292,336,l),
(289,336,l),
(-1,0,l),
(-29,0,l),
(279,356,l),
(118,698,l),
(142,698,l),
(294,375,l),
(297,375,l),
(574,698,l),
(602,698,l)
);
}
);
width = 552;
}
);
unicode = 88;
},
{
glyphname = Y;
layers = (
{
anchors = (
{
name = b.uni0327;
position = "{257, 0}";
},
{
name = t.uni0303;
position = "{382, 698}";
}
);
layerId = "0B7F572C-A94B-4AEA-9B1F-F41A56A498B5";
shapes = (
{
closed = 1;
nodes = (
(348,0,l),
(181,0,l),
(235,270,l),
(86,698,l),
(256,698,l),
(343,420,l),
(351,420,l),
(535,698,l),
(718,698,l),
(399,253,l)
);
}
);
width = 640;
},
{
anchors = (
{
name = b.uni0327;
position = "{257, 0}";
},
{
name = t.uni0303;
position = "{382, 698}";
}
);
layerId = "1D0433F9-D608-41FF-8548-FFD7049742EF";
shapes = (
{
closed = 1;
nodes = (
(330,0,l),
(185,0,l),
(239,271,l),
(91,698,l),
(239,698,l),
(333,404,l),
(340,404,l),
(541,698,l),
(701,698,l),
(382,258,l)
);
}
);
width = 624;
},
{
anchors = (
{
name = b.uni0327;
position = "{257, 0}";
},
{
name = t.uni0303;
position = "{382, 698}";
}
);
layerId = "AA599D58-A149-49FA-A2EA-5B415EA8A4DA";
shapes = (
{
closed = 1;
nodes = (
(277,0,l),
(196,0,l),
(251,273,l),
(105,698,l),
(187,698,l),
(303,357,l),
(308,357,l),
(558,698,l),
(651,698,l),
(332,273,l)
);
}
);
width = 577;
},
{
anchors = (
{
name = b.uni0327;
position = "{240, 0}";
},
{
name = t.uni0303;
position = "{380, 698}";
}
);
layerId = "6F034211-0C67-4D44-818B-30BEF4D1BE0C";
shapes = (
{
closed = 1;
nodes = (
(230,0,l),
(208,0,l),
(267,294,l),
(109,698,l),
(132,698,l),
(280,320,l),
(283,320,l),
(583,698,l),
(609,698,l),
(289,294,l)
);
}
);
width = 540;
}
);
leftKerningGroup = Y2;
rightKerningGroup = Y;
unicode = 89;
},
{
glyphname = Z;
layers = (
{
anchors = (
{
name = b.uni0327;
position = "{245, 0}";
},
{
name = t.uni0303;
position = "{381, 698}";
}
);
layerId = "0B7F572C-A94B-4AEA-9B1F-F41A56A498B5";
shapes = (
{
closed = 1;
nodes = (
(520,147,l),
(491,0,l),
(-10,0,l),
(20,145,l),
(402,551,l),
(119,551,l),
(149,698,l),
(630,698,l),
(600,553,l),
(218,147,l)
);
}
);
width = 576;
},
{
anchors = (
{
name = b.uni0327;
position = "{245, 0}";
},
{
name = t.uni0303;
position = "{381, 698}";
}
);
layerId = "1D0433F9-D608-41FF-8548-FFD7049742EF";
shapes = (
{
closed = 1;
nodes = (
(512,128,l),
(486,0,l),
(-11,0,l),
(15,128,l),
(425,570,l),
(119,570,l),
(145,698,l),
(623,698,l),
(597,570,l),
(187,128,l)
);
}
);
width = 573;
},
{
anchors = (
{
name = b.uni0327;
position = "{245, 0}";
},
{
name = t.uni0303;
position = "{381, 698}";
}
);
layerId = "AA599D58-A149-49FA-A2EA-5B415EA8A4DA";
shapes = (
{
closed = 1;
nodes = (
(487,72,l),
(472,0,l),
(-15,0,l),
(1,78,l),
(493,626,l),
(119,626,l),
(134,698,l),
(603,698,l),
(587,620,l),
(95,72,l)
);
}
);
width = 563;
},
{
anchors = (
{
name = b.uni0327;
position = "{228, 0}";
},
{
name = t.uni0303;
position = "{389, 698}";
}
);
layerId = "6F034211-0C67-4D44-818B-30BEF4D1BE0C";
shapes = (
{
closed = 1;
nodes = (
(466,20,l),
(462,0,l),
(-22,0,l),
(-17,22,l),
(550,678,l),
(137,678,l),
(141,698,l),
(581,698,l),
(576,676,l),
(9,20,l)
);
}
);
width = 543;
}
);
leftKerningGroup = Z2;
rightKerningGroup = Z;
unicode = 90;
},
{
glyphname = zero;
layers = (
{
layerId = "0B7F572C-A94B-4AEA-9B1F-F41A56A498B5";
shapes = (
{
closed = 1;
nodes = (
(168,-12,o),
(112,26,o),
(80,79,cs),
(48,131,o),
(40,197,o),
(40,249,cs),
(40,266,o),
(41,282,o),
(42,297,cs),
(44,328,o),
(48,358,o),
(53,387,cs),
(70,478,o),
(107,558,o),
(159,617,cs),
(211,676,o),
(280,710,o),
(361,710,cs),
(457,710,o),
(513,672,o),
(545,620,cs),
(577,567,o),
(585,502,o),
(585,449,cs),
(585,433,o),
(585,417,o),
(584,402,cs),
(582,370,o),
(579,342,o),
(572,311,c),
(555,220,o),
(518,140,o),
(466,81,cs),
(414,22,o),
(347,-12,o),
(264,-12,cs)
);
},
{
closed = 1;
nodes = (
(302,122,o),
(321,129,o),
(335,143,cs),
(363,171,o),
(378,222,o),
(390,286,cs),
(416,417,ls),
(421,442,o),
(424,462,o),
(424,483,cs),
(424,542,o),
(404,576,o),
(347,576,cs),
(323,576,o),
(304,569,o),
(290,555,cs),
(262,527,o),
(248,477,o),
(235,412,cs),
(209,281,ls),
(204,256,o),
(201,236,o),
(201,215,cs),
(201,156,o),
(221,122,o),
(278,122,cs)
);
}
);
width = 600;
},
{
layerId = "1D0433F9-D608-41FF-8548-FFD7049742EF";
shapes = (
{
closed = 1;
nodes = (
(174,-12,o),
(120,23,o),
(89,73,cs),
(57,123,o),
(47,187,o),
(47,244,cs),
(47,260,o),
(48,276,o),
(49,291,cs),
(51,322,o),
(55,353,o),
(60,382,cs),
(77,473,o),
(112,554,o),
(164,614,cs),
(215,674,o),
(283,710,o),
(364,710,cs),
(452,710,o),
(506,676,o),
(538,626,cs),
(569,576,o),
(579,513,o),
(579,454,cs),
(579,439,o),
(579,423,o),
(578,408,cs),
(576,376,o),
(573,347,o),
(566,316,c),
(549,225,o),
(514,144,o),
(463,84,cs),
(411,24,o),
(345,-12,o),
(262,-12,cs)
);
},
{
closed = 1;
nodes = (
(301,106,o),
(322,114,o),
(339,129,cs),
(372,160,o),
(392,216,o),
(405,287,cs),
(430,411,ls),
(435,438,o),
(438,460,o),
(438,483,cs),
(438,551,o),
(414,592,o),
(351,592,cs),
(325,592,o),
(304,584,o),
(287,569,cs),
(254,538,o),
(236,483,o),
(221,411,cs),
(196,287,ls),
(191,260,o),
(188,238,o),
(188,215,cs),
(188,147,o),
(212,106,o),
(275,106,cs)
);
}
);
width = 600;
},
{
layerId = "AA599D58-A149-49FA-A2EA-5B415EA8A4DA";
shapes = (
{
closed = 1;
nodes = (
(192,-12,o),
(145,13,o),
(114,55,cs),
(83,97,o),
(68,156,o),
(68,228,cs),
(68,243,o),
(69,259,o),
(70,274,cs),
(72,305,o),
(76,337,o),
(81,368,cs),
(97,456,o),
(129,540,o),
(178,605,cs),
(226,669,o),
(291,710,o),
(374,710,cs),
(437,710,o),
(484,686,o),
(515,644,cs),
(546,602,o),
(561,542,o),
(561,470,cs),
(561,455,o),
(561,440,o),
(560,425,cs),
(558,393,o),
(555,362,o),
(548,330,c),
(532,242,o),
(500,158,o),
(452,94,cs),
(403,29,o),
(338,-12,o),
(255,-12,cs)
);
},
{
closed = 1;
nodes = (
(298,59,o),
(326,69,o),
(351,88,c),
(399,127,o),
(433,198,o),
(450,289,cs),
(471,394,ls),
(478,425,o),
(480,456,o),
(480,484,cs),
(480,579,o),
(441,639,o),
(364,639,cs),
(332,639,o),
(304,629,o),
(279,610,cs),
(230,571,o),
(198,500,o),
(179,409,cs),
(158,304,l),
(153,275,o),
(149,242,o),
(149,214,cs),
(149,119,o),
(188,59,o),
(265,59,cs)
);
}
);
width = 600;
},
{
layerId = "6F034211-0C67-4D44-818B-30BEF4D1BE0C";
shapes = (
{
closed = 1;
nodes = (
(194,-12,o),
(148,7,o),
(119,46,cs),
(90,85,o),
(75,142,o),
(75,219,cs),
(75,236,o),
(76,254,o),
(77,273,cs),
(80,310,o),
(85,349,o),
(93,388,cs),
(110,469,o),
(142,549,o),
(188,610,cs),
(234,671,o),
(297,710,o),
(378,710,cs),
(438,710,o),
(484,691,o),
(513,652,cs),
(542,613,o),
(557,556,o),
(557,479,cs),
(557,462,o),
(556,444,o),
(555,425,cs),
(552,388,o),
(547,349,o),
(539,310,cs),
(522,229,o),
(491,149,o),
(445,88,cs),
(399,27,o),
(335,-12,o),
(254,-12,cs)
);
},
{
closed = 1;
nodes = (
(297,8,o),
(335,20,o),
(369,43,cs),
(437,90,o),
(488,180,o),
(513,308,cs),
(525,367,ls),
(533,407,o),
(536,446,o),
(536,479,cs),
(536,612,o),
(494,690,o),
(378,690,cs),
(336,690,o),
(298,678,o),
(264,655,cs),
(195,608,o),
(146,518,o),
(119,390,cs),
(107,331,ls),
(99,291,o),
(96,254,o),
(96,219,cs),
(96,86,o),
(138,8,o),
(254,8,cs)
);
}
);
width = 600;
}
);
unicode = 48;
},
{
glyphname = zero.alt01;
layers = (
{
layerId = "0B7F572C-A94B-4AEA-9B1F-F41A56A498B5";
shapes = (
{
closed = 1;
nodes = (
(168,-12,o),
(112,26,o),
(80,79,cs),
(48,131,o),
(40,197,o),
(40,249,cs),
(40,266,o),
(41,282,o),
(42,297,cs),
(44,328,o),
(48,358,o),
(53,387,cs),
(70,478,o),
(107,558,o),
(159,617,cs),
(211,676,o),
(280,710,o),
(361,710,cs),
(457,710,o),
(513,672,o),
(545,620,cs),
(577,567,o),
(585,502,o),
(585,449,cs),
(585,433,o),
(585,417,o),
(584,402,cs),
(582,370,o),
(579,342,o),
(572,311,c),
(555,220,o),
(518,140,o),
(466,81,cs),
(414,22,o),
(347,-12,o),
(264,-12,cs)
);
},
{
closed = 1;
nodes = (
(303,122,o),
(322,129,o),
(337,143,cs),
(365,171,o),
(378,222,o),
(393,286,c),
(419,417,ls),
(424,442,o),
(427,462,o),
(427,483,cs),
(427,542,o),
(406,576,o),
(347,576,cs),
(323,576,o),
(304,569,o),
(289,555,cs),
(260,527,o),
(245,477,o),
(232,412,cs),
(206,281,ls),
(201,256,o),
(198,236,o),
(198,215,cs),
(198,156,o),
(219,122,o),
(278,122,cs)
);
},
{
closed = 1;
nodes = (
(258,282,o),
(245,307,o),
(245,326,cs),
(245,335,o),
(250,351,o),
(251,360,c),
(258,393,o),
(283,413,o),
(322,413,cs),
(363,413,o),
(377,388,o),
(377,369,cs),
(377,361,o),
(375,347,o),
(372,335,c),
(367,303,o),
(338,282,o),
(301,282,cs)
);
}
);
width = 600;
},
{
layerId = "1D0433F9-D608-41FF-8548-FFD7049742EF";
shapes = (
{
closed = 1;
nodes = (
(174,-12,o),
(120,23,o),
(89,73,cs),
(57,123,o),
(47,187,o),
(47,244,cs),
(47,260,o),
(48,276,o),
(49,291,cs),
(51,322,o),
(55,353,o),
(60,382,cs),
(77,473,o),
(112,554,o),
(164,614,cs),
(215,674,o),
(283,710,o),
(364,710,cs),
(452,710,o),
(506,676,o),
(538,626,cs),
(569,576,o),
(579,513,o),
(579,454,cs),
(579,439,o),
(579,423,o),
(578,408,cs),
(576,376,o),
(573,347,o),
(566,316,c),
(549,225,o),
(514,144,o),
(463,84,cs),
(411,24,o),
(345,-12,o),
(262,-12,cs)
);
},
{
closed = 1;
nodes = (
(302,106,o),
(323,114,o),
(340,129,cs),
(373,160,o),
(392,216,o),
(407,287,cs),
(432,411,ls),
(437,438,o),
(440,460,o),
(440,483,cs),
(440,551,o),
(415,592,o),
(351,592,cs),
(325,592,o),
(304,584,o),
(287,569,cs),
(253,538,o),
(234,483,o),
(219,411,cs),
(194,287,ls),
(189,260,o),
(186,238,o),
(186,215,cs),
(186,147,o),
(211,106,o),
(275,106,cs)
);
},
{
closed = 1;
nodes = (
(263,285,o),
(249,307,o),
(249,327,cs),
(249,335,o),
(253,350,o),
(254,359,c),
(261,390,o),
(283,411,o),
(322,411,cs),
(361,411,o),
(375,389,o),
(375,369,cs),
(375,361,o),
(373,348,o),
(370,337,c),
(365,306,o),
(341,285,o),
(302,285,cs)
);
}
);
width = 600;
},
{
layerId = "AA599D58-A149-49FA-A2EA-5B415EA8A4DA";
shapes = (
{
closed = 1;
nodes = (
(192,-12,o),
(145,13,o),
(114,55,cs),
(83,97,o),
(68,156,o),
(68,228,cs),
(68,243,o),
(69,259,o),
(70,274,cs),
(72,305,o),
(76,337,o),
(81,368,cs),
(97,456,o),
(129,540,o),
(178,605,cs),
(226,669,o),
(291,710,o),
(374,710,cs),
(437,710,o),
(484,686,o),
(515,644,cs),
(546,602,o),
(561,542,o),
(561,470,cs),
(561,455,o),
(561,440,o),
(560,425,cs),
(558,393,o),
(555,362,o),
(548,330,c),
(532,242,o),
(500,158,o),
(452,94,cs),
(403,29,o),
(338,-12,o),
(255,-12,cs)
);
},
{
closed = 1;
nodes = (
(298,59,o),
(326,69,o),
(351,88,c),
(399,127,o),
(433,198,o),
(450,289,cs),
(471,394,ls),
(478,425,o),
(480,456,o),
(480,484,cs),
(480,579,o),
(441,639,o),
(364,639,cs),
(332,639,o),
(304,629,o),
(279,610,cs),
(230,571,o),
(198,500,o),
(179,409,cs),
(158,304,l),
(153,275,o),
(149,242,o),
(149,214,cs),
(149,119,o),
(188,59,o),
(265,59,cs)
);
},
{
closed = 1;
nodes = (
(277,293,o),
(260,306,o),
(260,329,cs),
(260,336,o),
(263,347,o),
(264,355,cs),
(269,380,o),
(282,405,o),
(322,405,cs),
(351,405,o),
(368,392,o),
(368,369,cs),
(368,362,o),
(367,351,o),
(364,343,c),
(359,318,o),
(346,293,o),
(306,293,cs)
);
}
);
width = 600;
},
{
layerId = "6F034211-0C67-4D44-818B-30BEF4D1BE0C";
shapes = (
{
closed = 1;
nodes = (
(194,-12,o),
(148,7,o),
(119,46,cs),
(90,85,o),
(75,142,o),
(75,219,cs),
(75,236,o),
(76,254,o),
(77,273,cs),
(80,310,o),
(85,349,o),
(93,388,cs),
(110,469,o),
(142,549,o),
(188,610,cs),
(234,671,o),
(297,710,o),
(378,710,cs),
(438,710,o),
(484,691,o),
(513,652,cs),
(542,613,o),
(557,556,o),
(557,479,cs),
(557,462,o),
(556,444,o),
(555,425,cs),
(552,388,o),
(547,349,o),
(539,310,cs),
(522,229,o),
(491,149,o),
(445,88,cs),
(399,27,o),
(335,-12,o),
(254,-12,cs)
);
},
{
closed = 1;
nodes = (
(297,8,o),
(335,20,o),
(369,43,cs),
(437,90,o),
(488,180,o),
(513,308,cs),
(525,367,ls),
(533,407,o),
(536,446,o),
(536,479,cs),
(536,612,o),
(494,690,o),
(378,690,cs),
(336,690,o),
(298,678,o),
(264,655,cs),
(195,608,o),
(146,518,o),
(119,390,cs),
(107,331,ls),
(99,291,o),
(96,254,o),
(96,219,cs),
(96,86,o),
(138,8,o),
(254,8,cs)
);
},
{
closed = 1;
nodes = (
(297,324,o),
(292,331,o),
(292,340,cs),
(292,343,o),
(293,348,o),
(294,353,cs),
(297,365,o),
(306,374,o),
(323,374,cs),
(339,374,o),
(344,367,o),
(344,358,cs),
(344,357,o),
(343,350,o),
(342,345,cs),
(341,333,o),
(332,324,o),
(313,324,cs)
);
}
);
width = 600;
}
);
},
{
glyphname = zero.alt02;
layers = (
{
layerId = "0B7F572C-A94B-4AEA-9B1F-F41A56A498B5";
shapes = (
{
closed = 1;
nodes = (
(168,-12,o),
(112,26,o),
(80,79,cs),
(48,131,o),
(40,197,o),
(40,249,cs),
(40,266,o),
(41,282,o),
(42,297,cs),
(44,328,o),
(48,358,o),
(53,387,cs),
(70,478,o),
(107,558,o),
(159,617,cs),
(211,676,o),
(280,710,o),
(361,710,cs),
(457,710,o),
(513,672,o),
(545,620,cs),
(577,567,o),
(585,502,o),
(585,449,cs),
(585,433,o),
(585,417,o),
(584,402,cs),
(582,370,o),
(579,342,o),
(572,311,c),
(555,220,o),
(518,140,o),
(466,81,cs),
(414,22,o),
(347,-12,o),
(264,-12,cs)
);
},
{
closed = 1;
nodes = (
(303,119,o),
(322,126,o),
(336,141,cs),
(364,169,o),
(379,222,o),
(392,286,cs),
(401,329,ls),
(402,333,o),
(405,341,o),
(406,350,c),
(409,362,o),
(411,370,o),
(412,371,c),
(410,371,l),
(296,267,l),
(201,181,l),
(208,142,o),
(233,119,o),
(278,119,cs)
);
},
{
closed = 1;
nodes = (
(322,579,o),
(303,572,o),
(289,558,cs),
(261,529,o),
(246,476,o),
(233,412,cs),
(224,369,ls),
(223,365,o),
(222,357,o),
(219,348,c),
(218,337,o),
(214,327,o),
(213,327,c),
(215,327,l),
(329,431,l),
(424,517,l),
(417,556,o),
(394,579,o),
(347,579,cs)
);
}
);
width = 600;
},
{
layerId = "1D0433F9-D608-41FF-8548-FFD7049742EF";
shapes = (
{
closed = 1;
nodes = (
(174,-12,o),
(120,23,o),
(89,73,cs),
(57,123,o),
(47,187,o),
(47,244,cs),
(47,260,o),
(48,276,o),
(49,291,cs),
(51,322,o),
(55,353,o),
(60,382,cs),
(77,473,o),
(112,554,o),
(164,614,cs),
(215,674,o),
(283,710,o),
(364,710,cs),
(452,710,o),
(506,676,o),
(538,626,cs),
(569,576,o),
(579,513,o),
(579,454,cs),
(579,439,o),
(579,423,o),
(578,408,cs),
(576,376,o),
(573,347,o),
(566,316,c),
(549,225,o),
(514,144,o),
(463,84,cs),
(411,24,o),
(345,-12,o),
(262,-12,cs)
);
},
{
closed = 1;
nodes = (
(302,104,o),
(323,112,o),
(340,128,cs),
(373,159,o),
(392,216,o),
(407,287,cs),
(419,345,ls),
(420,350,o),
(423,360,o),
(424,369,c),
(427,380,o),
(428,389,o),
(429,393,c),
(427,393,l),
(298,275,l),
(189,176,l),
(197,131,o),
(226,104,o),
(275,104,cs)
);
},
{
closed = 1;
nodes = (
(324,594,o),
(303,586,o),
(286,571,c),
(253,539,o),
(234,482,o),
(219,411,cs),
(207,353,ls),
(206,348,o),
(205,338,o),
(202,329,c),
(201,320,o),
(198,309,o),
(197,305,c),
(199,305,l),
(328,423,l),
(437,522,l),
(429,567,o),
(402,594,o),
(351,594,cs)
);
}
);
width = 600;
},
{
layerId = "AA599D58-A149-49FA-A2EA-5B415EA8A4DA";
shapes = (
{
closed = 1;
nodes = (
(192,-12,o),
(145,13,o),
(114,55,cs),
(83,97,o),
(68,156,o),
(68,228,cs),
(68,243,o),
(69,259,o),
(70,274,cs),
(72,305,o),
(76,337,o),
(81,368,cs),
(97,456,o),
(129,540,o),
(178,605,cs),
(226,669,o),
(291,710,o),
(374,710,cs),
(437,710,o),
(484,686,o),
(515,644,cs),
(546,602,o),
(561,542,o),
(561,470,cs),
(561,455,o),
(561,440,o),
(560,425,cs),
(558,393,o),
(555,362,o),
(548,330,c),
(532,242,o),
(500,158,o),
(452,94,cs),
(403,29,o),
(338,-12,o),
(255,-12,cs)
);
},
{
closed = 1;
nodes = (
(298,59,o),
(326,69,o),
(351,88,cs),
(400,127,o),
(435,198,o),
(452,289,cs),
(473,393,l),
(476,404,o),
(477,417,o),
(478,425,cs),
(479,432,o),
(480,446,o),
(481,459,c),
(479,459,l),
(304,300,l),
(152,162,l),
(165,97,o),
(204,59,o),
(265,59,cs)
);
},
{
closed = 1;
nodes = (
(331,639,o),
(303,629,o),
(278,610,cs),
(229,571,o),
(196,500,o),
(177,409,cs),
(156,305,l),
(155,296,o),
(152,281,o),
(151,273,cs),
(150,266,o),
(149,254,o),
(148,239,c),
(150,239,l),
(325,398,l),
(477,536,l),
(464,601,o),
(427,639,o),
(364,639,cs)
);
}
);
width = 600;
},
{
layerId = "6F034211-0C67-4D44-818B-30BEF4D1BE0C";
shapes = (
{
closed = 1;
nodes = (
(194,-12,o),
(148,7,o),
(119,46,cs),
(90,85,o),
(75,142,o),
(75,219,cs),
(75,236,o),
(76,254,o),
(77,273,cs),
(80,310,o),
(85,349,o),
(93,388,cs),
(110,469,o),
(142,549,o),
(188,610,cs),
(234,671,o),
(297,710,o),
(378,710,cs),
(438,710,o),
(484,691,o),
(513,652,cs),
(542,613,o),
(557,556,o),
(557,479,cs),
(557,462,o),
(556,444,o),
(555,425,cs),
(552,388,o),
(547,349,o),
(539,310,cs),
(522,229,o),
(491,149,o),
(445,88,cs),
(399,27,o),
(335,-12,o),
(254,-12,cs)
);
},
{
closed = 1;
nodes = (
(297,8,o),
(335,20,o),
(369,43,cs),
(437,90,o),
(488,180,o),
(513,308,cs),
(525,367,ls),
(533,407,o),
(536,446,o),
(536,479,cs),
(536,496,o),
(537,514,o),
(534,529,c),
(532,529,l),
(312,333,l),
(101,144,l),
(116,57,o),
(162,8,o),
(254,8,cs)
);
},
{
closed = 1;
nodes = (
(336,690,o),
(298,678,o),
(264,655,cs),
(195,608,o),
(146,518,o),
(119,390,cs),
(107,331,ls),
(99,291,o),
(96,254,o),
(96,219,cs),
(96,202,o),
(97,184,o),
(98,169,c),
(100,169,l),
(320,365,l),
(531,554,l),
(516,641,o),
(470,690,o),
(378,690,cs)
);
}
);
width = 600;
}
);
},
{
glyphname = one;
layers = (
{
layerId = "0B7F572C-A94B-4AEA-9B1F-F41A56A498B5";
shapes = (
{
closed = 1;
nodes = (
(364,0,l),
(209,0,l),
(320,548,l),
(152,462,l),
(184,617,l),
(339,698,l),
(504,698,l)
);
}
);
width = 600;
},
{
layerId = "1D0433F9-D608-41FF-8548-FFD7049742EF";
shapes = (
{
closed = 1;
nodes = (
(356,0,l),
(220,0,l),
(334,565,l),
(166,477,l),
(194,615,l),
(349,698,l),
(496,698,l)
);
}
);
width = 600;
},
{
layerId = "AA599D58-A149-49FA-A2EA-5B415EA8A4DA";
shapes = (
{
closed = 1;
nodes = (
(333,0,l),
(252,0,l),
(375,615,l),
(207,523,l),
(224,610,l),
(380,698,l),
(472,698,l)
);
}
);
width = 600;
},
{
layerId = "6F034211-0C67-4D44-818B-30BEF4D1BE0C";
shapes = (
{
closed = 1;
nodes = (
(309,0,l),
(287,0,l),
(421,674,l),
(254,588,l),
(259,612,l),
(424,698,l),
(448,698,l)
);
}
);
width = 600;
}
);
unicode = 49;
},
{
glyphname = two;
layers = (
{
layerId = "0B7F572C-A94B-4AEA-9B1F-F41A56A498B5";
shapes = (
{
closed = 1;
nodes = (
(521,137,l),
(494,0,l),
(5,0,l),
(35,149,l),
(282,326,ls),
(311,347,o),
(334,365,o),
(351,381,cs),
(385,413,o),
(398,442,o),
(405,475,cs),
(408,486,o),
(407,487,o),
(407,495,cs),
(407,512,o),
(403,525,o),
(396,536,cs),
(381,557,o),
(358,568,o),
(331,568,cs),
(304,568,o),
(281,558,o),
(263,539,cs),
(245,519,o),
(232,498,o),
(223,475,c),
(84,530,l),
(99,563,o),
(119,594,o),
(142,621,cs),
(189,676,o),
(255,710,o),
(344,710,cs),
(393,710,o),
(435,702,o),
(470,685,cs),
(541,652,o),
(580,592,o),
(580,511,cs),
(580,470,o),
(571,435,o),
(554,404,c),
(518,343,o),
(451,291,o),
(359,226,c),
(228,137,l)
);
}
);
width = 600;
},
{
layerId = "1D0433F9-D608-41FF-8548-FFD7049742EF";
shapes = (
{
closed = 1;
nodes = (
(512,121,l),
(488,0,l),
(12,0,l),
(39,134,l),
(289,319,ls),
(318,340,o),
(341,360,o),
(359,378,cs),
(394,413,o),
(410,445,o),
(417,478,cs),
(420,489,o),
(420,496,o),
(420,505,cs),
(420,521,o),
(417,535,o),
(410,547,cs),
(396,571,o),
(370,585,o),
(337,585,cs),
(307,585,o),
(282,575,o),
(263,555,cs),
(243,535,o),
(228,512,o),
(217,485,c),
(95,534,l),
(110,567,o),
(130,597,o),
(153,624,cs),
(199,677,o),
(262,710,o),
(349,710,cs),
(395,710,o),
(435,702,o),
(468,686,cs),
(535,653,o),
(572,594,o),
(572,517,cs),
(572,477,o),
(563,441,o),
(546,410,cs),
(511,347,o),
(446,294,o),
(357,230,cs),
(205,121,l)
);
}
);
width = 600;
},
{
layerId = "AA599D58-A149-49FA-A2EA-5B415EA8A4DA";
shapes = (
{
closed = 1;
nodes = (
(485,72,l),
(470,0,l),
(34,0,l),
(52,90,l),
(310,298,ls),
(339,321,o),
(363,344,o),
(383,367,cs),
(423,411,o),
(445,454,o),
(452,487,cs),
(455,498,o),
(458,520,o),
(458,535,cs),
(458,549,o),
(455,564,o),
(449,580,cs),
(437,611,o),
(410,637,o),
(355,637,cs),
(316,637,o),
(285,627,o),
(261,606,cs),
(237,585,o),
(217,554,o),
(200,515,c),
(128,546,l),
(143,579,o),
(162,608,o),
(184,633,cs),
(227,682,o),
(284,710,o),
(363,710,cs),
(401,710,o),
(434,702,o),
(462,687,c),
(517,655,o),
(548,601,o),
(548,536,cs),
(548,497,o),
(540,461,o),
(524,428,cs),
(491,362,o),
(431,304,o),
(352,241,cs),
(136,72,l)
);
}
);
width = 600;
},
{
layerId = "6F034211-0C67-4D44-818B-30BEF4D1BE0C";
shapes = (
{
closed = 1;
nodes = (
(470,20,l),
(467,0,l),
(33,0,l),
(38,24,l),
(367,302,ls),
(392,323,o),
(414,343,o),
(434,364,cs),
(473,405,o),
(500,447,o),
(508,490,c),
(517,531,o),
(517,545,o),
(517,556,cs),
(517,583,o),
(512,606,o),
(501,626,cs),
(480,666,o),
(437,690,o),
(368,690,cs),
(319,690,o),
(278,679,o),
(245,657,cs),
(212,635,o),
(185,600,o),
(165,551,c),
(146,557,l),
(160,592,o),
(178,621,o),
(199,644,c),
(242,688,o),
(299,710,o),
(370,710,cs),
(409,710,o),
(440,703,o),
(465,690,c),
(514,662,o),
(538,615,o),
(538,556,cs),
(538,521,o),
(533,490,o),
(522,461,cs),
(501,403,o),
(455,350,o),
(383,289,cs),
(63,20,l)
);
}
);
width = 600;
}
);
unicode = 50;
},
{
glyphname = three;
layers = (
{
layerId = "0B7F572C-A94B-4AEA-9B1F-F41A56A498B5";
shapes = (
{
closed = 1;
nodes = (
(231,428,l),
(294,428,ls),
(366,428,o),
(401,458,o),
(406,482,cs),
(409,493,o),
(410,503,o),
(410,511,cs),
(410,550,o),
(379,576,o),
(330,576,cs),
(281,576,o),
(236,552,o),
(192,495,c),
(104,599,l),
(139,633,o),
(175,660,o),
(213,680,cs),
(250,700,o),
(299,710,o),
(360,710,cs),
(407,710,o),
(447,703,o),
(481,690,c),
(548,662,o),
(585,610,o),
(585,543,cs),
(585,514,o),
(579,487,o),
(566,463,cs),
(540,415,o),
(492,384,o),
(421,367,c),
(420,362,l),
(492,347,o),
(530,295,o),
(530,215,cs),
(530,172,o),
(519,134,o),
(497,99,cs),
(452,30,o),
(367,-12,o),
(243,-12,cs),
(196,-12,o),
(157,-6,o),
(126,7,cs),
(63,32,o),
(31,76,o),
(10,124,c),
(128,209,l),
(148,157,o),
(185,121,o),
(253,121,cs),
(310,121,o),
(351,152,o),
(359,196,c),
(362,207,o),
(360,210,o),
(360,219,cs),
(360,264,o),
(327,290,o),
(275,290,cs),
(204,290,l)
);
}
);
width = 600;
},
{
layerId = "1D0433F9-D608-41FF-8548-FFD7049742EF";
shapes = (
{
closed = 1;
nodes = (
(231,421,l),
(296,421,ls),
(369,421,o),
(408,452,o),
(416,492,c),
(419,503,o),
(420,512,o),
(420,520,cs),
(420,564,o),
(387,591,o),
(334,591,cs),
(281,591,o),
(236,568,o),
(193,509,c),
(113,599,l),
(144,632,o),
(179,659,o),
(216,680,cs),
(253,700,o),
(300,710,o),
(359,710,cs),
(403,710,o),
(441,703,o),
(473,690,c),
(537,662,o),
(573,611,o),
(573,546,cs),
(573,515,o),
(566,488,o),
(553,464,cs),
(526,415,o),
(478,383,o),
(411,367,c),
(410,362,l),
(481,349,o),
(521,296,o),
(521,216,cs),
(521,173,o),
(510,134,o),
(489,99,c),
(445,30,o),
(363,-12,o),
(244,-12,cs),
(199,-12,o),
(162,-6,o),
(132,7,c),
(71,31,o),
(37,74,o),
(17,121,c),
(122,196,l),
(142,143,o),
(180,106,o),
(253,106,cs),
(320,106,o),
(360,140,o),
(371,195,c),
(374,206,o),
(373,212,o),
(373,221,cs),
(373,270,o),
(338,300,o),
(279,300,cs),
(207,300,l)
);
}
);
width = 600;
},
{
layerId = "AA599D58-A149-49FA-A2EA-5B415EA8A4DA";
shapes = (
{
closed = 1;
nodes = (
(231,401,l),
(302,401,ls),
(379,401,o),
(429,434,o),
(446,521,c),
(449,532,o),
(449,539,o),
(449,547,cs),
(449,606,o),
(412,637,o),
(347,637,cs),
(282,637,o),
(234,613,o),
(195,550,c),
(139,599,l),
(162,630,o),
(191,657,o),
(226,678,cs),
(261,699,o),
(304,710,o),
(357,710,cs),
(392,710,o),
(424,703,o),
(451,690,cs),
(506,663,o),
(538,615,o),
(538,554,cs),
(538,521,o),
(531,491,o),
(517,466,cs),
(488,414,o),
(437,380,o),
(380,368,c),
(379,363,l),
(446,352,o),
(495,300,o),
(495,219,cs),
(495,174,o),
(485,135,o),
(465,100,cs),
(425,31,o),
(350,-12,o),
(247,-12,cs),
(209,-12,o),
(176,-6,o),
(148,6,cs),
(92,29,o),
(56,68,o),
(37,111,c),
(103,156,l),
(126,99,o),
(165,61,o),
(254,61,cs),
(349,61,o),
(390,106,o),
(407,191,c),
(410,202,o),
(412,216,o),
(412,228,cs),
(412,288,o),
(371,330,o),
(290,330,cs),
(216,330,l)
);
}
);
width = 600;
},
{
layerId = "6F034211-0C67-4D44-818B-30BEF4D1BE0C";
shapes = (
{
closed = 1;
nodes = (
(211,376,l),
(305,376,ls),
(413,376,o),
(485,425,o),
(504,512,c),
(511,539,o),
(511,547,o),
(511,558,cs),
(511,641,o),
(453,690,o),
(360,690,cs),
(267,690,o),
(212,659,o),
(172,590,c),
(154,599,l),
(173,634,o),
(200,662,o),
(234,681,cs),
(267,700,o),
(310,710,o),
(363,710,cs),
(396,710,o),
(425,704,o),
(450,693,cs),
(501,669,o),
(533,624,o),
(533,560,cs),
(533,525,o),
(526,493,o),
(512,466,cs),
(484,411,o),
(433,377,o),
(362,366,c),
(361,363,l),
(430,354,o),
(481,297,o),
(481,216,cs),
(481,169,o),
(471,129,o),
(451,95,cs),
(411,27,o),
(338,-12,o),
(245,-12,cs),
(212,-12,o),
(183,-8,o),
(156,-1,c),
(102,15,o),
(61,46,o),
(40,95,c),
(57,105,l),
(88,36,o),
(151,8,o),
(246,8,cs),
(355,8,o),
(434,67,o),
(451,160,cs),
(458,195,o),
(459,207,o),
(459,216,cs),
(459,300,o),
(407,356,o),
(302,356,cs),
(207,356,l)
);
}
);
width = 600;
}
);
unicode = 51;
},
{
glyphname = four;
layers = (
{
layerId = "0B7F572C-A94B-4AEA-9B1F-F41A56A498B5";
shapes = (
{
closed = 1;
nodes = (
(432,0,l),
(279,0,l),
(305,133,l),
(4,133,l),
(32,276,l),
(382,698,l),
(572,698,l),
(484,260,l),
(567,260,l),
(540,133,l),
(459,133,l)
);
},
{
closed = 1;
nodes = (
(367,508,l),
(165,260,l),
(330,260,l),
(380,508,l)
);
}
);
width = 600;
},
{
layerId = "1D0433F9-D608-41FF-8548-FFD7049742EF";
shapes = (
{
closed = 1;
nodes = (
(424,0,l),
(289,0,l),
(316,134,l),
(11,134,l),
(36,261,l),
(392,698,l),
(564,698,l),
(473,246,l),
(559,246,l),
(536,134,l),
(451,134,l)
);
},
{
closed = 1;
nodes = (
(385,534,l),
(154,246,l),
(338,246,l),
(396,534,l)
);
}
);
width = 600;
},
{
layerId = "AA599D58-A149-49FA-A2EA-5B415EA8A4DA";
shapes = (
{
closed = 1;
nodes = (
(399,0,l),
(320,0,l),
(348,137,l),
(32,137,l),
(47,216,l),
(422,698,l),
(539,698,l),
(441,205,l),
(536,205,l),
(523,137,l),
(427,137,l)
);
},
{
closed = 1;
nodes = (
(439,612,l),
(120,205,l),
(362,205,l),
(443,612,l)
);
}
);
width = 600;
},
{
layerId = "6F034211-0C67-4D44-818B-30BEF4D1BE0C";
shapes = (
{
closed = 1;
nodes = (
(379,0,l),
(358,0,l),
(390,160,l),
(25,160,l),
(29,181,l),
(490,698,l),
(519,698,l),
(415,179,l),
(532,179,l),
(528,160,l),
(411,160,l)
);
},
{
closed = 1;
nodes = (
(489,670,l),
(53,179,l),
(394,179,l),
(492,670,l)
);
}
);
width = 600;
}
);
unicode = 52;
},
{
glyphname = five;
layers = (
{
layerId = "0B7F572C-A94B-4AEA-9B1F-F41A56A498B5";
shapes = (
{
closed = 1;
nodes = (
(595,698,l),
(566,554,l),
(253,554,l),
(200,344,l),
(209,344,l),
(249,419,o),
(293,461,o),
(378,461,cs),
(414,461,o),
(445,454,o),
(471,439,cs),
(523,409,o),
(553,349,o),
(553,264,cs),
(553,196,o),
(527,128,o),
(476,76,cs),
(425,23,o),
(351,-12,o),
(252,-12,cs),
(201,-12,o),
(159,-6,o),
(128,8,c),
(64,34,o),
(31,79,o),
(11,127,c),
(143,211,l),
(150,186,o),
(164,165,o),
(184,148,cs),
(203,131,o),
(228,122,o),
(258,122,cs),
(323,122,o),
(360,166,o),
(369,213,cs),
(372,228,o),
(374,239,o),
(374,252,cs),
(374,301,o),
(340,328,o),
(293,328,cs),
(268,328,o),
(247,323,o),
(230,314,cs),
(213,304,o),
(201,294,o),
(192,284,c),
(64,302,l),
(168,698,l)
);
}
);
width = 600;
},
{
layerId = "1D0433F9-D608-41FF-8548-FFD7049742EF";
shapes = (
{
closed = 1;
nodes = (
(589,698,l),
(564,572,l),
(256,572,l),
(199,346,l),
(208,346,l),
(247,417,o),
(288,455,o),
(371,455,cs),
(406,455,o),
(437,448,o),
(463,433,cs),
(515,403,o),
(545,345,o),
(545,262,cs),
(545,193,o),
(519,125,o),
(470,73,cs),
(421,21,o),
(348,-12,o),
(255,-12,cs),
(207,-12,o),
(168,-6,o),
(137,7,cs),
(76,32,o),
(42,76,o),
(22,123,c),
(138,197,l),
(146,171,o),
(160,150,o),
(181,133,cs),
(201,116,o),
(228,107,o),
(262,107,cs),
(333,107,o),
(373,152,o),
(385,212,cs),
(388,227,o),
(390,238,o),
(390,253,cs),
(390,306,o),
(356,337,o),
(300,337,cs),
(274,337,o),
(252,332,o),
(234,322,cs),
(216,311,o),
(201,300,o),
(190,287,c),
(77,303,l),
(179,698,l)
);
}
);
width = 600;
},
{
layerId = "AA599D58-A149-49FA-A2EA-5B415EA8A4DA";
shapes = (
{
closed = 1;
nodes = (
(572,698,l),
(557,626,l),
(265,626,l),
(197,351,l),
(204,351,l),
(239,410,o),
(276,436,o),
(349,436,cs),
(382,436,o),
(412,429,o),
(438,415,cs),
(490,386,o),
(522,332,o),
(522,257,cs),
(522,181,o),
(498,115,o),
(453,66,cs),
(408,17,o),
(343,-12,o),
(263,-12,cs),
(225,-12,o),
(192,-6,o),
(165,6,c),
(109,29,o),
(73,68,o),
(56,111,c),
(122,156,l),
(133,127,o),
(150,104,o),
(173,87,cs),
(195,70,o),
(228,61,o),
(273,61,cs),
(360,61,o),
(412,109,o),
(432,208,cs),
(435,223,o),
(438,237,o),
(438,256,cs),
(438,323,o),
(403,365,o),
(322,365,cs),
(293,365,o),
(268,359,o),
(246,346,cs),
(224,333,o),
(204,316,o),
(185,296,c),
(117,307,l),
(213,698,l)
);
}
);
width = 600;
},
{
layerId = "6F034211-0C67-4D44-818B-30BEF4D1BE0C";
shapes = (
{
closed = 1;
nodes = (
(575,698,l),
(572,678,l),
(248,678,l),
(158,344,l),
(161,343,l),
(206,394,o),
(258,413,o),
(329,413,cs),
(368,413,o),
(401,406,o),
(427,393,cs),
(479,366,o),
(505,316,o),
(505,245,cs),
(505,165,o),
(481,100,o),
(438,56,cs),
(394,12,o),
(333,-12,o),
(260,-12,cs),
(231,-12,o),
(203,-8,o),
(177,-1,c),
(124,15,o),
(82,46,o),
(61,95,c),
(78,105,l),
(93,69,o),
(118,44,o),
(152,30,c),
(185,15,o),
(221,8,o),
(259,8,cs),
(384,8,o),
(454,75,o),
(474,178,cs),
(482,218,o),
(483,233,o),
(483,245,cs),
(483,337,o),
(435,393,o),
(328,393,cs),
(289,393,o),
(257,387,o),
(232,376,cs),
(207,364,o),
(182,346,o),
(157,323,c),
(133,326,l),
(233,698,l)
);
}
);
width = 600;
}
);
unicode = 53;
},
{
glyphname = six;
layers = (
{
layerId = "0B7F572C-A94B-4AEA-9B1F-F41A56A498B5";
shapes = (
{
closed = 1;
nodes = (
(190,-12,o),
(135,10,o),
(96,54,cs),
(57,98,o),
(37,157,o),
(37,230,cs),
(37,255,o),
(38,279,o),
(43,302,cs),
(54,361,o),
(76,415,o),
(108,464,cs),
(172,563,o),
(266,643,o),
(361,698,c),
(599,698,l),
(536,659,o),
(480,622,o),
(431,589,cs),
(334,521,o),
(266,453,o),
(229,350,c),
(238,347,l),
(248,363,o),
(260,379,o),
(273,396,cs),
(300,429,o),
(340,454,o),
(400,454,cs),
(451,454,o),
(490,436,o),
(519,400,cs),
(547,364,o),
(561,318,o),
(561,261,cs),
(561,244,o),
(559,225,o),
(556,209,cs),
(549,170,o),
(532,133,o),
(507,99,cs),
(456,31,o),
(374,-12,o),
(263,-12,cs)
);
},
{
closed = 1;
nodes = (
(298,116,o),
(315,120,o),
(330,127,cs),
(359,141,o),
(377,170,o),
(384,207,cs),
(387,223,o),
(390,238,o),
(390,253,cs),
(390,300,o),
(365,328,o),
(312,328,cs),
(292,328,o),
(275,325,o),
(261,318,cs),
(232,304,o),
(215,277,o),
(207,237,c),
(203,221,o),
(201,207,o),
(201,192,cs),
(201,147,o),
(224,116,o),
(279,116,cs)
);
}
);
width = 600;
},
{
layerId = "1D0433F9-D608-41FF-8548-FFD7049742EF";
shapes = (
{
closed = 1;
nodes = (
(194,-12,o),
(140,9,o),
(102,52,cs),
(64,94,o),
(45,151,o),
(45,223,cs),
(45,248,o),
(47,273,o),
(52,297,cs),
(63,355,o),
(85,409,o),
(117,460,cs),
(181,560,o),
(275,643,o),
(370,698,c),
(577,698,l),
(516,660,o),
(461,624,o),
(413,589,cs),
(317,519,o),
(250,446,o),
(215,347,c),
(223,344,l),
(234,362,o),
(247,379,o),
(261,395,cs),
(289,427,o),
(328,449,o),
(384,449,cs),
(435,449,o),
(476,431,o),
(506,396,cs),
(535,361,o),
(550,314,o),
(550,257,cs),
(550,240,o),
(548,221,o),
(545,204,cs),
(538,165,o),
(522,129,o),
(497,96,cs),
(448,30,o),
(368,-12,o),
(264,-12,cs)
);
},
{
closed = 1;
nodes = (
(299,102,o),
(318,106,o),
(335,115,cs),
(367,131,o),
(388,163,o),
(396,206,cs),
(399,221,o),
(401,236,o),
(401,249,cs),
(401,304,o),
(372,337,o),
(312,337,cs),
(290,337,o),
(271,333,o),
(255,325,cs),
(222,308,o),
(202,277,o),
(193,233,cs),
(190,218,o),
(188,205,o),
(188,190,cs),
(188,137,o),
(217,102,o),
(277,102,cs)
);
}
);
width = 600;
},
{
layerId = "AA599D58-A149-49FA-A2EA-5B415EA8A4DA";
shapes = (
{
closed = 1;
nodes = (
(205,-12,o),
(156,7,o),
(122,44,cs),
(87,81,o),
(70,134,o),
(70,202,cs),
(70,229,o),
(73,256,o),
(78,281,cs),
(89,338,o),
(111,394,o),
(143,447,cs),
(207,554,o),
(301,645,o),
(398,698,c),
(512,698,l),
(456,664,o),
(405,628,o),
(359,589,cs),
(267,511,o),
(201,426,o),
(174,337,c),
(178,335,l),
(193,359,o),
(208,378,o),
(224,393,cs),
(256,421,o),
(292,434,o),
(335,434,cs),
(390,434,o),
(434,417,o),
(468,384,c),
(501,350,o),
(518,304,o),
(518,245,cs),
(518,226,o),
(516,209,o),
(513,190,cs),
(506,151,o),
(491,116,o),
(468,85,cs),
(422,24,o),
(352,-12,o),
(268,-12,cs)
);
},
{
closed = 1;
nodes = (
(300,60,o),
(326,66,o),
(348,78,cs),
(391,102,o),
(420,146,o),
(431,202,c),
(434,213,o),
(435,226,o),
(435,238,cs),
(435,317,o),
(391,363,o),
(312,363,cs),
(283,363,o),
(258,357,o),
(236,345,cs),
(192,321,o),
(164,278,o),
(152,221,c),
(151,212,o),
(148,197,o),
(148,185,cs),
(148,106,o),
(194,60,o),
(271,60,cs)
);
}
);
width = 600;
},
{
layerId = "6F034211-0C67-4D44-818B-30BEF4D1BE0C";
shapes = (
{
closed = 1;
nodes = (
(204,-12,o),
(158,5,o),
(129,39,cs),
(100,72,o),
(85,115,o),
(85,168,cs),
(85,196,o),
(88,224,o),
(93,251,cs),
(105,312,o),
(128,371,o),
(163,426,cs),
(231,537,o),
(337,633,o),
(460,698,c),
(494,698,l),
(428,661,o),
(371,622,o),
(324,581,cs),
(228,500,o),
(165,409,o),
(125,297,c),
(128,296,l),
(143,325,o),
(162,349,o),
(184,367,cs),
(228,402,o),
(283,416,o),
(339,416,cs),
(394,416,o),
(437,401,o),
(470,371,c),
(502,340,o),
(518,298,o),
(518,245,cs),
(518,226,o),
(516,208,o),
(513,191,cs),
(506,152,o),
(491,118,o),
(468,87,cs),
(423,26,o),
(352,-12,o),
(267,-12,cs)
);
},
{
closed = 1;
nodes = (
(305,8,o),
(341,16,o),
(372,31,cs),
(435,62,o),
(477,118,o),
(488,183,cs),
(495,223,o),
(496,236,o),
(496,245,cs),
(496,334,o),
(445,396,o),
(336,396,cs),
(297,396,o),
(262,388,o),
(231,373,cs),
(169,342,o),
(127,288,o),
(114,221,cs),
(107,182,o),
(106,171,o),
(106,160,cs),
(106,71,o),
(157,8,o),
(266,8,cs)
);
}
);
width = 600;
}
);
unicode = 54;
},
{
glyphname = seven;
layers = (
{
layerId = "0B7F572C-A94B-4AEA-9B1F-F41A56A498B5";
shapes = (
{
closed = 1;
nodes = (
(277,0,l),
(109,0,l),
(450,570,l),
(111,570,l),
(137,698,l),
(631,698,l),
(604,563,l)
);
}
);
width = 600;
},
{
layerId = "1D0433F9-D608-41FF-8548-FFD7049742EF";
shapes = (
{
closed = 1;
nodes = (
(261,0,l),
(114,0,l),
(464,584,l),
(121,584,l),
(144,698,l),
(624,698,l),
(600,577,l)
);
}
);
width = 600;
},
{
layerId = "AA599D58-A149-49FA-A2EA-5B415EA8A4DA";
shapes = (
{
closed = 1;
nodes = (
(214,0,l),
(128,0,l),
(507,627,l),
(152,627,l),
(166,698,l),
(603,698,l),
(587,619,l)
);
}
);
width = 600;
},
{
layerId = "6F034211-0C67-4D44-818B-30BEF4D1BE0C";
shapes = (
{
closed = 1;
nodes = (
(169,0,l),
(144,0,l),
(579,678,l),
(169,678,l),
(173,698,l),
(608,698,l),
(604,678,l)
);
}
);
width = 600;
}
);
unicode = 55;
},
{
glyphname = eight;
layers = (
{
layerId = "0B7F572C-A94B-4AEA-9B1F-F41A56A498B5";
shapes = (
{
closed = 1;
nodes = (
(175,-12,o),
(116,4,o),
(79,37,cs),
(42,70,o),
(23,112,o),
(23,163,cs),
(23,198,o),
(30,228,o),
(44,254,cs),
(72,306,o),
(123,343,o),
(188,359,c),
(188,366,l),
(137,389,o),
(107,434,o),
(107,505,cs),
(107,537,o),
(116,569,o),
(135,601,cs),
(172,664,o),
(249,710,o),
(376,710,cs),
(521,710,o),
(588,645,o),
(588,550,cs),
(588,520,o),
(582,494,o),
(569,471,cs),
(544,426,o),
(501,391,o),
(446,368,c),
(445,360,l),
(508,339,o),
(544,295,o),
(544,206,cs),
(544,173,o),
(533,139,o),
(510,106,cs),
(465,38,o),
(378,-12,o),
(255,-12,cs)
);
},
{
closed = 1;
nodes = (
(286,114,o),
(303,117,o),
(317,124,c),
(345,136,o),
(364,161,o),
(369,192,cs),
(372,207,o),
(372,214,o),
(372,226,cs),
(372,269,o),
(347,293,o),
(298,293,cs),
(279,293,o),
(262,290,o),
(248,284,cs),
(219,271,o),
(203,247,o),
(195,215,cs),
(192,200,o),
(192,194,o),
(192,181,cs),
(192,138,o),
(218,114,o),
(266,114,cs)
);
},
{
closed = 1;
nodes = (
(387,415,o),
(416,448,o),
(424,485,cs),
(427,501,o),
(431,519,o),
(431,527,cs),
(431,562,o),
(408,584,o),
(355,584,cs),
(295,584,o),
(266,550,o),
(258,514,c),
(255,497,o),
(251,480,o),
(251,472,cs),
(251,437,o),
(274,415,o),
(327,415,cs)
);
}
);
width = 600;
},
{
layerId = "1D0433F9-D608-41FF-8548-FFD7049742EF";
shapes = (
{
closed = 1;
nodes = (
(180,-12,o),
(124,5,o),
(87,38,cs),
(50,71,o),
(31,113,o),
(31,165,cs),
(31,198,o),
(38,228,o),
(52,255,cs),
(79,308,o),
(130,346,o),
(198,361,c),
(199,368,l),
(146,391,o),
(115,437,o),
(115,505,cs),
(115,539,o),
(125,572,o),
(144,603,cs),
(182,666,o),
(258,710,o),
(375,710,cs),
(514,710,o),
(581,645,o),
(581,550,cs),
(581,521,o),
(575,495,o),
(563,472,cs),
(538,425,o),
(494,389,o),
(437,368,c),
(436,360,l),
(500,340,o),
(537,294,o),
(537,210,cs),
(537,173,o),
(526,138,o),
(504,104,cs),
(460,36,o),
(376,-12,o),
(257,-12,cs)
);
},
{
closed = 1;
nodes = (
(289,100,o),
(308,104,o),
(324,111,cs),
(356,126,o),
(377,154,o),
(384,190,cs),
(387,205,o),
(388,213,o),
(388,226,cs),
(388,274,o),
(358,303,o),
(299,303,cs),
(278,303,o),
(259,299,o),
(243,292,cs),
(210,277,o),
(190,250,o),
(182,213,cs),
(179,198,o),
(178,190,o),
(178,177,cs),
(178,129,o),
(210,100,o),
(267,100,cs)
);
},
{
closed = 1;
nodes = (
(392,411,o),
(427,447,o),
(436,492,cs),
(439,507,o),
(442,522,o),
(442,531,cs),
(442,571,o),
(414,598,o),
(357,598,cs),
(293,598,o),
(258,562,o),
(249,517,cs),
(246,502,o),
(243,487,o),
(243,478,cs),
(243,438,o),
(271,411,o),
(328,411,cs)
);
}
);
width = 600;
},
{
layerId = "AA599D58-A149-49FA-A2EA-5B415EA8A4DA";
shapes = (
{
closed = 1;
nodes = (
(197,-12,o),
(146,5,o),
(109,40,cs),
(72,74,o),
(54,117,o),
(54,170,cs),
(54,201,o),
(61,230,o),
(74,258,cs),
(101,314,o),
(153,357,o),
(229,366,c),
(231,374,l),
(170,397,o),
(140,444,o),
(140,505,cs),
(140,544,o),
(150,580,o),
(170,611,cs),
(209,673,o),
(281,710,o),
(372,710,cs),
(489,710,o),
(559,646,o),
(559,551,cs),
(559,525,o),
(553,500,o),
(542,475,cs),
(519,425,o),
(475,384,o),
(411,368,c),
(409,360,l),
(477,345,o),
(517,289,o),
(517,222,cs),
(517,175,o),
(507,135,o),
(487,100,cs),
(447,30,o),
(371,-12,o),
(264,-12,cs)
);
},
{
closed = 1;
nodes = (
(298,59,o),
(323,64,o),
(346,74,cs),
(390,93,o),
(419,131,o),
(430,184,cs),
(433,199,o),
(435,210,o),
(435,226,cs),
(435,290,o),
(388,332,o),
(303,332,cs),
(274,332,o),
(249,327,o),
(227,317,cs),
(182,297,o),
(153,259,o),
(142,206,cs),
(139,191,o),
(137,180,o),
(137,164,cs),
(137,100,o),
(184,59,o),
(269,59,cs)
);
},
{
closed = 1;
nodes = (
(408,400,o),
(460,443,o),
(473,512,c),
(476,523,o),
(476,531,o),
(476,542,cs),
(476,601,o),
(434,639,o),
(362,639,cs),
(286,639,o),
(236,598,o),
(221,527,c),
(220,518,o),
(218,508,o),
(218,497,cs),
(218,438,o),
(260,400,o),
(332,400,cs)
);
}
);
width = 600;
},
{
layerId = "6F034211-0C67-4D44-818B-30BEF4D1BE0C";
shapes = (
{
closed = 1;
nodes = (
(182,-12,o),
(133,3,o),
(99,34,c),
(64,64,o),
(47,104,o),
(47,154,cs),
(47,191,o),
(55,225,o),
(72,255,cs),
(104,315,o),
(165,355,o),
(242,367,c),
(242,371,l),
(175,388,o),
(139,434,o),
(139,506,cs),
(139,547,o),
(149,583,o),
(169,614,cs),
(209,674,o),
(283,710,o),
(372,710,cs),
(487,710,o),
(553,652,o),
(553,561,cs),
(553,527,o),
(546,497,o),
(532,470,cs),
(504,416,o),
(453,379,o),
(389,366,c),
(388,362,l),
(467,341,o),
(506,290,o),
(506,209,cs),
(506,166,o),
(495,127,o),
(472,94,cs),
(427,27,o),
(346,-12,o),
(245,-12,cs)
);
},
{
closed = 1;
nodes = (
(287,8,o),
(323,15,o),
(356,28,cs),
(421,54,o),
(466,101,o),
(477,164,c),
(484,197,o),
(484,205,o),
(484,214,cs),
(484,298,o),
(422,356,o),
(307,356,cs),
(267,356,o),
(231,350,o),
(198,337,cs),
(133,311,o),
(88,263,o),
(76,200,c),
(71,167,o),
(70,159,o),
(70,150,cs),
(70,66,o),
(133,8,o),
(246,8,cs)
);
},
{
closed = 1;
nodes = (
(431,376,o),
(507,431,o),
(523,516,c),
(530,548,o),
(530,557,o),
(530,565,cs),
(530,642,o),
(473,690,o),
(370,690,cs),
(261,690,o),
(185,637,o),
(168,550,c),
(163,518,o),
(162,509,o),
(162,501,cs),
(162,424,o),
(219,376,o),
(322,376,cs)
);
}
);
width = 600;
}
);
unicode = 56;
},
{
glyphname = nine;
layers = (
{
layerId = "0B7F572C-A94B-4AEA-9B1F-F41A56A498B5";
shapes = (
{
closed = 1;
nodes = (
(176,244,o),
(137,262,o),
(109,298,cs),
(80,334,o),
(66,380,o),
(66,437,cs),
(66,456,o),
(68,472,o),
(71,489,cs),
(79,529,o),
(96,566,o),
(121,600,cs),
(171,667,o),
(253,710,o),
(364,710,cs),
(437,710,o),
(493,688,o),
(532,644,cs),
(571,600,o),
(590,541,o),
(590,468,cs),
(590,443,o),
(589,419,o),
(584,396,cs),
(573,337,o),
(552,283,o),
(520,234,cs),
(455,135,o),
(362,56,o),
(266,0,c),
(28,0,l),
(91,40,o),
(147,77,o),
(196,110,cs),
(293,177,o),
(361,247,o),
(398,348,c),
(389,351,l),
(378,335,o),
(367,319,o),
(354,302,cs),
(328,269,o),
(288,244,o),
(227,244,cs)
);
},
{
closed = 1;
nodes = (
(336,370,o),
(353,374,o),
(367,381,cs),
(395,395,o),
(413,422,o),
(420,461,cs),
(423,477,o),
(426,493,o),
(426,506,cs),
(426,553,o),
(401,582,o),
(348,582,cs),
(328,582,o),
(311,579,o),
(297,572,cs),
(268,558,o),
(251,530,o),
(243,491,cs),
(239,474,o),
(237,461,o),
(237,445,cs),
(237,401,o),
(260,370,o),
(315,370,cs)
);
}
);
width = 600;
},
{
layerId = "1D0433F9-D608-41FF-8548-FFD7049742EF";
shapes = (
{
closed = 1;
nodes = (
(194,249,o),
(153,267,o),
(124,302,cs),
(94,337,o),
(79,384,o),
(79,441,cs),
(79,460,o),
(81,477,o),
(84,494,cs),
(92,534,o),
(108,570,o),
(133,603,cs),
(181,668,o),
(261,710,o),
(365,710,cs),
(435,710,o),
(489,689,o),
(527,647,cs),
(565,604,o),
(584,547,o),
(584,475,cs),
(584,450,o),
(582,425,o),
(577,401,cs),
(566,343,o),
(545,289,o),
(513,239,cs),
(448,138,o),
(355,56,o),
(259,0,c),
(52,0,l),
(113,39,o),
(168,75,o),
(216,110,cs),
(312,179,o),
(379,254,o),
(414,351,c),
(406,354,l),
(395,336,o),
(382,319,o),
(368,303,cs),
(340,271,o),
(302,249,o),
(245,249,cs)
);
},
{
closed = 1;
nodes = (
(340,361,o),
(359,365,o),
(375,374,c),
(407,390,o),
(428,422,o),
(436,465,cs),
(439,480,o),
(441,495,o),
(441,508,cs),
(441,563,o),
(412,596,o),
(352,596,cs),
(330,596,o),
(311,592,o),
(295,584,cs),
(262,567,o),
(242,536,o),
(233,492,cs),
(230,477,o),
(228,464,o),
(228,449,cs),
(228,396,o),
(257,361,o),
(317,361,cs)
);
}
);
width = 600;
},
{
layerId = "AA599D58-A149-49FA-A2EA-5B415EA8A4DA";
shapes = (
{
closed = 1;
nodes = (
(245,264,o),
(201,281,o),
(168,315,c),
(134,348,o),
(117,394,o),
(117,453,cs),
(117,472,o),
(119,491,o),
(122,508,cs),
(130,548,o),
(145,583,o),
(168,614,cs),
(213,674,o),
(283,710,o),
(367,710,cs),
(430,710,o),
(479,691,o),
(514,654,cs),
(548,617,o),
(565,564,o),
(565,496,cs),
(565,471,o),
(562,444,o),
(557,417,cs),
(546,360,o),
(524,305,o),
(492,252,cs),
(428,144,o),
(336,55,o),
(237,0,c),
(123,0,l),
(179,35,o),
(230,71,o),
(276,110,cs),
(368,187,o),
(434,273,o),
(461,361,c),
(457,363,l),
(443,340,o),
(428,321,o),
(412,306,cs),
(379,277,o),
(343,264,o),
(300,264,cs)
);
},
{
closed = 1;
nodes = (
(352,335,o),
(378,341,o),
(400,353,cs),
(443,377,o),
(472,421,o),
(483,477,c),
(486,488,o),
(487,501,o),
(487,513,cs),
(487,592,o),
(443,638,o),
(364,638,cs),
(335,638,o),
(310,632,o),
(288,620,cs),
(244,596,o),
(216,553,o),
(204,496,c),
(203,487,o),
(200,472,o),
(200,460,cs),
(200,381,o),
(246,335,o),
(323,335,cs)
);
}
);
width = 600;
},
{
layerId = "6F034211-0C67-4D44-818B-30BEF4D1BE0C";
shapes = (
{
closed = 1;
nodes = (
(238,282,o),
(195,297,o),
(163,328,cs),
(130,359,o),
(114,400,o),
(114,453,cs),
(114,472,o),
(116,490,o),
(119,507,cs),
(127,546,o),
(142,581,o),
(165,612,cs),
(209,672,o),
(280,710,o),
(365,710,cs),
(428,710,o),
(475,693,o),
(504,660,cs),
(533,627,o),
(547,583,o),
(547,530,cs),
(547,502,o),
(544,474,o),
(539,447,cs),
(528,386,o),
(505,328,o),
(470,273,cs),
(401,161,o),
(295,67,o),
(172,0,c),
(138,0,l),
(205,38,o),
(262,77,o),
(309,118,cs),
(404,198,o),
(467,289,o),
(507,401,c),
(504,402,l),
(489,373,o),
(470,349,o),
(448,332,cs),
(404,296,o),
(350,282,o),
(293,282,cs)
);
},
{
closed = 1;
nodes = (
(335,302,o),
(371,310,o),
(402,325,cs),
(464,356,o),
(505,412,o),
(518,477,cs),
(525,516,o),
(526,529,o),
(526,538,cs),
(526,627,o),
(475,690,o),
(366,690,cs),
(327,690,o),
(291,682,o),
(260,667,cs),
(197,636,o),
(156,582,o),
(144,515,cs),
(137,475,o),
(136,464,o),
(136,453,cs),
(136,364,o),
(187,302,o),
(296,302,cs)
);
}
);
width = 600;
}
);
unicode = 57;
},
{
glyphname = zero.tosf;
layers = (
{
layerId = "0B7F572C-A94B-4AEA-9B1F-F41A56A498B5";
shapes = (
{
closed = 1;
nodes = (
(214,-12,o),
(172,-3,o),
(136,17,c),
(63,55,o),
(22,128,o),
(22,231,cs),
(22,322,o),
(52,402,o),
(108,463,cs),
(164,524,o),
(241,561,o),
(338,561,cs),
(387,561,o),
(429,552,o),
(466,533,cs),
(538,495,o),
(579,423,o),
(579,318,cs),
(579,227,o),
(549,146,o),
(493,86,cs),
(436,25,o),
(358,-12,o),
(263,-12,cs)
);
},
{
closed = 1;
nodes = (
(338,116,o),
(382,154,o),
(395,226,c),
(416,326,ls),
(419,339,o),
(418,348,o),
(418,352,cs),
(418,370,o),
(414,385,o),
(407,397,cs),
(392,421,o),
(365,434,o),
(326,434,cs),
(263,434,o),
(221,395,o),
(206,323,cs),
(186,223,l),
(185,210,o),
(183,201,o),
(183,197,cs),
(183,180,o),
(187,165,o),
(194,153,cs),
(209,129,o),
(236,116,o),
(275,116,cs)
);
}
);
width = 600;
},
{
layerId = "1D0433F9-D608-41FF-8548-FFD7049742EF";
shapes = (
{
closed = 1;
nodes = (
(213,-12,o),
(173,-3,o),
(139,16,cs),
(70,53,o),
(31,126,o),
(31,227,cs),
(31,318,o),
(61,399,o),
(116,460,cs),
(171,521,o),
(247,558,o),
(340,558,cs),
(387,558,o),
(427,549,o),
(462,530,cs),
(530,493,o),
(569,422,o),
(569,319,cs),
(569,228,o),
(539,146,o),
(484,86,cs),
(428,25,o),
(352,-12,o),
(260,-12,cs)
);
},
{
closed = 1;
nodes = (
(343,101,o),
(391,147,o),
(407,227,cs),
(426,321,l),
(429,333,o),
(429,344,o),
(429,352,cs),
(429,372,o),
(425,389,o),
(417,403,cs),
(401,430,o),
(371,445,o),
(328,445,cs),
(257,445,o),
(209,399,o),
(193,319,cs),
(174,225,l),
(173,213,o),
(171,202,o),
(171,194,cs),
(171,175,o),
(175,158,o),
(183,144,cs),
(199,116,o),
(229,101,o),
(272,101,cs)
);
}
);
width = 600;
},
{
layerId = "AA599D58-A149-49FA-A2EA-5B415EA8A4DA";
shapes = (
{
closed = 1;
nodes = (
(210,-12,o),
(176,-3,o),
(147,15,cs),
(90,50,o),
(58,119,o),
(58,214,cs),
(58,306,o),
(88,389,o),
(140,450,cs),
(192,511,o),
(264,548,o),
(345,548,cs),
(386,548,o),
(420,539,o),
(449,522,c),
(506,486,o),
(538,418,o),
(538,322,cs),
(538,230,o),
(508,147,o),
(456,86,cs),
(404,25,o),
(334,-12,o),
(251,-12,cs)
);
},
{
closed = 1;
nodes = (
(357,57,o),
(421,125,o),
(442,230,cs),
(457,305,l),
(460,316,o),
(462,332,o),
(462,351,cs),
(462,378,o),
(457,401,o),
(447,420,cs),
(426,458,o),
(387,479,o),
(334,479,cs),
(241,479,o),
(175,411,o),
(154,306,cs),
(139,231,l),
(138,222,o),
(134,205,o),
(134,186,cs),
(134,159,o),
(139,136,o),
(150,117,c),
(170,78,o),
(210,57,o),
(262,57,cs)
);
}
);
width = 600;
},
{
layerId = "6F034211-0C67-4D44-818B-30BEF4D1BE0C";
shapes = (
{
closed = 1;
nodes = (
(216,-12,o),
(182,-4,o),
(154,14,cs),
(98,48,o),
(69,108,o),
(69,179,cs),
(69,275,o),
(93,363,o),
(139,431,cs),
(185,498,o),
(253,538,o),
(344,538,cs),
(385,538,o),
(419,530,o),
(447,513,cs),
(502,479,o),
(531,418,o),
(531,347,cs),
(531,251,o),
(508,163,o),
(462,96,cs),
(416,28,o),
(347,-12,o),
(256,-12,cs)
);
},
{
closed = 1;
nodes = (
(383,7,o),
(469,94,o),
(497,235,cs),
(505,275,ls),
(509,298,o),
(510,322,o),
(510,347,cs),
(510,378,o),
(504,407,o),
(493,433,c),
(469,485,o),
(421,519,o),
(342,519,cs),
(217,519,o),
(131,434,o),
(103,291,cs),
(95,251,ls),
(91,230,o),
(90,206,o),
(90,179,cs),
(90,148,o),
(96,120,o),
(108,94,cs),
(131,41,o),
(181,7,o),
(258,7,cs)
);
}
);
width = 600;
}
);
},
{
glyphname = zero.tosf.alt01;
layers = (
{
layerId = "0B7F572C-A94B-4AEA-9B1F-F41A56A498B5";
shapes = (
{
closed = 1;
nodes = (
(214,-12,o),
(172,-3,o),
(136,17,c),
(63,55,o),
(22,128,o),
(22,231,cs),
(22,322,o),
(52,402,o),
(108,463,cs),
(164,524,o),
(241,561,o),
(338,561,cs),
(387,561,o),
(429,552,o),
(466,533,cs),
(538,495,o),
(579,423,o),
(579,318,cs),
(579,227,o),
(549,146,o),
(493,86,cs),
(436,25,o),
(358,-12,o),
(263,-12,cs)
);
},
{
closed = 1;
nodes = (
(338,116,o),
(382,154,o),
(395,226,c),
(416,326,ls),
(419,339,o),
(418,348,o),
(418,352,cs),
(418,370,o),
(414,385,o),
(407,397,cs),
(392,421,o),
(365,434,o),
(326,434,cs),
(263,434,o),
(221,395,o),
(206,323,cs),
(186,223,l),
(185,210,o),
(183,201,o),
(183,197,cs),
(183,180,o),
(187,165,o),
(194,153,cs),
(209,129,o),
(236,116,o),
(275,116,cs)
);
},
{
closed = 1;
nodes = (
(249,212,o),
(236,236,o),
(236,253,cs),
(236,262,o),
(240,278,o),
(241,287,c),
(249,319,o),
(275,338,o),
(312,338,cs),
(355,338,o),
(365,315,o),
(365,296,cs),
(365,288,o),
(363,274,o),
(360,262,c),
(355,230,o),
(329,212,o),
(290,212,cs)
);
}
);
width = 600;
},
{
layerId = "1D0433F9-D608-41FF-8548-FFD7049742EF";
shapes = (
{
closed = 1;
nodes = (
(213,-12,o),
(173,-3,o),
(139,16,cs),
(70,53,o),
(31,126,o),
(31,227,cs),
(31,318,o),
(61,399,o),
(116,460,cs),
(171,521,o),
(247,558,o),
(340,558,cs),
(387,558,o),
(427,549,o),
(462,530,cs),
(530,493,o),
(569,422,o),
(569,319,cs),
(569,228,o),
(539,146,o),
(484,86,cs),
(428,25,o),
(352,-12,o),
(260,-12,cs)
);
},
{
closed = 1;
nodes = (
(343,101,o),
(391,147,o),
(407,227,cs),
(426,321,l),
(429,333,o),
(429,344,o),
(429,352,cs),
(429,372,o),
(425,389,o),
(417,403,cs),
(401,430,o),
(371,445,o),
(328,445,cs),
(257,445,o),
(209,399,o),
(193,319,cs),
(174,225,l),
(173,213,o),
(171,202,o),
(171,194,cs),
(171,175,o),
(175,158,o),
(183,144,cs),
(199,116,o),
(229,101,o),
(272,101,cs)
);
},
{
closed = 1;
nodes = (
(253,213,o),
(239,233,o),
(239,252,cs),
(239,260,o),
(243,275,o),
(244,284,c),
(251,313,o),
(273,333,o),
(310,333,cs),
(349,333,o),
(361,313,o),
(361,294,cs),
(361,286,o),
(359,273,o),
(356,262,c),
(351,233,o),
(329,213,o),
(290,213,cs)
);
}
);
width = 600;
},
{
layerId = "AA599D58-A149-49FA-A2EA-5B415EA8A4DA";
shapes = (
{
closed = 1;
nodes = (
(210,-12,o),
(176,-3,o),
(147,15,cs),
(90,50,o),
(58,119,o),
(58,214,cs),
(58,306,o),
(88,389,o),
(140,450,cs),
(192,511,o),
(264,548,o),
(345,548,cs),
(386,548,o),
(420,539,o),
(449,522,c),
(506,486,o),
(538,418,o),
(538,322,cs),
(538,230,o),
(508,147,o),
(456,86,cs),
(404,25,o),
(334,-12,o),
(251,-12,cs)
);
},
{
closed = 1;
nodes = (
(357,57,o),
(421,125,o),
(442,230,cs),
(457,305,l),
(460,316,o),
(462,332,o),
(462,351,cs),
(462,378,o),
(457,401,o),
(447,420,cs),
(426,458,o),
(387,479,o),
(334,479,cs),
(241,479,o),
(175,411,o),
(154,306,cs),
(139,231,l),
(138,222,o),
(134,205,o),
(134,186,cs),
(134,159,o),
(139,136,o),
(150,117,c),
(170,78,o),
(210,57,o),
(262,57,cs)
);
},
{
closed = 1;
nodes = (
(264,217,o),
(248,228,o),
(248,248,cs),
(248,255,o),
(251,266,o),
(252,274,c),
(257,297,o),
(268,319,o),
(305,319,cs),
(332,319,o),
(348,308,o),
(348,288,cs),
(348,281,o),
(347,270,o),
(344,262,c),
(339,239,o),
(328,217,o),
(291,217,cs)
);
}
);
width = 600;
},
{
layerId = "6F034211-0C67-4D44-818B-30BEF4D1BE0C";
shapes = (
{
closed = 1;
nodes = (
(216,-12,o),
(182,-4,o),
(154,14,cs),
(98,48,o),
(69,108,o),
(69,179,cs),
(69,275,o),
(93,363,o),
(139,431,cs),
(185,498,o),
(253,538,o),
(344,538,cs),
(385,538,o),
(419,530,o),
(447,513,cs),
(502,479,o),
(531,418,o),
(531,347,cs),
(531,251,o),
(508,163,o),
(462,96,cs),
(416,28,o),
(347,-12,o),
(256,-12,cs)
);
},
{
closed = 1;
nodes = (
(383,7,o),
(469,94,o),
(497,235,cs),
(505,275,ls),
(509,298,o),
(510,322,o),
(510,347,cs),
(510,378,o),
(504,407,o),
(493,433,c),
(469,485,o),
(421,519,o),
(342,519,cs),
(217,519,o),
(131,434,o),
(103,291,cs),
(95,251,ls),
(91,230,o),
(90,206,o),
(90,179,cs),
(90,148,o),
(96,120,o),
(108,94,cs),
(131,41,o),
(181,7,o),
(258,7,cs)
);
},
{
closed = 1;
nodes = (
(280,239,o),
(275,246,o),
(275,254,cs),
(275,257,o),
(276,262,o),
(277,267,cs),
(280,278,o),
(288,287,o),
(305,287,cs),
(320,287,o),
(325,280,o),
(325,272,cs),
(325,271,o),
(324,264,o),
(323,259,cs),
(322,248,o),
(312,239,o),
(295,239,cs)
);
}
);
width = 600;
}
);
},
{
glyphname = zero.tosf.alt02;
layers = (
{
layerId = "0B7F572C-A94B-4AEA-9B1F-F41A56A498B5";
shapes = (
{
closed = 1;
nodes = (
(214,-12,o),
(172,-3,o),
(136,17,c),
(63,55,o),
(22,128,o),
(22,231,cs),
(22,322,o),
(52,402,o),
(108,463,cs),
(164,524,o),
(241,561,o),
(338,561,cs),
(387,561,o),
(429,552,o),
(466,533,cs),
(538,495,o),
(579,423,o),
(579,318,cs),
(579,227,o),
(549,146,o),
(493,86,cs),
(436,25,o),
(358,-12,o),
(263,-12,cs)
);
},
{
closed = 1;
nodes = (
(342,109,o),
(390,151,o),
(406,226,cs),
(421,300,ls),
(422,303,o),
(421,299,o),
(422,299,c),
(423,304,o),
(425,309,o),
(426,314,c),
(425,314,l),
(315,220,l),
(203,127,l),
(220,115,o),
(245,109,o),
(274,109,cs)
);
},
{
closed = 1;
nodes = (
(259,440,o),
(214,399,o),
(195,323,c),
(179,248,ls),
(178,244,o),
(179,249,o),
(178,249,c),
(177,244,o),
(175,239,o),
(174,234,c),
(175,234,l),
(285,328,l),
(398,423,l),
(381,435,o),
(358,440,o),
(327,440,cs)
);
}
);
width = 600;
},
{
layerId = "1D0433F9-D608-41FF-8548-FFD7049742EF";
shapes = (
{
closed = 1;
nodes = (
(213,-12,o),
(173,-3,o),
(139,16,cs),
(70,53,o),
(31,126,o),
(31,227,cs),
(31,318,o),
(61,399,o),
(116,460,cs),
(171,521,o),
(247,558,o),
(340,558,cs),
(387,558,o),
(427,549,o),
(462,530,cs),
(530,493,o),
(569,422,o),
(569,319,cs),
(569,228,o),
(539,146,o),
(484,86,cs),
(428,25,o),
(352,-12,o),
(260,-12,cs)
);
},
{
closed = 1;
nodes = (
(346,96,o),
(398,144,o),
(415,227,cs),
(430,301,ls),
(431,306,o),
(431,307,o),
(432,312,cs),
(433,317,o),
(434,323,o),
(435,328,c),
(434,328,l),
(313,225,l),
(191,122,l),
(210,105,o),
(236,96,o),
(271,96,cs)
);
},
{
closed = 1;
nodes = (
(254,450,o),
(204,402,o),
(185,319,cs),
(169,244,ls),
(168,239,o),
(168,238,o),
(167,233,cs),
(166,228,o),
(165,222,o),
(164,217,c),
(165,217,l),
(286,320,l),
(409,424,l),
(390,441,o),
(364,450,o),
(329,450,cs)
);
}
);
width = 600;
},
{
layerId = "AA599D58-A149-49FA-A2EA-5B415EA8A4DA";
shapes = (
{
closed = 1;
nodes = (
(210,-12,o),
(176,-3,o),
(147,15,cs),
(90,50,o),
(58,119,o),
(58,214,cs),
(58,306,o),
(88,389,o),
(140,450,cs),
(192,511,o),
(264,548,o),
(345,548,cs),
(386,548,o),
(420,539,o),
(449,522,c),
(506,486,o),
(538,418,o),
(538,322,cs),
(538,230,o),
(508,147,o),
(456,86,cs),
(404,25,o),
(334,-12,o),
(251,-12,cs)
);
},
{
closed = 1;
nodes = (
(357,57,o),
(421,125,o),
(442,230,cs),
(457,305,l),
(460,316,o),
(462,331,o),
(462,350,cs),
(462,357,o),
(462,365,o),
(461,370,c),
(460,370,l),
(307,239,l),
(154,108,l),
(177,75,o),
(213,57,o),
(262,57,cs)
);
},
{
closed = 1;
nodes = (
(241,479,o),
(175,411,o),
(154,306,cs),
(139,231,l),
(138,222,o),
(134,205,o),
(134,186,cs),
(134,179,o),
(134,173,o),
(135,166,c),
(136,166,l),
(288,297,l),
(442,428,l),
(421,461,o),
(383,479,o),
(334,479,cs)
);
}
);
width = 600;
},
{
layerId = "6F034211-0C67-4D44-818B-30BEF4D1BE0C";
shapes = (
{
closed = 1;
nodes = (
(216,-12,o),
(182,-4,o),
(154,14,cs),
(98,48,o),
(69,108,o),
(69,179,cs),
(69,275,o),
(93,363,o),
(139,431,cs),
(185,498,o),
(253,538,o),
(344,538,cs),
(385,538,o),
(419,530,o),
(447,513,cs),
(502,479,o),
(531,418,o),
(531,347,cs),
(531,251,o),
(508,163,o),
(462,96,cs),
(416,28,o),
(347,-12,o),
(256,-12,cs)
);
},
{
closed = 1;
nodes = (
(383,7,o),
(469,94,o),
(497,235,cs),
(505,275,ls),
(509,298,o),
(510,322,o),
(510,347,cs),
(510,375,o),
(505,402,o),
(496,425,c),
(495,425,l),
(304,254,l),
(113,83,l),
(140,38,o),
(186,7,o),
(258,7,cs)
);
},
{
closed = 1;
nodes = (
(217,519,o),
(131,434,o),
(103,291,cs),
(95,251,ls),
(91,230,o),
(90,206,o),
(90,179,cs),
(90,151,o),
(95,124,o),
(104,101,c),
(105,101,l),
(295,272,l),
(487,443,l),
(462,490,o),
(414,519,o),
(342,519,cs)
);
}
);
width = 600;
}
);
},
{
glyphname = one.tosf;
layers = (
{
layerId = "0B7F572C-A94B-4AEA-9B1F-F41A56A498B5";
shapes = (
{
closed = 1;
nodes = (
(364,0,l),
(209,0,l),
(291,400,l),
(123,313,l),
(155,468,l),
(309,549,l),
(475,549,l)
);
}
);
width = 600;
},
{
layerId = "1D0433F9-D608-41FF-8548-FFD7049742EF";
shapes = (
{
closed = 1;
nodes = (
(356,0,l),
(220,0,l),
(304,413,l),
(136,325,l),
(164,463,l),
(319,546,l),
(466,546,l)
);
}
);
width = 600;
},
{
layerId = "AA599D58-A149-49FA-A2EA-5B415EA8A4DA";
shapes = (
{
closed = 1;
nodes = (
(333,0,l),
(252,0,l),
(343,453,l),
(175,361,l),
(192,448,l),
(348,536,l),
(440,536,l)
);
}
);
width = 600;
},
{
layerId = "6F034211-0C67-4D44-818B-30BEF4D1BE0C";
shapes = (
{
closed = 1;
nodes = (
(309,0,l),
(287,0,l),
(387,502,l),
(220,416,l),
(225,440,l),
(390,526,l),
(414,526,l)
);
}
);
width = 600;
}
);
},
{
glyphname = two.tosf;
layers = (
{
layerId = "0B7F572C-A94B-4AEA-9B1F-F41A56A498B5";
shapes = (
{
closed = 1;
nodes = (
(4,0,l),
(32,139,l),
(251,259,l),
(275,271,o),
(296,282,o),
(317,295,cs),
(337,308,o),
(353,325,o),
(357,352,c),
(360,365,o),
(359,370,o),
(359,375,cs),
(359,408,o),
(332,431,o),
(288,431,cs),
(236,431,o),
(185,388,o),
(162,328,c),
(49,400,l),
(64,434,o),
(83,463,o),
(108,488,cs),
(157,536,o),
(225,561,o),
(302,561,cs),
(369,561,o),
(423,545,o),
(463,514,cs),
(503,482,o),
(523,442,o),
(523,394,cs),
(523,327,o),
(495,281,o),
(456,248,cs),
(417,215,o),
(369,193,o),
(329,172,c),
(229,124,l),
(518,124,l),
(494,0,l)
);
}
);
width = 600;
},
{
layerId = "1D0433F9-D608-41FF-8548-FFD7049742EF";
shapes = (
{
closed = 1;
nodes = (
(13,0,l),
(38,124,l),
(249,242,ls),
(273,255,o),
(299,269,o),
(323,286,cs),
(347,303,o),
(366,325,o),
(371,354,c),
(374,366,o),
(374,374,o),
(374,381,cs),
(374,418,o),
(345,443,o),
(298,443,cs),
(243,443,o),
(192,402,o),
(164,341,c),
(66,404,l),
(82,437,o),
(102,466,o),
(126,489,cs),
(174,535,o),
(238,558,o),
(313,558,cs),
(375,558,o),
(425,543,o),
(462,513,cs),
(499,483,o),
(518,444,o),
(518,397,cs),
(518,329,o),
(488,280,o),
(446,244,cs),
(404,208,o),
(354,184,o),
(315,164,cs),
(210,111,l),
(509,111,l),
(487,0,l)
);
}
);
width = 600;
},
{
layerId = "AA599D58-A149-49FA-A2EA-5B415EA8A4DA";
shapes = (
{
closed = 1;
nodes = (
(39,0,l),
(55,80,l),
(242,191,ls),
(269,207,o),
(307,230,o),
(342,259,cs),
(377,287,o),
(405,322,o),
(413,359,cs),
(416,370,o),
(418,389,o),
(418,400,cs),
(418,447,o),
(383,479,o),
(327,479,cs),
(264,479,o),
(212,447,o),
(171,380,c),
(116,417,l),
(136,447,o),
(157,472,o),
(180,491,cs),
(225,530,o),
(280,548,o),
(345,548,cs),
(392,548,o),
(430,536,o),
(459,511,cs),
(488,486,o),
(503,450,o),
(503,405,cs),
(503,334,o),
(465,277,o),
(414,233,cs),
(363,189,o),
(309,158,o),
(274,139,cs),
(154,72,l),
(482,72,l),
(467,0,l)
);
}
);
width = 600;
},
{
layerId = "6F034211-0C67-4D44-818B-30BEF4D1BE0C";
shapes = (
{
closed = 1;
nodes = (
(35,0,l),
(39,20,l),
(293,175,ls),
(344,206,o),
(383,234,o),
(411,262,cs),
(439,290,o),
(458,319,o),
(463,348,cs),
(470,383,o),
(471,400,o),
(471,409,cs),
(471,469,o),
(428,518,o),
(333,518,cs),
(244,518,o),
(172,480,o),
(135,389,c),
(116,395,l),
(129,428,o),
(147,456,o),
(169,477,cs),
(212,519,o),
(271,538,o),
(336,538,cs),
(389,538,o),
(429,526,o),
(454,501,cs),
(479,476,o),
(492,445,o),
(492,409,cs),
(492,361,o),
(482,321,o),
(455,283,cs),
(428,245,o),
(381,207,o),
(309,163,cs),
(70,20,l),
(473,20,l),
(469,0,l)
);
}
);
width = 600;
}
);
},
